G04 #@! TF.GenerationSoftware,KiCad,Pcbnew,(6.0.10)*
G04 #@! TF.CreationDate,2023-01-17T19:43:44-05:00*
G04 #@! TF.ProjectId,at2xt,61743278-742e-46b6-9963-61645f706362,rev?*
G04 #@! TF.SameCoordinates,PX9fdfbc0PY31a8670*
G04 #@! TF.FileFunction,Copper,L1,Top*
G04 #@! TF.FilePolarity,Positive*
%FSLAX46Y46*%
G04 Gerber Fmt 4.6, Leading zero omitted, Abs format (unit mm)*
G04 Created by KiCad (PCBNEW (6.0.10)) date 2023-01-17 19:43:44*
%MOMM*%
%LPD*%
G01*
G04 APERTURE LIST*
G04 Aperture macros list*
%AMRoundRect*
0 Rectangle with rounded corners*
0 $1 Rounding radius*
0 $2 $3 $4 $5 $6 $7 $8 $9 X,Y pos of 4 corners*
0 Add a 4 corners polygon primitive as box body*
4,1,4,$2,$3,$4,$5,$6,$7,$8,$9,$2,$3,0*
0 Add four circle primitives for the rounded corners*
1,1,$1+$1,$2,$3*
1,1,$1+$1,$4,$5*
1,1,$1+$1,$6,$7*
1,1,$1+$1,$8,$9*
0 Add four rect primitives between the rounded corners*
20,1,$1+$1,$2,$3,$4,$5,0*
20,1,$1+$1,$4,$5,$6,$7,0*
20,1,$1+$1,$6,$7,$8,$9,0*
20,1,$1+$1,$8,$9,$2,$3,0*%
%AMFreePoly0*
4,1,9,3.862500,-0.866500,0.737500,-0.866500,0.737500,-0.450000,-0.737500,-0.450000,-0.737500,0.450000,0.737500,0.450000,0.737500,0.866500,3.862500,0.866500,3.862500,-0.866500,3.862500,-0.866500,$1*%
G04 Aperture macros list end*
G04 #@! TA.AperFunction,SMDPad,CuDef*
%ADD10R,0.900000X1.300000*%
G04 #@! TD*
G04 #@! TA.AperFunction,SMDPad,CuDef*
%ADD11FreePoly0,90.000000*%
G04 #@! TD*
G04 #@! TA.AperFunction,ComponentPad*
%ADD12C,2.100000*%
G04 #@! TD*
G04 #@! TA.AperFunction,ComponentPad*
%ADD13C,1.650000*%
G04 #@! TD*
G04 #@! TA.AperFunction,ComponentPad*
%ADD14C,3.900000*%
G04 #@! TD*
G04 #@! TA.AperFunction,SMDPad,CuDef*
%ADD15RoundRect,0.100000X-0.637500X-0.100000X0.637500X-0.100000X0.637500X0.100000X-0.637500X0.100000X0*%
G04 #@! TD*
G04 #@! TA.AperFunction,SMDPad,CuDef*
%ADD16RoundRect,0.200000X-0.200000X-0.275000X0.200000X-0.275000X0.200000X0.275000X-0.200000X0.275000X0*%
G04 #@! TD*
G04 #@! TA.AperFunction,SMDPad,CuDef*
%ADD17RoundRect,0.200000X0.275000X-0.200000X0.275000X0.200000X-0.275000X0.200000X-0.275000X-0.200000X0*%
G04 #@! TD*
G04 #@! TA.AperFunction,ComponentPad*
%ADD18R,1.700000X1.700000*%
G04 #@! TD*
G04 #@! TA.AperFunction,ComponentPad*
%ADD19O,1.700000X1.700000*%
G04 #@! TD*
G04 #@! TA.AperFunction,SMDPad,CuDef*
%ADD20RoundRect,0.225000X-0.225000X-0.250000X0.225000X-0.250000X0.225000X0.250000X-0.225000X0.250000X0*%
G04 #@! TD*
G04 #@! TA.AperFunction,SMDPad,CuDef*
%ADD21RoundRect,0.225000X0.250000X-0.225000X0.250000X0.225000X-0.250000X0.225000X-0.250000X-0.225000X0*%
G04 #@! TD*
G04 #@! TA.AperFunction,ViaPad*
%ADD22C,0.800000*%
G04 #@! TD*
G04 #@! TA.AperFunction,Conductor*
%ADD23C,0.250000*%
G04 #@! TD*
G04 #@! TA.AperFunction,Conductor*
%ADD24C,0.400000*%
G04 #@! TD*
G04 APERTURE END LIST*
D10*
G04 #@! TO.P,U1,1,GND*
G04 #@! TO.N,GND*
X-9120000Y-8635000D03*
D11*
G04 #@! TO.P,U1,2,VI*
G04 #@! TO.N,+5V*
X-7620000Y-8547500D03*
D10*
G04 #@! TO.P,U1,3,VO*
G04 #@! TO.N,+3.3V*
X-6120000Y-8635000D03*
G04 #@! TD*
D12*
G04 #@! TO.P,J3,1*
G04 #@! TO.N,ATCLK*
X-25520000Y-24430000D03*
G04 #@! TO.P,J3,2*
G04 #@! TO.N,ATDAT*
X-33020000Y-24430000D03*
G04 #@! TO.P,J3,3*
G04 #@! TO.N,unconnected-(J3-Pad3)*
X-40520000Y-24430000D03*
G04 #@! TO.P,J3,4*
G04 #@! TO.N,GND*
X-28020000Y-21930000D03*
G04 #@! TO.P,J3,5*
G04 #@! TO.N,+5V*
X-38020000Y-21930000D03*
G04 #@! TO.P,J3,MP*
G04 #@! TO.N,N/C*
X-28020000Y-33930000D03*
X-38020000Y-33930000D03*
G04 #@! TD*
G04 #@! TO.P,J2,MP*
G04 #@! TO.N,N/C*
X-17342500Y-5930000D03*
X-27342500Y-5930000D03*
G04 #@! TO.P,J2,5*
G04 #@! TO.N,+5V*
X-17342500Y-17930000D03*
G04 #@! TO.P,J2,4*
G04 #@! TO.N,GND*
X-27342500Y-17930000D03*
G04 #@! TO.P,J2,3*
G04 #@! TO.N,unconnected-(J2-Pad3)*
X-14842500Y-15430000D03*
G04 #@! TO.P,J2,2*
G04 #@! TO.N,XTDAT*
X-22342500Y-15430000D03*
G04 #@! TO.P,J2,1*
G04 #@! TO.N,XTCLK*
X-29842500Y-15430000D03*
G04 #@! TD*
D13*
G04 #@! TO.P,J4,1*
G04 #@! TO.N,ATDAT*
X-10130000Y-27430000D03*
G04 #@! TO.P,J4,2*
G04 #@! TO.N,unconnected-(J4-Pad2)*
X-12730000Y-27430000D03*
G04 #@! TO.P,J4,3*
G04 #@! TO.N,GND*
X-8030000Y-27430000D03*
G04 #@! TO.P,J4,4*
G04 #@! TO.N,+5V*
X-14830000Y-27430000D03*
G04 #@! TO.P,J4,5*
G04 #@! TO.N,ATCLK*
X-8030000Y-24930000D03*
G04 #@! TO.P,J4,6*
G04 #@! TO.N,unconnected-(J4-Pad6)*
X-14830000Y-24930000D03*
D14*
G04 #@! TO.P,J4,MP*
G04 #@! TO.N,N/C*
X-4680000Y-30430000D03*
X-11430000Y-31230000D03*
X-18180000Y-30430000D03*
G04 #@! TD*
D15*
G04 #@! TO.P,U2,14,VSS*
G04 #@! TO.N,GND*
X-3487500Y-14560000D03*
G04 #@! TO.P,U2,13,P2.6/XIN/TA0.1*
G04 #@! TO.N,unconnected-(U2-Pad13)*
X-3487500Y-15210000D03*
G04 #@! TO.P,U2,12,P2.7/XOUT*
G04 #@! TO.N,unconnected-(U2-Pad12)*
X-3487500Y-15860000D03*
G04 #@! TO.P,U2,11,SBWTCK/TEST*
G04 #@! TO.N,Net-(J1-Pad3)*
X-3487500Y-16510000D03*
G04 #@! TO.P,U2,10,~{RST}/NMI/SBWTDIO*
G04 #@! TO.N,Net-(C3-Pad1)*
X-3487500Y-17160000D03*
G04 #@! TO.P,U2,9,CA7/TDO/TDI/P1.7*
G04 #@! TO.N,unconnected-(U2-Pad9)*
X-3487500Y-17810000D03*
G04 #@! TO.P,U2,8,CA6/TA0.1/TDI/TCLK/P1.6*
G04 #@! TO.N,unconnected-(U2-Pad8)*
X-3487500Y-18460000D03*
G04 #@! TO.P,U2,7,CA5/TA0.0/TMS/P1.5*
G04 #@! TO.N,unconnected-(U2-Pad7)*
X-9212500Y-18460000D03*
G04 #@! TO.P,U2,6,CA4/SMCLK/TCK/P1.4*
G04 #@! TO.N,ATDAT*
X-9212500Y-17810000D03*
G04 #@! TO.P,U2,5,CAOUT/CA3/ADC10CLK/P1.3*
G04 #@! TO.N,XTDAT*
X-9212500Y-17160000D03*
G04 #@! TO.P,U2,4,CA2/TA0.1/P1.2*
G04 #@! TO.N,XTCLK*
X-9212500Y-16510000D03*
G04 #@! TO.P,U2,3,CA1/TA0.0/P1.1*
X-9212500Y-15860000D03*
G04 #@! TO.P,U2,2,CA0/TA0CLK/ACLK/P1.0*
G04 #@! TO.N,ATCLK*
X-9212500Y-15210000D03*
G04 #@! TO.P,U2,1,VCC*
G04 #@! TO.N,+3.3V*
X-9212500Y-14560000D03*
G04 #@! TD*
D16*
G04 #@! TO.P,R5,2*
G04 #@! TO.N,ATDAT*
X-35180000Y-18192500D03*
G04 #@! TO.P,R5,1*
G04 #@! TO.N,+3.3V*
X-36830000Y-18192500D03*
G04 #@! TD*
G04 #@! TO.P,R4,2*
G04 #@! TO.N,XTDAT*
X-35370000Y-12142500D03*
G04 #@! TO.P,R4,1*
G04 #@! TO.N,+3.3V*
X-37020000Y-12142500D03*
G04 #@! TD*
G04 #@! TO.P,R3,2*
G04 #@! TO.N,XTCLK*
X-35490000Y-9112500D03*
G04 #@! TO.P,R3,1*
G04 #@! TO.N,+3.3V*
X-37140000Y-9112500D03*
G04 #@! TD*
G04 #@! TO.P,R2,1*
G04 #@! TO.N,+3.3V*
X-37020000Y-15240000D03*
G04 #@! TO.P,R2,2*
G04 #@! TO.N,ATCLK*
X-35370000Y-15240000D03*
G04 #@! TD*
D17*
G04 #@! TO.P,R1,1*
G04 #@! TO.N,+3.3V*
X-39612500Y-12255000D03*
G04 #@! TO.P,R1,2*
G04 #@! TO.N,Net-(C3-Pad1)*
X-39612500Y-10605000D03*
G04 #@! TD*
D18*
G04 #@! TO.P,J1,1,Pin_1*
G04 #@! TO.N,Net-(C3-Pad1)*
X-42545000Y-8255000D03*
D19*
G04 #@! TO.P,J1,2,Pin_2*
G04 #@! TO.N,+3.3V*
X-42545000Y-10795000D03*
G04 #@! TO.P,J1,3,Pin_3*
G04 #@! TO.N,Net-(J1-Pad3)*
X-42545000Y-13335000D03*
G04 #@! TO.P,J1,4,Pin_4*
G04 #@! TO.N,GND*
X-42545000Y-15875000D03*
G04 #@! TD*
D20*
G04 #@! TO.P,C4,2*
G04 #@! TO.N,GND*
X-5575000Y-12700000D03*
G04 #@! TO.P,C4,1*
G04 #@! TO.N,+3.3V*
X-7125000Y-12700000D03*
G04 #@! TD*
D21*
G04 #@! TO.P,C3,2*
G04 #@! TO.N,GND*
X-39605000Y-6845000D03*
G04 #@! TO.P,C3,1*
G04 #@! TO.N,Net-(C3-Pad1)*
X-39605000Y-8395000D03*
G04 #@! TD*
D20*
G04 #@! TO.P,C2,1*
G04 #@! TO.N,+5V*
X-9665000Y-3575000D03*
G04 #@! TO.P,C2,2*
G04 #@! TO.N,GND*
X-8115000Y-3575000D03*
G04 #@! TD*
G04 #@! TO.P,C1,1*
G04 #@! TO.N,+3.3V*
X-3950000Y-8850000D03*
G04 #@! TO.P,C1,2*
G04 #@! TO.N,GND*
X-2400000Y-8850000D03*
G04 #@! TD*
D22*
G04 #@! TO.N,GND*
X-21590000Y-28575000D03*
X-40005000Y-5080000D03*
X-22225000Y-6985000D03*
X-2540000Y-5715000D03*
X-3810000Y-12700000D03*
X-10795000Y-8890000D03*
G04 #@! TO.N,+3.3V*
X-6120000Y-11025000D03*
G04 #@! TO.N,XTCLK*
X-29845000Y-10160000D03*
G04 #@! TO.N,+3.3V*
X-34290000Y-6985000D03*
G04 #@! TO.N,XTCLK*
X-10795000Y-15240000D03*
G04 #@! TO.N,XTDAT*
X-11430000Y-16510000D03*
G04 #@! TO.N,Net-(J1-Pad3)*
X-5080000Y-15875000D03*
G04 #@! TO.N,Net-(C3-Pad1)*
X-6350000Y-14605000D03*
G04 #@! TO.N,ATCLK*
X-6985000Y-20320000D03*
G04 #@! TO.N,ATDAT*
X-12065000Y-22314500D03*
G04 #@! TD*
D23*
G04 #@! TO.N,Net-(C3-Pad1)*
X-5065000Y-17160000D02*
X-3487500Y-17160000D01*
X-6350000Y-14605000D02*
X-6350000Y-15873604D01*
X-6350000Y-15873604D02*
X-5900000Y-16323604D01*
X-5900000Y-16323604D02*
X-5900000Y-16325000D01*
X-5900000Y-16325000D02*
X-5065000Y-17160000D01*
D24*
G04 #@! TO.N,+3.3V*
X-6120000Y-11695000D02*
X-7125000Y-12700000D01*
X-6120000Y-11025000D02*
X-6120000Y-8635000D01*
X-6120000Y-11025000D02*
X-6120000Y-11695000D01*
G04 #@! TO.N,+5V*
X-7620000Y-10160000D02*
X-7620000Y-8547500D01*
X-9525000Y-12065000D02*
X-7620000Y-10160000D01*
X-17342500Y-13532500D02*
X-15875000Y-12065000D01*
X-15875000Y-12065000D02*
X-9525000Y-12065000D01*
X-17342500Y-17930000D02*
X-17342500Y-13532500D01*
G04 #@! TO.N,+3.3V*
X-7125000Y-12700000D02*
X-7352500Y-12700000D01*
X-7352500Y-12700000D02*
X-9212500Y-14560000D01*
G04 #@! TO.N,+5V*
X-7620000Y-6985000D02*
X-7620000Y-8547500D01*
X-9665000Y-4940000D02*
X-7620000Y-6985000D01*
X-9665000Y-3575000D02*
X-9665000Y-4940000D01*
G04 #@! TO.N,+3.3V*
X-6120000Y-8635000D02*
X-4165000Y-8635000D01*
X-35012500Y-6985000D02*
X-37020000Y-8992500D01*
X-37020000Y-8992500D02*
X-37020000Y-12142500D01*
X-34290000Y-6985000D02*
X-35012500Y-6985000D01*
D23*
G04 #@! TO.N,ATCLK*
X-25520000Y-24430000D02*
X-28187272Y-24430000D01*
X-34925000Y-15240000D02*
X-35370000Y-15240000D01*
X-28187272Y-24430000D02*
X-30480000Y-22137272D01*
X-30480000Y-19685000D02*
X-34925000Y-15240000D01*
X-30480000Y-22137272D02*
X-30480000Y-19685000D01*
G04 #@! TO.N,ATDAT*
X-35180000Y-20065000D02*
X-35180000Y-18192500D01*
X-33020000Y-24430000D02*
X-33020000Y-22225000D01*
X-33020000Y-22225000D02*
X-35180000Y-20065000D01*
D24*
G04 #@! TO.N,+3.3V*
X-37020000Y-15240000D02*
X-37020000Y-12142500D01*
X-36830000Y-15430000D02*
X-37020000Y-15240000D01*
X-36830000Y-18192500D02*
X-36830000Y-15430000D01*
X-39612500Y-12255000D02*
X-37132500Y-12255000D01*
X-37132500Y-12255000D02*
X-37020000Y-12142500D01*
X-41085000Y-12255000D02*
X-39612500Y-12255000D01*
X-42545000Y-10795000D02*
X-41085000Y-12255000D01*
G04 #@! TO.N,+5V*
X-17342500Y-24917500D02*
X-17342500Y-17930000D01*
X-14830000Y-27430000D02*
X-17342500Y-24917500D01*
D23*
G04 #@! TO.N,ATDAT*
X-10190000Y-17810000D02*
X-9212500Y-17810000D01*
X-11430000Y-19050000D02*
X-10190000Y-17810000D01*
X-11430000Y-21679500D02*
X-11430000Y-19050000D01*
X-12065000Y-22314500D02*
X-11430000Y-21679500D01*
G04 #@! TO.N,ATCLK*
X-6985000Y-23885000D02*
X-8030000Y-24930000D01*
X-6985000Y-20320000D02*
X-6985000Y-23885000D01*
G04 #@! TO.N,XTCLK*
X-30480000Y-9525000D02*
X-35490000Y-9525000D01*
X-29845000Y-10160000D02*
X-30480000Y-9525000D01*
G04 #@! TO.N,XTDAT*
X-25630000Y-12142500D02*
X-35370000Y-12142500D01*
X-22342500Y-15430000D02*
X-25630000Y-12142500D01*
G04 #@! TO.N,Net-(C3-Pad1)*
X-39745000Y-8255000D02*
X-39605000Y-8395000D01*
X-42545000Y-8255000D02*
X-39745000Y-8255000D01*
X-39612500Y-8402500D02*
X-39605000Y-8395000D01*
X-39612500Y-10605000D02*
X-39612500Y-8402500D01*
G04 #@! TO.N,+3.3V*
X-36830000Y-17780000D02*
X-36830000Y-15430000D01*
G04 #@! TO.N,XTDAT*
X-10146396Y-17160000D02*
X-9212500Y-17160000D01*
X-11430000Y-16510000D02*
X-10796396Y-16510000D01*
X-10796396Y-16510000D02*
X-10146396Y-17160000D01*
G04 #@! TO.N,XTCLK*
X-10795000Y-15240000D02*
X-10795000Y-15875000D01*
G04 #@! TO.N,ATCLK*
X-7650000Y-15210000D02*
X-9212500Y-15210000D01*
X-6985000Y-15875000D02*
X-7650000Y-15210000D01*
X-6985000Y-20320000D02*
X-6985000Y-15875000D01*
G04 #@! TO.N,XTCLK*
X-9212500Y-15860000D02*
X-10780000Y-15860000D01*
X-10780000Y-15860000D02*
X-10795000Y-15875000D01*
G04 #@! TO.N,Net-(J1-Pad3)*
X-4445000Y-16510000D02*
X-5080000Y-15875000D01*
X-3487500Y-16510000D02*
X-4445000Y-16510000D01*
G04 #@! TO.N,XTCLK*
X-10160000Y-16510000D02*
X-10795000Y-15875000D01*
X-9212500Y-16510000D02*
X-10160000Y-16510000D01*
G04 #@! TD*
G04 #@! TA.AperFunction,Conductor*
G04 #@! TO.N,GND*
G36*
X-241309Y-219407D02*
G01*
X-205345Y-268907D01*
X-200500Y-299500D01*
X-200500Y-39070500D01*
X-219407Y-39128691D01*
X-268907Y-39164655D01*
X-299500Y-39169500D01*
X-45420500Y-39169500D01*
X-45478691Y-39150593D01*
X-45514655Y-39101093D01*
X-45519500Y-39070500D01*
X-45519500Y-33930000D01*
X-39275277Y-33930000D01*
X-39256207Y-34147977D01*
X-39199575Y-34359330D01*
X-39107102Y-34557638D01*
X-38981598Y-34736877D01*
X-38826877Y-34891598D01*
X-38647639Y-35017102D01*
X-38449330Y-35109575D01*
X-38362780Y-35132766D01*
X-38242154Y-35165088D01*
X-38242152Y-35165088D01*
X-38237977Y-35166207D01*
X-38020000Y-35185277D01*
X-37802023Y-35166207D01*
X-37797848Y-35165088D01*
X-37797846Y-35165088D01*
X-37677220Y-35132766D01*
X-37590670Y-35109575D01*
X-37392361Y-35017102D01*
X-37213123Y-34891598D01*
X-37058402Y-34736877D01*
X-36932898Y-34557638D01*
X-36840425Y-34359330D01*
X-36783793Y-34147977D01*
X-36764723Y-33930000D01*
X-29275277Y-33930000D01*
X-29256207Y-34147977D01*
X-29199575Y-34359330D01*
X-29107102Y-34557638D01*
X-28981598Y-34736877D01*
X-28826877Y-34891598D01*
X-28647639Y-35017102D01*
X-28449330Y-35109575D01*
X-28362780Y-35132766D01*
X-28242154Y-35165088D01*
X-28242152Y-35165088D01*
X-28237977Y-35166207D01*
X-28020000Y-35185277D01*
X-27802023Y-35166207D01*
X-27797848Y-35165088D01*
X-27797846Y-35165088D01*
X-27677220Y-35132766D01*
X-27590670Y-35109575D01*
X-27392361Y-35017102D01*
X-27213123Y-34891598D01*
X-27058402Y-34736877D01*
X-26932898Y-34557638D01*
X-26840425Y-34359330D01*
X-26783793Y-34147977D01*
X-26764723Y-33930000D01*
X-26783793Y-33712023D01*
X-26840425Y-33500670D01*
X-26932898Y-33302362D01*
X-27058402Y-33123123D01*
X-27213123Y-32968402D01*
X-27392361Y-32842898D01*
X-27590670Y-32750425D01*
X-27677220Y-32727234D01*
X-27797846Y-32694912D01*
X-27797848Y-32694912D01*
X-27802023Y-32693793D01*
X-28020000Y-32674723D01*
X-28237977Y-32693793D01*
X-28242152Y-32694912D01*
X-28242154Y-32694912D01*
X-28362780Y-32727234D01*
X-28449330Y-32750425D01*
X-28647638Y-32842898D01*
X-28826877Y-32968402D01*
X-28981598Y-33123123D01*
X-29107102Y-33302362D01*
X-29199575Y-33500670D01*
X-29256207Y-33712023D01*
X-29275277Y-33930000D01*
X-36764723Y-33930000D01*
X-36783793Y-33712023D01*
X-36840425Y-33500670D01*
X-36932898Y-33302362D01*
X-37058402Y-33123123D01*
X-37213123Y-32968402D01*
X-37392361Y-32842898D01*
X-37590670Y-32750425D01*
X-37677220Y-32727234D01*
X-37797846Y-32694912D01*
X-37797848Y-32694912D01*
X-37802023Y-32693793D01*
X-38020000Y-32674723D01*
X-38237977Y-32693793D01*
X-38242152Y-32694912D01*
X-38242154Y-32694912D01*
X-38362780Y-32727234D01*
X-38449330Y-32750425D01*
X-38647638Y-32842898D01*
X-38826877Y-32968402D01*
X-38981598Y-33123123D01*
X-39107102Y-33302362D01*
X-39199575Y-33500670D01*
X-39256207Y-33712023D01*
X-39275277Y-33930000D01*
X-45519500Y-33930000D01*
X-45519500Y-30407428D01*
X-20335407Y-30407428D01*
X-20335213Y-30410793D01*
X-20335213Y-30410797D01*
X-20321583Y-30647168D01*
X-20318528Y-30700159D01*
X-20262077Y-30987891D01*
X-20167099Y-31265300D01*
X-20035351Y-31527251D01*
X-19869271Y-31768900D01*
X-19867003Y-31771393D01*
X-19867001Y-31771395D01*
X-19795721Y-31849730D01*
X-19671932Y-31985772D01*
X-19446986Y-32173856D01*
X-19198595Y-32329672D01*
X-18931356Y-32450335D01*
X-18928126Y-32451292D01*
X-18928120Y-32451294D01*
X-18653445Y-32532656D01*
X-18653440Y-32532657D01*
X-18650213Y-32533613D01*
X-18447694Y-32564603D01*
X-18363704Y-32577455D01*
X-18363702Y-32577455D01*
X-18360370Y-32577965D01*
X-18356998Y-32578018D01*
X-18316911Y-32578648D01*
X-18067189Y-32582571D01*
X-18063853Y-32582167D01*
X-18063847Y-32582167D01*
X-17779438Y-32547750D01*
X-17779431Y-32547749D01*
X-17776095Y-32547345D01*
X-17492475Y-32472939D01*
X-17317438Y-32400436D01*
X-17224687Y-32362017D01*
X-17224685Y-32362016D01*
X-17221578Y-32360729D01*
X-17165370Y-32327884D01*
X-16971330Y-32214497D01*
X-16971324Y-32214493D01*
X-16968415Y-32212793D01*
X-16737672Y-32031867D01*
X-16533619Y-31821300D01*
X-16511426Y-31791089D01*
X-16463254Y-31725510D01*
X-16360030Y-31584988D01*
X-16350370Y-31567198D01*
X-16221728Y-31330267D01*
X-16220119Y-31327304D01*
X-16174822Y-31207428D01*
X-13585407Y-31207428D01*
X-13585213Y-31210793D01*
X-13585213Y-31210797D01*
X-13581391Y-31277072D01*
X-13568528Y-31500159D01*
X-13567880Y-31503462D01*
X-13516347Y-31766125D01*
X-13512077Y-31787891D01*
X-13417099Y-32065300D01*
X-13285351Y-32327251D01*
X-13119271Y-32568900D01*
X-13117003Y-32571393D01*
X-13117001Y-32571395D01*
X-13043877Y-32651757D01*
X-12921932Y-32785772D01*
X-12696986Y-32973856D01*
X-12448595Y-33129672D01*
X-12181356Y-33250335D01*
X-12178126Y-33251292D01*
X-12178120Y-33251294D01*
X-11903445Y-33332656D01*
X-11903440Y-33332657D01*
X-11900213Y-33333613D01*
X-11697694Y-33364603D01*
X-11613704Y-33377455D01*
X-11613702Y-33377455D01*
X-11610370Y-33377965D01*
X-11606998Y-33378018D01*
X-11566911Y-33378648D01*
X-11317189Y-33382571D01*
X-11313853Y-33382167D01*
X-11313847Y-33382167D01*
X-11029438Y-33347750D01*
X-11029431Y-33347749D01*
X-11026095Y-33347345D01*
X-10742475Y-33272939D01*
X-10471578Y-33160729D01*
X-10415370Y-33127884D01*
X-10221330Y-33014497D01*
X-10221324Y-33014493D01*
X-10218415Y-33012793D01*
X-9987672Y-32831867D01*
X-9783619Y-32621300D01*
X-9755169Y-32582571D01*
X-9658737Y-32451294D01*
X-9610030Y-32384988D01*
X-9597557Y-32362017D01*
X-9471728Y-32130267D01*
X-9470119Y-32127304D01*
X-9366474Y-31853015D01*
X-9305087Y-31584988D01*
X-9301766Y-31570488D01*
X-9301765Y-31570481D01*
X-9301013Y-31567198D01*
X-9297448Y-31527251D01*
X-9275120Y-31277072D01*
X-9275120Y-31277066D01*
X-9274948Y-31275142D01*
X-9274475Y-31230000D01*
X-9294418Y-30937462D01*
X-9299726Y-30911829D01*
X-9353196Y-30653633D01*
X-9353198Y-30653627D01*
X-9353879Y-30650337D01*
X-9361566Y-30628628D01*
X-9416603Y-30473211D01*
X-9439898Y-30407428D01*
X-6835407Y-30407428D01*
X-6835213Y-30410793D01*
X-6835213Y-30410797D01*
X-6821583Y-30647168D01*
X-6818528Y-30700159D01*
X-6762077Y-30987891D01*
X-6667099Y-31265300D01*
X-6535351Y-31527251D01*
X-6369271Y-31768900D01*
X-6367003Y-31771393D01*
X-6367001Y-31771395D01*
X-6295721Y-31849730D01*
X-6171932Y-31985772D01*
X-5946986Y-32173856D01*
X-5698595Y-32329672D01*
X-5431356Y-32450335D01*
X-5428126Y-32451292D01*
X-5428120Y-32451294D01*
X-5153445Y-32532656D01*
X-5153440Y-32532657D01*
X-5150213Y-32533613D01*
X-4947694Y-32564603D01*
X-4863704Y-32577455D01*
X-4863702Y-32577455D01*
X-4860370Y-32577965D01*
X-4856998Y-32578018D01*
X-4816911Y-32578648D01*
X-4567189Y-32582571D01*
X-4563853Y-32582167D01*
X-4563847Y-32582167D01*
X-4279438Y-32547750D01*
X-4279431Y-32547749D01*
X-4276095Y-32547345D01*
X-3992475Y-32472939D01*
X-3817438Y-32400436D01*
X-3724687Y-32362017D01*
X-3724685Y-32362016D01*
X-3721578Y-32360729D01*
X-3665370Y-32327884D01*
X-3471330Y-32214497D01*
X-3471324Y-32214493D01*
X-3468415Y-32212793D01*
X-3237672Y-32031867D01*
X-3033619Y-31821300D01*
X-3011426Y-31791089D01*
X-2963254Y-31725510D01*
X-2860030Y-31584988D01*
X-2850370Y-31567198D01*
X-2721728Y-31330267D01*
X-2720119Y-31327304D01*
X-2616474Y-31053015D01*
X-2589019Y-30933142D01*
X-2551766Y-30770488D01*
X-2551765Y-30770481D01*
X-2551013Y-30767198D01*
X-2540878Y-30653633D01*
X-2525120Y-30477072D01*
X-2525120Y-30477066D01*
X-2524948Y-30475142D01*
X-2524475Y-30430000D01*
X-2544418Y-30137462D01*
X-2602135Y-29858757D01*
X-2603196Y-29853633D01*
X-2603198Y-29853627D01*
X-2603879Y-29850337D01*
X-2611566Y-29828628D01*
X-2671745Y-29658690D01*
X-2701757Y-29573938D01*
X-2836241Y-29313380D01*
X-3004842Y-29073484D01*
X-3204442Y-28858690D01*
X-3220223Y-28845773D01*
X-3428732Y-28675110D01*
X-3428739Y-28675105D01*
X-3431345Y-28672972D01*
X-3681354Y-28519766D01*
X-3704939Y-28509413D01*
X-3946759Y-28403261D01*
X-3946763Y-28403259D01*
X-3949842Y-28401908D01*
X-4056744Y-28371456D01*
X-4228589Y-28322504D01*
X-4228594Y-28322503D01*
X-4231841Y-28321578D01*
X-4522133Y-28280264D01*
X-4525499Y-28280246D01*
X-4525504Y-28280246D01*
X-4657587Y-28279554D01*
X-4815347Y-28278728D01*
X-5106055Y-28317001D01*
X-5109312Y-28317892D01*
X-5109317Y-28317893D01*
X-5267015Y-28361034D01*
X-5388880Y-28394373D01*
X-5658588Y-28509413D01*
X-5910187Y-28659992D01*
X-6139023Y-28843324D01*
X-6340861Y-29056017D01*
X-6342829Y-29058756D01*
X-6342830Y-29058757D01*
X-6357193Y-29078746D01*
X-6511965Y-29294134D01*
X-6649170Y-29553269D01*
X-6749937Y-29828628D01*
X-6812401Y-30115114D01*
X-6835407Y-30407428D01*
X-9439898Y-30407428D01*
X-9451757Y-30373938D01*
X-9586241Y-30113380D01*
X-9754842Y-29873484D01*
X-9954442Y-29658690D01*
X-9970223Y-29645773D01*
X-10178732Y-29475110D01*
X-10178739Y-29475105D01*
X-10181345Y-29472972D01*
X-10431354Y-29319766D01*
X-10439058Y-29316384D01*
X-10696759Y-29203261D01*
X-10696763Y-29203259D01*
X-10699842Y-29201908D01*
X-10754539Y-29186327D01*
X-10978589Y-29122504D01*
X-10978594Y-29122503D01*
X-10981841Y-29121578D01*
X-11272133Y-29080264D01*
X-11275499Y-29080246D01*
X-11275504Y-29080246D01*
X-11407587Y-29079554D01*
X-11565347Y-29078728D01*
X-11856055Y-29117001D01*
X-11859312Y-29117892D01*
X-11859317Y-29117893D01*
X-12017015Y-29161034D01*
X-12138880Y-29194373D01*
X-12408588Y-29309413D01*
X-12660187Y-29459992D01*
X-12889023Y-29643324D01*
X-13090861Y-29856017D01*
X-13261965Y-30094134D01*
X-13399170Y-30353269D01*
X-13499937Y-30628628D01*
X-13562401Y-30915114D01*
X-13585407Y-31207428D01*
X-16174822Y-31207428D01*
X-16116474Y-31053015D01*
X-16089019Y-30933142D01*
X-16051766Y-30770488D01*
X-16051765Y-30770481D01*
X-16051013Y-30767198D01*
X-16040878Y-30653633D01*
X-16025120Y-30477072D01*
X-16025120Y-30477066D01*
X-16024948Y-30475142D01*
X-16024475Y-30430000D01*
X-16044418Y-30137462D01*
X-16102135Y-29858757D01*
X-16103196Y-29853633D01*
X-16103198Y-29853627D01*
X-16103879Y-29850337D01*
X-16111566Y-29828628D01*
X-16171745Y-29658690D01*
X-16201757Y-29573938D01*
X-16336241Y-29313380D01*
X-16504842Y-29073484D01*
X-16704442Y-28858690D01*
X-16720223Y-28845773D01*
X-16928732Y-28675110D01*
X-16928739Y-28675105D01*
X-16931345Y-28672972D01*
X-17181354Y-28519766D01*
X-17204939Y-28509413D01*
X-17446759Y-28403261D01*
X-17446763Y-28403259D01*
X-17449842Y-28401908D01*
X-17556744Y-28371456D01*
X-17728589Y-28322504D01*
X-17728594Y-28322503D01*
X-17731841Y-28321578D01*
X-18022133Y-28280264D01*
X-18025499Y-28280246D01*
X-18025504Y-28280246D01*
X-18157587Y-28279554D01*
X-18315347Y-28278728D01*
X-18606055Y-28317001D01*
X-18609312Y-28317892D01*
X-18609317Y-28317893D01*
X-18767015Y-28361034D01*
X-18888880Y-28394373D01*
X-19158588Y-28509413D01*
X-19410187Y-28659992D01*
X-19639023Y-28843324D01*
X-19840861Y-29056017D01*
X-19842829Y-29058756D01*
X-19842830Y-29058757D01*
X-19857193Y-29078746D01*
X-20011965Y-29294134D01*
X-20149170Y-29553269D01*
X-20249937Y-29828628D01*
X-20312401Y-30115114D01*
X-20335407Y-30407428D01*
X-45519500Y-30407428D01*
X-45519500Y-24430000D01*
X-41775277Y-24430000D01*
X-41756207Y-24647977D01*
X-41755088Y-24652152D01*
X-41755088Y-24652154D01*
X-41734269Y-24729849D01*
X-41699575Y-24859330D01*
X-41607102Y-25057638D01*
X-41481598Y-25236877D01*
X-41326877Y-25391598D01*
X-41211996Y-25472039D01*
X-41183475Y-25492009D01*
X-41147639Y-25517102D01*
X-40949330Y-25609575D01*
X-40862780Y-25632766D01*
X-40742154Y-25665088D01*
X-40742152Y-25665088D01*
X-40737977Y-25666207D01*
X-40520000Y-25685277D01*
X-40302023Y-25666207D01*
X-40297848Y-25665088D01*
X-40297846Y-25665088D01*
X-40177220Y-25632766D01*
X-40090670Y-25609575D01*
X-39892361Y-25517102D01*
X-39856524Y-25492009D01*
X-39828004Y-25472039D01*
X-39713123Y-25391598D01*
X-39558402Y-25236877D01*
X-39432898Y-25057638D01*
X-39340425Y-24859330D01*
X-39305731Y-24729849D01*
X-39284912Y-24652154D01*
X-39284912Y-24652152D01*
X-39283793Y-24647977D01*
X-39264723Y-24430000D01*
X-39283793Y-24212023D01*
X-39284963Y-24207654D01*
X-39318515Y-24082438D01*
X-39340425Y-24000670D01*
X-39432898Y-23802362D01*
X-39558402Y-23623123D01*
X-39713123Y-23468402D01*
X-39892361Y-23342898D01*
X-40090670Y-23250425D01*
X-40194499Y-23222604D01*
X-40297846Y-23194912D01*
X-40297848Y-23194912D01*
X-40302023Y-23193793D01*
X-40520000Y-23174723D01*
X-40737977Y-23193793D01*
X-40742152Y-23194912D01*
X-40742154Y-23194912D01*
X-40845501Y-23222604D01*
X-40949330Y-23250425D01*
X-41147638Y-23342898D01*
X-41326877Y-23468402D01*
X-41481598Y-23623123D01*
X-41607102Y-23802362D01*
X-41699575Y-24000670D01*
X-41721485Y-24082438D01*
X-41755036Y-24207654D01*
X-41756207Y-24212023D01*
X-41775277Y-24430000D01*
X-45519500Y-24430000D01*
X-45519500Y-21930000D01*
X-39275277Y-21930000D01*
X-39256207Y-22147977D01*
X-39199575Y-22359330D01*
X-39107102Y-22557638D01*
X-38981598Y-22736877D01*
X-38826877Y-22891598D01*
X-38647639Y-23017102D01*
X-38449330Y-23109575D01*
X-38362780Y-23132766D01*
X-38242154Y-23165088D01*
X-38242152Y-23165088D01*
X-38237977Y-23166207D01*
X-38020000Y-23185277D01*
X-37802023Y-23166207D01*
X-37797848Y-23165088D01*
X-37797846Y-23165088D01*
X-37677220Y-23132766D01*
X-37590670Y-23109575D01*
X-37392361Y-23017102D01*
X-37213123Y-22891598D01*
X-37058402Y-22736877D01*
X-36932898Y-22557638D01*
X-36840425Y-22359330D01*
X-36783793Y-22147977D01*
X-36764723Y-21930000D01*
X-36783793Y-21712023D01*
X-36789370Y-21691207D01*
X-36839307Y-21504843D01*
X-36840425Y-21500670D01*
X-36932898Y-21302362D01*
X-37058402Y-21123123D01*
X-37213123Y-20968402D01*
X-37392361Y-20842898D01*
X-37590670Y-20750425D01*
X-37677220Y-20727234D01*
X-37797846Y-20694912D01*
X-37797848Y-20694912D01*
X-37802023Y-20693793D01*
X-38020000Y-20674723D01*
X-38237977Y-20693793D01*
X-38242152Y-20694912D01*
X-38242154Y-20694912D01*
X-38362780Y-20727234D01*
X-38449330Y-20750425D01*
X-38647638Y-20842898D01*
X-38826877Y-20968402D01*
X-38981598Y-21123123D01*
X-39107102Y-21302362D01*
X-39199575Y-21500670D01*
X-39200693Y-21504843D01*
X-39250629Y-21691207D01*
X-39256207Y-21712023D01*
X-39275277Y-21930000D01*
X-45519500Y-21930000D01*
X-45519500Y-16143222D01*
X-43560451Y-16143222D01*
X-43527326Y-16258743D01*
X-43523775Y-16267711D01*
X-43434081Y-16442236D01*
X-43428858Y-16450341D01*
X-43306963Y-16604134D01*
X-43300280Y-16611055D01*
X-43150836Y-16738241D01*
X-43142922Y-16743742D01*
X-42971627Y-16839475D01*
X-42962799Y-16843332D01*
X-42813912Y-16891708D01*
X-42802521Y-16891708D01*
X-42799000Y-16880871D01*
X-42799000Y-16878608D01*
X-42291000Y-16878608D01*
X-42287253Y-16890141D01*
X-42276921Y-16890357D01*
X-42168118Y-16859978D01*
X-42159138Y-16856496D01*
X-41983980Y-16768017D01*
X-41975845Y-16762854D01*
X-41821213Y-16642042D01*
X-41814229Y-16635391D01*
X-41686010Y-16486848D01*
X-41680454Y-16478973D01*
X-41583529Y-16308353D01*
X-41579608Y-16299546D01*
X-41527824Y-16143879D01*
X-41527745Y-16132612D01*
X-41538732Y-16129000D01*
X-42275320Y-16129000D01*
X-42288005Y-16133122D01*
X-42291000Y-16137243D01*
X-42291000Y-16878608D01*
X-42799000Y-16878608D01*
X-42799000Y-16144680D01*
X-42803122Y-16131995D01*
X-42807243Y-16129000D01*
X-43548849Y-16129000D01*
X-43560267Y-16132710D01*
X-43560451Y-16143222D01*
X-45519500Y-16143222D01*
X-45519500Y-15606053D01*
X-43561297Y-15606053D01*
X-43561216Y-15617570D01*
X-43550534Y-15621000D01*
X-42814680Y-15621000D01*
X-42801995Y-15616878D01*
X-42799000Y-15612757D01*
X-42799000Y-15605320D01*
X-42291000Y-15605320D01*
X-42286878Y-15618005D01*
X-42282757Y-15621000D01*
X-41540507Y-15621000D01*
X-41529319Y-15617365D01*
X-41529206Y-15606497D01*
X-41568131Y-15477572D01*
X-41571801Y-15468668D01*
X-41663928Y-15295401D01*
X-41669260Y-15287376D01*
X-41793284Y-15135307D01*
X-41800078Y-15128466D01*
X-41951279Y-15003381D01*
X-41959262Y-14997997D01*
X-42131886Y-14904660D01*
X-42140757Y-14900931D01*
X-42276023Y-14859059D01*
X-42287660Y-14859222D01*
X-42291000Y-14869750D01*
X-42291000Y-15605320D01*
X-42799000Y-15605320D01*
X-42799000Y-14870857D01*
X-42802673Y-14859553D01*
X-42813362Y-14859404D01*
X-42935593Y-14895378D01*
X-42944534Y-14898991D01*
X-43118427Y-14989899D01*
X-43126503Y-14995184D01*
X-43279429Y-15118140D01*
X-43286313Y-15124881D01*
X-43412449Y-15275205D01*
X-43417896Y-15283159D01*
X-43512427Y-15455111D01*
X-43516227Y-15463976D01*
X-43561297Y-15606053D01*
X-45519500Y-15606053D01*
X-45519500Y-13320262D01*
X-43600480Y-13320262D01*
X-43594984Y-13385711D01*
X-43587984Y-13469067D01*
X-43583241Y-13525553D01*
X-43581908Y-13530201D01*
X-43581908Y-13530202D01*
X-43541994Y-13669397D01*
X-43526456Y-13723586D01*
X-43432288Y-13906818D01*
X-43304323Y-14068270D01*
X-43300643Y-14071402D01*
X-43300641Y-14071404D01*
X-43231198Y-14130504D01*
X-43147436Y-14201791D01*
X-43143213Y-14204151D01*
X-43143209Y-14204154D01*
X-43026298Y-14269493D01*
X-42967602Y-14302297D01*
X-42963004Y-14303791D01*
X-42776276Y-14364463D01*
X-42776274Y-14364464D01*
X-42771671Y-14365959D01*
X-42567106Y-14390351D01*
X-42562284Y-14389980D01*
X-42562281Y-14389980D01*
X-42494459Y-14384761D01*
X-42361700Y-14374546D01*
X-42163275Y-14319145D01*
X-42158962Y-14316966D01*
X-42158956Y-14316964D01*
X-41983711Y-14228441D01*
X-41983709Y-14228440D01*
X-41979390Y-14226258D01*
X-41964911Y-14214946D01*
X-41820865Y-14102406D01*
X-41820861Y-14102402D01*
X-41817049Y-14099424D01*
X-41804093Y-14084415D01*
X-41730641Y-13999318D01*
X-41682436Y-13943472D01*
X-41663769Y-13910613D01*
X-41583066Y-13768550D01*
X-41583065Y-13768547D01*
X-41580677Y-13764344D01*
X-41572379Y-13739401D01*
X-41517176Y-13573454D01*
X-41517176Y-13573452D01*
X-41515649Y-13568863D01*
X-41489829Y-13364474D01*
X-41489779Y-13360938D01*
X-41489456Y-13337776D01*
X-41489417Y-13335000D01*
X-41489687Y-13332244D01*
X-41509048Y-13134780D01*
X-41509049Y-13134776D01*
X-41509520Y-13129970D01*
X-41521615Y-13089908D01*
X-41554921Y-12979595D01*
X-41569065Y-12932749D01*
X-41665782Y-12750849D01*
X-41795989Y-12591200D01*
X-41833110Y-12560491D01*
X-41950998Y-12462965D01*
X-41951000Y-12462964D01*
X-41954725Y-12459882D01*
X-42088510Y-12387545D01*
X-42131691Y-12364197D01*
X-42131692Y-12364197D01*
X-42135945Y-12361897D01*
X-42256532Y-12324569D01*
X-42328125Y-12302407D01*
X-42328129Y-12302406D01*
X-42332746Y-12300977D01*
X-42337554Y-12300472D01*
X-42337557Y-12300471D01*
X-42532815Y-12279949D01*
X-42532817Y-12279949D01*
X-42537631Y-12279443D01*
X-42597646Y-12284905D01*
X-42737978Y-12297675D01*
X-42737983Y-12297676D01*
X-42742797Y-12298114D01*
X-42940428Y-12356280D01*
X-42944712Y-12358519D01*
X-42944713Y-12358520D01*
X-42955572Y-12364197D01*
X-43122998Y-12451726D01*
X-43140129Y-12465500D01*
X-43279780Y-12577781D01*
X-43279783Y-12577783D01*
X-43283553Y-12580815D01*
X-43286667Y-12584526D01*
X-43286668Y-12584527D01*
X-43382597Y-12698851D01*
X-43415976Y-12738630D01*
X-43418311Y-12742878D01*
X-43418312Y-12742879D01*
X-43425045Y-12755126D01*
X-43515224Y-12919162D01*
X-43516687Y-12923775D01*
X-43516689Y-12923779D01*
X-43564746Y-13075275D01*
X-43577516Y-13115532D01*
X-43578056Y-13120344D01*
X-43578056Y-13120345D01*
X-43587969Y-13208726D01*
X-43600480Y-13320262D01*
X-45519500Y-13320262D01*
X-45519500Y-10780262D01*
X-43600480Y-10780262D01*
X-43600075Y-10785082D01*
X-43587880Y-10930304D01*
X-43583241Y-10985553D01*
X-43581908Y-10990201D01*
X-43581908Y-10990202D01*
X-43538164Y-11142754D01*
X-43526456Y-11183586D01*
X-43432288Y-11366818D01*
X-43304323Y-11528270D01*
X-43300643Y-11531402D01*
X-43300641Y-11531404D01*
X-43192249Y-11623652D01*
X-43147436Y-11661791D01*
X-43143213Y-11664151D01*
X-43143209Y-11664154D01*
X-43038878Y-11722462D01*
X-42967602Y-11762297D01*
X-42963004Y-11763791D01*
X-42776276Y-11824463D01*
X-42776274Y-11824464D01*
X-42771671Y-11825959D01*
X-42567106Y-11850351D01*
X-42562284Y-11849980D01*
X-42562281Y-11849980D01*
X-42494459Y-11844761D01*
X-42361700Y-11834546D01*
X-42190832Y-11786839D01*
X-42129700Y-11789401D01*
X-42094205Y-11812188D01*
X-41345909Y-12560484D01*
X-41345905Y-12560487D01*
X-41323342Y-12583050D01*
X-41316405Y-12586584D01*
X-41316403Y-12586586D01*
X-41301849Y-12594001D01*
X-41288610Y-12602113D01*
X-41269089Y-12616296D01*
X-41261684Y-12618702D01*
X-41261680Y-12618704D01*
X-41246145Y-12623751D01*
X-41231799Y-12629694D01*
X-41210304Y-12640646D01*
X-41202611Y-12641864D01*
X-41202609Y-12641865D01*
X-41186481Y-12644419D01*
X-41171380Y-12648044D01*
X-41148433Y-12655500D01*
X-40291981Y-12655500D01*
X-40233790Y-12674407D01*
X-40216272Y-12691925D01*
X-40215550Y-12693342D01*
X-40125842Y-12783050D01*
X-40118905Y-12786585D01*
X-40118903Y-12786586D01*
X-40049436Y-12821981D01*
X-40012804Y-12840646D01*
X-40005110Y-12841865D01*
X-40005109Y-12841865D01*
X-39922865Y-12854891D01*
X-39922863Y-12854891D01*
X-39919019Y-12855500D01*
X-39612540Y-12855500D01*
X-39305982Y-12855499D01*
X-39302139Y-12854890D01*
X-39302134Y-12854890D01*
X-39265283Y-12849053D01*
X-39212196Y-12840646D01*
X-39138598Y-12803146D01*
X-39106097Y-12786586D01*
X-39106095Y-12786585D01*
X-39099158Y-12783050D01*
X-39009450Y-12693342D01*
X-39009273Y-12693519D01*
X-38963612Y-12660345D01*
X-38933019Y-12655500D01*
X-37589400Y-12655500D01*
X-37531209Y-12674407D01*
X-37519396Y-12684496D01*
X-37458342Y-12745550D01*
X-37458519Y-12745727D01*
X-37425345Y-12791388D01*
X-37420500Y-12821981D01*
X-37420500Y-14560519D01*
X-37439407Y-14618710D01*
X-37456925Y-14636228D01*
X-37458342Y-14636950D01*
X-37548050Y-14726658D01*
X-37551585Y-14733595D01*
X-37551586Y-14733597D01*
X-37602088Y-14832713D01*
X-37605646Y-14839696D01*
X-37606865Y-14847390D01*
X-37606865Y-14847391D01*
X-37616852Y-14910446D01*
X-37620500Y-14933481D01*
X-37620499Y-15546518D01*
X-37605646Y-15640304D01*
X-37594016Y-15663129D01*
X-37565936Y-15718238D01*
X-37548050Y-15753342D01*
X-37458342Y-15843050D01*
X-37451405Y-15846585D01*
X-37451403Y-15846586D01*
X-37395637Y-15875000D01*
X-37345304Y-15900646D01*
X-37337610Y-15901865D01*
X-37337609Y-15901865D01*
X-37314013Y-15905602D01*
X-37259496Y-15933379D01*
X-37231719Y-15987896D01*
X-37230500Y-16003383D01*
X-37230500Y-17513019D01*
X-37249407Y-17571210D01*
X-37266925Y-17588728D01*
X-37268342Y-17589450D01*
X-37358050Y-17679158D01*
X-37361585Y-17686095D01*
X-37361586Y-17686097D01*
X-37377032Y-17716412D01*
X-37415646Y-17792196D01*
X-37430500Y-17885981D01*
X-37430499Y-18499018D01*
X-37415646Y-18592804D01*
X-37358050Y-18705842D01*
X-37268342Y-18795550D01*
X-37261405Y-18799085D01*
X-37261403Y-18799086D01*
X-37185923Y-18837545D01*
X-37155304Y-18853146D01*
X-37147610Y-18854365D01*
X-37147609Y-18854365D01*
X-37065365Y-18867391D01*
X-37065363Y-18867391D01*
X-37061519Y-18868000D01*
X-36830030Y-18868000D01*
X-36598482Y-18867999D01*
X-36594639Y-18867390D01*
X-36594634Y-18867390D01*
X-36557783Y-18861553D01*
X-36504696Y-18853146D01*
X-36448177Y-18824348D01*
X-36398597Y-18799086D01*
X-36398595Y-18799085D01*
X-36391658Y-18795550D01*
X-36301950Y-18705842D01*
X-36267196Y-18637635D01*
X-36247890Y-18599744D01*
X-36247890Y-18599743D01*
X-36244354Y-18592804D01*
X-36239305Y-18560929D01*
X-36230109Y-18502865D01*
X-36230109Y-18502863D01*
X-36229500Y-18499019D01*
X-36229501Y-17885982D01*
X-36229501Y-17885981D01*
X-35780500Y-17885981D01*
X-35780499Y-18499018D01*
X-35765646Y-18592804D01*
X-35708050Y-18705842D01*
X-35618342Y-18795550D01*
X-35611404Y-18799085D01*
X-35611400Y-18799088D01*
X-35559554Y-18825505D01*
X-35516290Y-18868770D01*
X-35505500Y-18913714D01*
X-35505500Y-20046466D01*
X-35505877Y-20055095D01*
X-35509264Y-20093807D01*
X-35507022Y-20102174D01*
X-35499204Y-20131349D01*
X-35497334Y-20139783D01*
X-35490588Y-20178045D01*
X-35486258Y-20185544D01*
X-35484262Y-20191029D01*
X-35481796Y-20196316D01*
X-35479554Y-20204684D01*
X-35458987Y-20234056D01*
X-35457268Y-20236511D01*
X-35452629Y-20243792D01*
X-35433194Y-20277455D01*
X-35403429Y-20302431D01*
X-35397061Y-20308265D01*
X-33374496Y-22330831D01*
X-33346719Y-22385348D01*
X-33345500Y-22400835D01*
X-33345500Y-23146638D01*
X-33364407Y-23204829D01*
X-33418876Y-23242265D01*
X-33449330Y-23250425D01*
X-33647638Y-23342898D01*
X-33826877Y-23468402D01*
X-33981598Y-23623123D01*
X-34107102Y-23802362D01*
X-34199575Y-24000670D01*
X-34221485Y-24082438D01*
X-34255036Y-24207654D01*
X-34256207Y-24212023D01*
X-34275277Y-24430000D01*
X-34256207Y-24647977D01*
X-34255088Y-24652152D01*
X-34255088Y-24652154D01*
X-34234269Y-24729849D01*
X-34199575Y-24859330D01*
X-34107102Y-25057638D01*
X-33981598Y-25236877D01*
X-33826877Y-25391598D01*
X-33711996Y-25472039D01*
X-33683475Y-25492009D01*
X-33647639Y-25517102D01*
X-33449330Y-25609575D01*
X-33362780Y-25632766D01*
X-33242154Y-25665088D01*
X-33242152Y-25665088D01*
X-33237977Y-25666207D01*
X-33020000Y-25685277D01*
X-32802023Y-25666207D01*
X-32797848Y-25665088D01*
X-32797846Y-25665088D01*
X-32677220Y-25632766D01*
X-32590670Y-25609575D01*
X-32392361Y-25517102D01*
X-32356524Y-25492009D01*
X-32328004Y-25472039D01*
X-32213123Y-25391598D01*
X-32058402Y-25236877D01*
X-31932898Y-25057638D01*
X-31840425Y-24859330D01*
X-31805731Y-24729849D01*
X-31784912Y-24652154D01*
X-31784912Y-24652152D01*
X-31783793Y-24647977D01*
X-31764723Y-24430000D01*
X-31783793Y-24212023D01*
X-31784963Y-24207654D01*
X-31818515Y-24082438D01*
X-31840425Y-24000670D01*
X-31932898Y-23802362D01*
X-32058402Y-23623123D01*
X-32213123Y-23468402D01*
X-32392361Y-23342898D01*
X-32590670Y-23250425D01*
X-32621124Y-23242265D01*
X-32672438Y-23208940D01*
X-32694500Y-23146638D01*
X-32694500Y-22243526D01*
X-32694123Y-22234898D01*
X-32691492Y-22204820D01*
X-32690737Y-22196193D01*
X-32692978Y-22187830D01*
X-32692978Y-22187827D01*
X-32700794Y-22158656D01*
X-32702663Y-22150228D01*
X-32707908Y-22120485D01*
X-32709412Y-22111955D01*
X-32713743Y-22104454D01*
X-32715742Y-22098960D01*
X-32718205Y-22093678D01*
X-32720446Y-22085316D01*
X-32742741Y-22053475D01*
X-32747364Y-22046219D01*
X-32766806Y-22012545D01*
X-32796566Y-21987574D01*
X-32802935Y-21981739D01*
X-34825504Y-19959170D01*
X-34853281Y-19904653D01*
X-34854500Y-19889166D01*
X-34854500Y-18913714D01*
X-34835593Y-18855523D01*
X-34800446Y-18825505D01*
X-34748600Y-18799088D01*
X-34748596Y-18799085D01*
X-34741658Y-18795550D01*
X-34651950Y-18705842D01*
X-34617196Y-18637635D01*
X-34597890Y-18599744D01*
X-34597890Y-18599743D01*
X-34594354Y-18592804D01*
X-34589305Y-18560929D01*
X-34580109Y-18502865D01*
X-34580109Y-18502863D01*
X-34579500Y-18499019D01*
X-34579501Y-17885982D01*
X-34594354Y-17792196D01*
X-34637283Y-17707944D01*
X-34648414Y-17686097D01*
X-34648415Y-17686095D01*
X-34651950Y-17679158D01*
X-34741658Y-17589450D01*
X-34748595Y-17585915D01*
X-34748597Y-17585914D01*
X-34847756Y-17535390D01*
X-34847757Y-17535390D01*
X-34854696Y-17531854D01*
X-34862390Y-17530635D01*
X-34862391Y-17530635D01*
X-34944635Y-17517609D01*
X-34944637Y-17517609D01*
X-34948481Y-17517000D01*
X-35179970Y-17517000D01*
X-35411518Y-17517001D01*
X-35415361Y-17517610D01*
X-35415366Y-17517610D01*
X-35452217Y-17523447D01*
X-35505304Y-17531854D01*
X-35545777Y-17552476D01*
X-35611403Y-17585914D01*
X-35611405Y-17585915D01*
X-35618342Y-17589450D01*
X-35708050Y-17679158D01*
X-35711585Y-17686095D01*
X-35711586Y-17686097D01*
X-35727032Y-17716412D01*
X-35765646Y-17792196D01*
X-35780500Y-17885981D01*
X-36229501Y-17885981D01*
X-36244354Y-17792196D01*
X-36287283Y-17707944D01*
X-36298414Y-17686097D01*
X-36298415Y-17686095D01*
X-36301950Y-17679158D01*
X-36391658Y-17589450D01*
X-36391481Y-17589273D01*
X-36424655Y-17543612D01*
X-36429500Y-17513019D01*
X-36429500Y-15617447D01*
X-36428281Y-15601960D01*
X-36420109Y-15550365D01*
X-36420109Y-15550363D01*
X-36419500Y-15546519D01*
X-36419500Y-15240000D01*
X-36419501Y-14937373D01*
X-36419501Y-14933482D01*
X-36419501Y-14933481D01*
X-35970500Y-14933481D01*
X-35970499Y-15546518D01*
X-35955646Y-15640304D01*
X-35944016Y-15663129D01*
X-35915936Y-15718238D01*
X-35898050Y-15753342D01*
X-35808342Y-15843050D01*
X-35801405Y-15846585D01*
X-35801403Y-15846586D01*
X-35745637Y-15875000D01*
X-35695304Y-15900646D01*
X-35687610Y-15901865D01*
X-35687609Y-15901865D01*
X-35605365Y-15914891D01*
X-35605363Y-15914891D01*
X-35601519Y-15915500D01*
X-35370030Y-15915500D01*
X-35138482Y-15915499D01*
X-35134639Y-15914890D01*
X-35134634Y-15914890D01*
X-35097783Y-15909053D01*
X-35044696Y-15900646D01*
X-34988177Y-15871848D01*
X-34938597Y-15846586D01*
X-34938595Y-15846585D01*
X-34931658Y-15843050D01*
X-34926152Y-15837544D01*
X-34919844Y-15832961D01*
X-34918905Y-15834253D01*
X-34872454Y-15810586D01*
X-34812022Y-15820157D01*
X-34786963Y-15838363D01*
X-32743193Y-17882134D01*
X-30834496Y-19790831D01*
X-30806719Y-19845348D01*
X-30805500Y-19860835D01*
X-30805500Y-22118738D01*
X-30805877Y-22127367D01*
X-30809264Y-22166079D01*
X-30807022Y-22174446D01*
X-30799204Y-22203621D01*
X-30797334Y-22212055D01*
X-30790588Y-22250317D01*
X-30786258Y-22257816D01*
X-30784262Y-22263301D01*
X-30781796Y-22268588D01*
X-30779554Y-22276956D01*
X-30758987Y-22306328D01*
X-30757268Y-22308783D01*
X-30752629Y-22316064D01*
X-30733194Y-22349727D01*
X-30721157Y-22359827D01*
X-30703429Y-22374703D01*
X-30697061Y-22380537D01*
X-28430541Y-24647057D01*
X-28424707Y-24653424D01*
X-28399727Y-24683194D01*
X-28366067Y-24702627D01*
X-28358783Y-24707268D01*
X-28326956Y-24729554D01*
X-28318588Y-24731796D01*
X-28313301Y-24734262D01*
X-28307816Y-24736258D01*
X-28300317Y-24740588D01*
X-28291791Y-24742091D01*
X-28291789Y-24742092D01*
X-28262056Y-24747334D01*
X-28253622Y-24749204D01*
X-28216079Y-24759264D01*
X-28207450Y-24758509D01*
X-28177367Y-24755877D01*
X-28168738Y-24755500D01*
X-26803362Y-24755500D01*
X-26745171Y-24774407D01*
X-26707735Y-24828876D01*
X-26699575Y-24859330D01*
X-26607102Y-25057638D01*
X-26481598Y-25236877D01*
X-26326877Y-25391598D01*
X-26211996Y-25472039D01*
X-26183475Y-25492009D01*
X-26147639Y-25517102D01*
X-25949330Y-25609575D01*
X-25862780Y-25632766D01*
X-25742154Y-25665088D01*
X-25742152Y-25665088D01*
X-25737977Y-25666207D01*
X-25520000Y-25685277D01*
X-25302023Y-25666207D01*
X-25297848Y-25665088D01*
X-25297846Y-25665088D01*
X-25177220Y-25632766D01*
X-25090670Y-25609575D01*
X-24892361Y-25517102D01*
X-24856524Y-25492009D01*
X-24828004Y-25472039D01*
X-24713123Y-25391598D01*
X-24558402Y-25236877D01*
X-24432898Y-25057638D01*
X-24340425Y-24859330D01*
X-24305731Y-24729849D01*
X-24284912Y-24652154D01*
X-24284912Y-24652152D01*
X-24283793Y-24647977D01*
X-24264723Y-24430000D01*
X-24283793Y-24212023D01*
X-24284963Y-24207654D01*
X-24318515Y-24082438D01*
X-24340425Y-24000670D01*
X-24432898Y-23802362D01*
X-24558402Y-23623123D01*
X-24713123Y-23468402D01*
X-24892361Y-23342898D01*
X-25090670Y-23250425D01*
X-25194499Y-23222604D01*
X-25297846Y-23194912D01*
X-25297848Y-23194912D01*
X-25302023Y-23193793D01*
X-25520000Y-23174723D01*
X-25737977Y-23193793D01*
X-25742152Y-23194912D01*
X-25742154Y-23194912D01*
X-25845501Y-23222604D01*
X-25949330Y-23250425D01*
X-26147638Y-23342898D01*
X-26326877Y-23468402D01*
X-26481598Y-23623123D01*
X-26607102Y-23802362D01*
X-26699575Y-24000670D01*
X-26706009Y-24024684D01*
X-26707735Y-24031124D01*
X-26741060Y-24082438D01*
X-26803362Y-24104500D01*
X-28011438Y-24104500D01*
X-28069629Y-24085593D01*
X-28081442Y-24075504D01*
X-29180694Y-22976252D01*
X-28701213Y-22976252D01*
X-28701115Y-22976874D01*
X-28696288Y-22982427D01*
X-28650933Y-23014185D01*
X-28643463Y-23018497D01*
X-28453078Y-23107275D01*
X-28444985Y-23110221D01*
X-28242056Y-23164595D01*
X-28233588Y-23166088D01*
X-28024309Y-23184398D01*
X-28015691Y-23184398D01*
X-27806412Y-23166088D01*
X-27797944Y-23164595D01*
X-27595015Y-23110221D01*
X-27586922Y-23107275D01*
X-27396537Y-23018497D01*
X-27389067Y-23014185D01*
X-27346599Y-22984448D01*
X-27338573Y-22973797D01*
X-27338561Y-22973165D01*
X-27342349Y-22966861D01*
X-28008914Y-22300296D01*
X-28020797Y-22294242D01*
X-28025828Y-22295038D01*
X-28695159Y-22964369D01*
X-28701213Y-22976252D01*
X-29180694Y-22976252D01*
X-30125504Y-22031442D01*
X-30153281Y-21976925D01*
X-30154500Y-21961438D01*
X-30154500Y-21934309D01*
X-29274398Y-21934309D01*
X-29256088Y-22143588D01*
X-29254595Y-22152056D01*
X-29200221Y-22354985D01*
X-29197275Y-22363078D01*
X-29108496Y-22553465D01*
X-29104187Y-22560929D01*
X-29074448Y-22603402D01*
X-29063798Y-22611427D01*
X-29063166Y-22611438D01*
X-29056860Y-22607650D01*
X-28390296Y-21941086D01*
X-28385054Y-21930797D01*
X-27655758Y-21930797D01*
X-27654962Y-21935828D01*
X-26985631Y-22605159D01*
X-26973748Y-22611213D01*
X-26973126Y-22611115D01*
X-26967573Y-22606288D01*
X-26935813Y-22560929D01*
X-26931504Y-22553465D01*
X-26842725Y-22363078D01*
X-26839779Y-22354985D01*
X-26785405Y-22152056D01*
X-26783912Y-22143588D01*
X-26765602Y-21934309D01*
X-26765602Y-21925691D01*
X-26783912Y-21716412D01*
X-26785405Y-21707944D01*
X-26839779Y-21505015D01*
X-26842725Y-21496922D01*
X-26931504Y-21306535D01*
X-26935813Y-21299071D01*
X-26965552Y-21256598D01*
X-26976202Y-21248573D01*
X-26976834Y-21248562D01*
X-26983140Y-21252350D01*
X-27649704Y-21918914D01*
X-27655758Y-21930797D01*
X-28385054Y-21930797D01*
X-28384242Y-21929203D01*
X-28385038Y-21924172D01*
X-29054369Y-21254841D01*
X-29066252Y-21248787D01*
X-29066874Y-21248885D01*
X-29072427Y-21253712D01*
X-29104187Y-21299071D01*
X-29108496Y-21306535D01*
X-29197275Y-21496922D01*
X-29200221Y-21505015D01*
X-29254595Y-21707944D01*
X-29256088Y-21716412D01*
X-29274398Y-21925691D01*
X-29274398Y-21934309D01*
X-30154500Y-21934309D01*
X-30154500Y-20886834D01*
X-28701438Y-20886834D01*
X-28697650Y-20893140D01*
X-28031086Y-21559704D01*
X-28019203Y-21565758D01*
X-28014172Y-21564962D01*
X-27344841Y-20895631D01*
X-27338787Y-20883748D01*
X-27338885Y-20883126D01*
X-27343712Y-20877573D01*
X-27389067Y-20845815D01*
X-27396537Y-20841503D01*
X-27586922Y-20752725D01*
X-27595015Y-20749779D01*
X-27797944Y-20695405D01*
X-27806412Y-20693912D01*
X-28015691Y-20675602D01*
X-28024309Y-20675602D01*
X-28233588Y-20693912D01*
X-28242056Y-20695405D01*
X-28444985Y-20749779D01*
X-28453078Y-20752725D01*
X-28643465Y-20841504D01*
X-28650929Y-20845813D01*
X-28693402Y-20875552D01*
X-28701427Y-20886202D01*
X-28701438Y-20886834D01*
X-30154500Y-20886834D01*
X-30154500Y-19703526D01*
X-30154123Y-19694898D01*
X-30151492Y-19664820D01*
X-30150737Y-19656193D01*
X-30152978Y-19647830D01*
X-30152978Y-19647827D01*
X-30160794Y-19618656D01*
X-30162663Y-19610228D01*
X-30167908Y-19580485D01*
X-30169412Y-19571955D01*
X-30173743Y-19564454D01*
X-30175742Y-19558960D01*
X-30178205Y-19553678D01*
X-30180446Y-19545316D01*
X-30202741Y-19513475D01*
X-30207364Y-19506219D01*
X-30226806Y-19472545D01*
X-30256564Y-19447575D01*
X-30262932Y-19441741D01*
X-30728421Y-18976252D01*
X-28023713Y-18976252D01*
X-28023615Y-18976874D01*
X-28018788Y-18982427D01*
X-27973433Y-19014185D01*
X-27965963Y-19018497D01*
X-27775578Y-19107275D01*
X-27767485Y-19110221D01*
X-27564556Y-19164595D01*
X-27556088Y-19166088D01*
X-27346809Y-19184398D01*
X-27338191Y-19184398D01*
X-27128912Y-19166088D01*
X-27120444Y-19164595D01*
X-26917515Y-19110221D01*
X-26909422Y-19107275D01*
X-26719037Y-19018497D01*
X-26711567Y-19014185D01*
X-26669099Y-18984448D01*
X-26661073Y-18973797D01*
X-26661061Y-18973165D01*
X-26664849Y-18966861D01*
X-27331414Y-18300296D01*
X-27343297Y-18294242D01*
X-27348328Y-18295038D01*
X-28017659Y-18964369D01*
X-28023713Y-18976252D01*
X-30728421Y-18976252D01*
X-31770364Y-17934309D01*
X-28596898Y-17934309D01*
X-28578588Y-18143588D01*
X-28577095Y-18152056D01*
X-28522721Y-18354985D01*
X-28519775Y-18363078D01*
X-28430996Y-18553465D01*
X-28426687Y-18560929D01*
X-28396948Y-18603402D01*
X-28386298Y-18611427D01*
X-28385666Y-18611438D01*
X-28379360Y-18607650D01*
X-27712796Y-17941086D01*
X-27707554Y-17930797D01*
X-26978258Y-17930797D01*
X-26977462Y-17935828D01*
X-26308131Y-18605159D01*
X-26296248Y-18611213D01*
X-26295626Y-18611115D01*
X-26290073Y-18606288D01*
X-26258313Y-18560929D01*
X-26254004Y-18553465D01*
X-26165225Y-18363078D01*
X-26162279Y-18354985D01*
X-26107905Y-18152056D01*
X-26106412Y-18143588D01*
X-26088102Y-17934309D01*
X-26088102Y-17930000D01*
X-18597777Y-17930000D01*
X-18578707Y-18147977D01*
X-18522075Y-18359330D01*
X-18429602Y-18557638D01*
X-18304098Y-18736877D01*
X-18149377Y-18891598D01*
X-17970139Y-19017102D01*
X-17800161Y-19096364D01*
X-17755413Y-19138092D01*
X-17743000Y-19186088D01*
X-17743000Y-24980933D01*
X-17735545Y-25003875D01*
X-17731919Y-25018981D01*
X-17728146Y-25042804D01*
X-17717195Y-25064297D01*
X-17711252Y-25078643D01*
X-17703796Y-25101590D01*
X-17696814Y-25111199D01*
X-17689617Y-25121105D01*
X-17681502Y-25134346D01*
X-17670550Y-25155842D01*
X-17647987Y-25178405D01*
X-17647984Y-25178409D01*
X-15825766Y-27000627D01*
X-15797989Y-27055144D01*
X-15801404Y-27100566D01*
X-15837944Y-27215755D01*
X-15860362Y-27415613D01*
X-15843533Y-27616018D01*
X-15788099Y-27809338D01*
X-15696172Y-27988210D01*
X-15693161Y-27992009D01*
X-15574262Y-28142022D01*
X-15574259Y-28142025D01*
X-15571252Y-28145819D01*
X-15567565Y-28148957D01*
X-15567563Y-28148959D01*
X-15451599Y-28247652D01*
X-15418099Y-28276163D01*
X-15413877Y-28278523D01*
X-15413872Y-28278526D01*
X-15300751Y-28341746D01*
X-15242544Y-28374277D01*
X-15180695Y-28394373D01*
X-15055882Y-28434928D01*
X-15055879Y-28434929D01*
X-15051277Y-28436424D01*
X-14851580Y-28460236D01*
X-14846758Y-28459865D01*
X-14846755Y-28459865D01*
X-14780426Y-28454761D01*
X-14651062Y-28444807D01*
X-14457360Y-28390724D01*
X-14453047Y-28388545D01*
X-14453041Y-28388543D01*
X-14282172Y-28302231D01*
X-14282170Y-28302229D01*
X-14277851Y-28300048D01*
X-14253138Y-28280740D01*
X-14123188Y-28179213D01*
X-14123186Y-28179211D01*
X-14119373Y-28176232D01*
X-14116217Y-28172576D01*
X-14116212Y-28172571D01*
X-14040546Y-28084910D01*
X-13987963Y-28023992D01*
X-13888626Y-27849127D01*
X-13875502Y-27809674D01*
X-13839194Y-27760426D01*
X-13780872Y-27741925D01*
X-13722815Y-27761238D01*
X-13689517Y-27804474D01*
X-13689433Y-27804687D01*
X-13688099Y-27809338D01*
X-13596172Y-27988210D01*
X-13593161Y-27992009D01*
X-13474262Y-28142022D01*
X-13474259Y-28142025D01*
X-13471252Y-28145819D01*
X-13467565Y-28148957D01*
X-13467563Y-28148959D01*
X-13351599Y-28247652D01*
X-13318099Y-28276163D01*
X-13313877Y-28278523D01*
X-13313872Y-28278526D01*
X-13200751Y-28341746D01*
X-13142544Y-28374277D01*
X-13080695Y-28394373D01*
X-12955882Y-28434928D01*
X-12955879Y-28434929D01*
X-12951277Y-28436424D01*
X-12751580Y-28460236D01*
X-12746758Y-28459865D01*
X-12746755Y-28459865D01*
X-12680426Y-28454761D01*
X-12551062Y-28444807D01*
X-12357360Y-28390724D01*
X-12353047Y-28388545D01*
X-12353041Y-28388543D01*
X-12182172Y-28302231D01*
X-12182170Y-28302229D01*
X-12177851Y-28300048D01*
X-12153138Y-28280740D01*
X-12023188Y-28179213D01*
X-12023186Y-28179211D01*
X-12019373Y-28176232D01*
X-12016217Y-28172576D01*
X-12016212Y-28172571D01*
X-11940546Y-28084910D01*
X-11887963Y-28023992D01*
X-11788626Y-27849127D01*
X-11725146Y-27658297D01*
X-11724524Y-27653379D01*
X-11700288Y-27461524D01*
X-11699940Y-27458772D01*
X-11699538Y-27430000D01*
X-11700949Y-27415613D01*
X-11160362Y-27415613D01*
X-11143533Y-27616018D01*
X-11088099Y-27809338D01*
X-10996172Y-27988210D01*
X-10993161Y-27992009D01*
X-10874262Y-28142022D01*
X-10874259Y-28142025D01*
X-10871252Y-28145819D01*
X-10867565Y-28148957D01*
X-10867563Y-28148959D01*
X-10751599Y-28247652D01*
X-10718099Y-28276163D01*
X-10713877Y-28278523D01*
X-10713872Y-28278526D01*
X-10600751Y-28341746D01*
X-10542544Y-28374277D01*
X-10480695Y-28394373D01*
X-10355882Y-28434928D01*
X-10355879Y-28434929D01*
X-10351277Y-28436424D01*
X-10151580Y-28460236D01*
X-10146758Y-28459865D01*
X-10146755Y-28459865D01*
X-10080426Y-28454761D01*
X-9951062Y-28444807D01*
X-9757360Y-28390724D01*
X-9753047Y-28388545D01*
X-9753041Y-28388543D01*
X-9600959Y-28311721D01*
X-8547239Y-28311721D01*
X-8540010Y-28319233D01*
X-8446567Y-28371456D01*
X-8437745Y-28375311D01*
X-8255774Y-28434437D01*
X-8246361Y-28436506D01*
X-8056372Y-28459161D01*
X-8046745Y-28459363D01*
X-7855977Y-28444684D01*
X-7846486Y-28443011D01*
X-7662202Y-28391557D01*
X-7653223Y-28388075D01*
X-7519668Y-28320611D01*
X-7511627Y-28312626D01*
X-7516819Y-28302391D01*
X-8018914Y-27800296D01*
X-8030797Y-27794242D01*
X-8035828Y-27795038D01*
X-8541762Y-28300972D01*
X-8547239Y-28311721D01*
X-9600959Y-28311721D01*
X-9582172Y-28302231D01*
X-9582170Y-28302229D01*
X-9577851Y-28300048D01*
X-9553138Y-28280740D01*
X-9423188Y-28179213D01*
X-9423186Y-28179211D01*
X-9419373Y-28176232D01*
X-9416217Y-28172576D01*
X-9416212Y-28172571D01*
X-9340546Y-28084910D01*
X-9287963Y-28023992D01*
X-9188626Y-27849127D01*
X-9187099Y-27844538D01*
X-9187098Y-27844536D01*
X-9175256Y-27808935D01*
X-9138948Y-27759687D01*
X-9080627Y-27741185D01*
X-9022569Y-27760498D01*
X-8989270Y-27803737D01*
X-8985421Y-27813459D01*
X-8920365Y-27940043D01*
X-8912238Y-27948114D01*
X-8902174Y-27942964D01*
X-8400296Y-27441086D01*
X-8395054Y-27430797D01*
X-7665758Y-27430797D01*
X-7664962Y-27435828D01*
X-7159143Y-27941647D01*
X-7148288Y-27947178D01*
X-7140880Y-27940099D01*
X-7091478Y-27853135D01*
X-7087557Y-27844328D01*
X-7027163Y-27662780D01*
X-7025028Y-27653379D01*
X-7000790Y-27461512D01*
X-7000403Y-27455983D01*
X-7000079Y-27432759D01*
X-7000309Y-27427261D01*
X-7019182Y-27234765D01*
X-7021057Y-27225302D01*
X-7076356Y-27042147D01*
X-7080026Y-27033242D01*
X-7140011Y-26920426D01*
X-7148428Y-26912298D01*
X-7158146Y-26917356D01*
X-7659704Y-27418914D01*
X-7665758Y-27430797D01*
X-8395054Y-27430797D01*
X-8394242Y-27429203D01*
X-8395038Y-27424172D01*
X-8901125Y-26918085D01*
X-8911767Y-26912663D01*
X-8919381Y-26920042D01*
X-8974340Y-27020012D01*
X-8978139Y-27028875D01*
X-8984778Y-27049806D01*
X-9020395Y-27099556D01*
X-9078452Y-27118870D01*
X-9136773Y-27100369D01*
X-9173918Y-27048487D01*
X-9175889Y-27041960D01*
X-9175892Y-27041953D01*
X-9177290Y-27037321D01*
X-9239444Y-26920426D01*
X-9269433Y-26864025D01*
X-9269435Y-26864021D01*
X-9271706Y-26859751D01*
X-9398814Y-26703901D01*
X-9553773Y-26575708D01*
X-9604805Y-26548115D01*
X-8547890Y-26548115D01*
X-8542786Y-26558004D01*
X-8041086Y-27059704D01*
X-8029203Y-27065758D01*
X-8024172Y-27064962D01*
X-7517895Y-26558685D01*
X-7512528Y-26548151D01*
X-7520057Y-26540436D01*
X-7626610Y-26482823D01*
X-7635500Y-26479086D01*
X-7818276Y-26422508D01*
X-7827710Y-26420571D01*
X-8017994Y-26400571D01*
X-8027632Y-26400504D01*
X-8218175Y-26417844D01*
X-8227639Y-26419650D01*
X-8411183Y-26473670D01*
X-8420124Y-26477283D01*
X-8539786Y-26539841D01*
X-8547890Y-26548115D01*
X-9604805Y-26548115D01*
X-9663158Y-26516564D01*
X-9726426Y-26482355D01*
X-9726427Y-26482355D01*
X-9730680Y-26480055D01*
X-9805311Y-26456953D01*
X-9918176Y-26422015D01*
X-9918180Y-26422014D01*
X-9922797Y-26420585D01*
X-9927605Y-26420080D01*
X-9927608Y-26420079D01*
X-10117990Y-26400069D01*
X-10117992Y-26400069D01*
X-10122806Y-26399563D01*
X-10189453Y-26405628D01*
X-10318269Y-26417351D01*
X-10318273Y-26417352D01*
X-10323089Y-26417790D01*
X-10327731Y-26419156D01*
X-10327735Y-26419157D01*
X-10511371Y-26473204D01*
X-10511374Y-26473205D01*
X-10516018Y-26474572D01*
X-10554497Y-26494688D01*
X-10689946Y-26565499D01*
X-10689950Y-26565502D01*
X-10694243Y-26567746D01*
X-10698019Y-26570782D01*
X-10698022Y-26570784D01*
X-10847204Y-26690730D01*
X-10850976Y-26693763D01*
X-10854085Y-26697468D01*
X-10854088Y-26697471D01*
X-10977131Y-26844108D01*
X-10980248Y-26847823D01*
X-10982584Y-26852071D01*
X-10982584Y-26852072D01*
X-10989155Y-26864025D01*
X-11077134Y-27024058D01*
X-11078597Y-27028671D01*
X-11078599Y-27028675D01*
X-11101341Y-27100369D01*
X-11137944Y-27215755D01*
X-11160362Y-27415613D01*
X-11700949Y-27415613D01*
X-11719163Y-27229849D01*
X-11777290Y-27037321D01*
X-11839444Y-26920426D01*
X-11869433Y-26864025D01*
X-11869435Y-26864021D01*
X-11871706Y-26859751D01*
X-11998814Y-26703901D01*
X-12153773Y-26575708D01*
X-12263158Y-26516564D01*
X-12326426Y-26482355D01*
X-12326427Y-26482355D01*
X-12330680Y-26480055D01*
X-12405311Y-26456953D01*
X-12518176Y-26422015D01*
X-12518180Y-26422014D01*
X-12522797Y-26420585D01*
X-12527605Y-26420080D01*
X-12527608Y-26420079D01*
X-12717990Y-26400069D01*
X-12717992Y-26400069D01*
X-12722806Y-26399563D01*
X-12789453Y-26405628D01*
X-12918269Y-26417351D01*
X-12918273Y-26417352D01*
X-12923089Y-26417790D01*
X-12927731Y-26419156D01*
X-12927735Y-26419157D01*
X-13111371Y-26473204D01*
X-13111374Y-26473205D01*
X-13116018Y-26474572D01*
X-13154497Y-26494688D01*
X-13289946Y-26565499D01*
X-13289950Y-26565502D01*
X-13294243Y-26567746D01*
X-13298019Y-26570782D01*
X-13298022Y-26570784D01*
X-13447204Y-26690730D01*
X-13450976Y-26693763D01*
X-13454085Y-26697468D01*
X-13454088Y-26697471D01*
X-13577131Y-26844108D01*
X-13580248Y-26847823D01*
X-13582584Y-26852071D01*
X-13582584Y-26852072D01*
X-13589155Y-26864025D01*
X-13677134Y-27024058D01*
X-13678598Y-27028673D01*
X-13685034Y-27048962D01*
X-13720652Y-27098711D01*
X-13778710Y-27118024D01*
X-13837031Y-27099522D01*
X-13874176Y-27047636D01*
X-13875833Y-27042147D01*
X-13877290Y-27037321D01*
X-13939444Y-26920426D01*
X-13969433Y-26864025D01*
X-13969435Y-26864021D01*
X-13971706Y-26859751D01*
X-14098814Y-26703901D01*
X-14253773Y-26575708D01*
X-14363158Y-26516564D01*
X-14426426Y-26482355D01*
X-14426427Y-26482355D01*
X-14430680Y-26480055D01*
X-14505311Y-26456953D01*
X-14618176Y-26422015D01*
X-14618180Y-26422014D01*
X-14622797Y-26420585D01*
X-14627605Y-26420080D01*
X-14627608Y-26420079D01*
X-14817990Y-26400069D01*
X-14817992Y-26400069D01*
X-14822806Y-26399563D01*
X-14889453Y-26405628D01*
X-15018269Y-26417351D01*
X-15018273Y-26417352D01*
X-15023089Y-26417790D01*
X-15027731Y-26419156D01*
X-15027735Y-26419157D01*
X-15161958Y-26458661D01*
X-15223120Y-26456953D01*
X-15259914Y-26433693D01*
X-16777994Y-24915613D01*
X-15860362Y-24915613D01*
X-15859957Y-24920433D01*
X-15847293Y-25071238D01*
X-15843533Y-25116018D01*
X-15788099Y-25309338D01*
X-15696172Y-25488210D01*
X-15693161Y-25492009D01*
X-15574262Y-25642022D01*
X-15574259Y-25642025D01*
X-15571252Y-25645819D01*
X-15567565Y-25648957D01*
X-15567563Y-25648959D01*
X-15451599Y-25747652D01*
X-15418099Y-25776163D01*
X-15413877Y-25778523D01*
X-15413872Y-25778526D01*
X-15375362Y-25800048D01*
X-15242544Y-25874277D01*
X-15139114Y-25907884D01*
X-15055882Y-25934928D01*
X-15055879Y-25934929D01*
X-15051277Y-25936424D01*
X-14851580Y-25960236D01*
X-14846758Y-25959865D01*
X-14846755Y-25959865D01*
X-14780426Y-25954761D01*
X-14651062Y-25944807D01*
X-14457360Y-25890724D01*
X-14453047Y-25888545D01*
X-14453041Y-25888543D01*
X-14282172Y-25802231D01*
X-14282170Y-25802229D01*
X-14277851Y-25800048D01*
X-14130950Y-25685277D01*
X-14123188Y-25679213D01*
X-14123186Y-25679211D01*
X-14119373Y-25676232D01*
X-14116217Y-25672576D01*
X-14116212Y-25672571D01*
X-14040546Y-25584910D01*
X-13987963Y-25523992D01*
X-13888626Y-25349127D01*
X-13825146Y-25158297D01*
X-13823959Y-25148906D01*
X-13811934Y-25053713D01*
X-13799940Y-24958772D01*
X-13799538Y-24930000D01*
X-13809987Y-24823433D01*
X-13818691Y-24734659D01*
X-13818692Y-24734655D01*
X-13819163Y-24729849D01*
X-13825980Y-24707268D01*
X-13875892Y-24541953D01*
X-13877290Y-24537321D01*
X-13971706Y-24359751D01*
X-14095596Y-24207846D01*
X-14095753Y-24207654D01*
X-14095754Y-24207653D01*
X-14098814Y-24203901D01*
X-14227485Y-24097455D01*
X-14250046Y-24078791D01*
X-14250048Y-24078790D01*
X-14253773Y-24075708D01*
X-14430680Y-23980055D01*
X-14523430Y-23951344D01*
X-14618176Y-23922015D01*
X-14618180Y-23922014D01*
X-14622797Y-23920585D01*
X-14627605Y-23920080D01*
X-14627608Y-23920079D01*
X-14817990Y-23900069D01*
X-14817992Y-23900069D01*
X-14822806Y-23899563D01*
X-14884516Y-23905179D01*
X-15018269Y-23917351D01*
X-15018273Y-23917352D01*
X-15023089Y-23917790D01*
X-15027731Y-23919156D01*
X-15027735Y-23919157D01*
X-15211371Y-23973204D01*
X-15211374Y-23973205D01*
X-15216018Y-23974572D01*
X-15226506Y-23980055D01*
X-15389946Y-24065499D01*
X-15389950Y-24065502D01*
X-15394243Y-24067746D01*
X-15398019Y-24070782D01*
X-15398022Y-24070784D01*
X-15547204Y-24190730D01*
X-15550976Y-24193763D01*
X-15554085Y-24197468D01*
X-15554088Y-24197471D01*
X-15677131Y-24344108D01*
X-15680248Y-24347823D01*
X-15682584Y-24352071D01*
X-15682584Y-24352072D01*
X-15689155Y-24364025D01*
X-15777134Y-24524058D01*
X-15778597Y-24528671D01*
X-15778599Y-24528675D01*
X-15782811Y-24541953D01*
X-15837944Y-24715755D01*
X-15838484Y-24720569D01*
X-15854488Y-24863250D01*
X-15860362Y-24915613D01*
X-16777994Y-24915613D01*
X-16913004Y-24780603D01*
X-16940781Y-24726086D01*
X-16942000Y-24710599D01*
X-16942000Y-19186088D01*
X-16923093Y-19127897D01*
X-16884839Y-19096364D01*
X-16714861Y-19017102D01*
X-16535623Y-18891598D01*
X-16380902Y-18736877D01*
X-16255398Y-18557638D01*
X-16162925Y-18359330D01*
X-16106293Y-18147977D01*
X-16087223Y-17930000D01*
X-16106293Y-17712023D01*
X-16116574Y-17673652D01*
X-16152100Y-17541068D01*
X-16162925Y-17500670D01*
X-16255398Y-17302362D01*
X-16380902Y-17123123D01*
X-16535623Y-16968402D01*
X-16714861Y-16842898D01*
X-16884839Y-16763636D01*
X-16929587Y-16721908D01*
X-16942000Y-16673912D01*
X-16942000Y-15430000D01*
X-16097777Y-15430000D01*
X-16078707Y-15647977D01*
X-16077588Y-15652152D01*
X-16077588Y-15652154D01*
X-16048999Y-15758848D01*
X-16022075Y-15859330D01*
X-15929602Y-16057638D01*
X-15927121Y-16061181D01*
X-15927120Y-16061183D01*
X-15909133Y-16086871D01*
X-15804098Y-16236877D01*
X-15649377Y-16391598D01*
X-15565483Y-16450341D01*
X-15489470Y-16503566D01*
X-15470139Y-16517102D01*
X-15271830Y-16609575D01*
X-15185280Y-16632766D01*
X-15064654Y-16665088D01*
X-15064652Y-16665088D01*
X-15060477Y-16666207D01*
X-14842500Y-16685277D01*
X-14624523Y-16666207D01*
X-14620348Y-16665088D01*
X-14620346Y-16665088D01*
X-14499720Y-16632766D01*
X-14413170Y-16609575D01*
X-14214861Y-16517102D01*
X-14195529Y-16503566D01*
X-14119517Y-16450341D01*
X-14035623Y-16391598D01*
X-13880902Y-16236877D01*
X-13775867Y-16086871D01*
X-13757880Y-16061183D01*
X-13757879Y-16061181D01*
X-13755398Y-16057638D01*
X-13662925Y-15859330D01*
X-13636001Y-15758848D01*
X-13607412Y-15652154D01*
X-13607412Y-15652152D01*
X-13606293Y-15647977D01*
X-13587223Y-15430000D01*
X-13606293Y-15212023D01*
X-13662925Y-15000670D01*
X-13755398Y-14802362D01*
X-13880902Y-14623123D01*
X-14035623Y-14468402D01*
X-14181108Y-14366532D01*
X-14211316Y-14345380D01*
X-14211318Y-14345379D01*
X-14214861Y-14342898D01*
X-14413170Y-14250425D01*
X-14546747Y-14214633D01*
X-14620346Y-14194912D01*
X-14620348Y-14194912D01*
X-14624523Y-14193793D01*
X-14842500Y-14174723D01*
X-15060477Y-14193793D01*
X-15064652Y-14194912D01*
X-15064654Y-14194912D01*
X-15138253Y-14214633D01*
X-15271830Y-14250425D01*
X-15470138Y-14342898D01*
X-15473681Y-14345379D01*
X-15473683Y-14345380D01*
X-15489534Y-14356479D01*
X-15649377Y-14468402D01*
X-15804098Y-14623123D01*
X-15929602Y-14802362D01*
X-16022075Y-15000670D01*
X-16078707Y-15212023D01*
X-16097777Y-15430000D01*
X-16942000Y-15430000D01*
X-16942000Y-13739401D01*
X-16923093Y-13681210D01*
X-16913004Y-13669397D01*
X-15738104Y-12494496D01*
X-15683587Y-12466719D01*
X-15668100Y-12465500D01*
X-9461567Y-12465500D01*
X-9438620Y-12458044D01*
X-9423519Y-12454419D01*
X-9407391Y-12451865D01*
X-9407389Y-12451864D01*
X-9399696Y-12450646D01*
X-9378203Y-12439695D01*
X-9363857Y-12433752D01*
X-9348321Y-12428704D01*
X-9340910Y-12426296D01*
X-9321393Y-12412116D01*
X-9308154Y-12404002D01*
X-9286658Y-12393050D01*
X-9264095Y-12370487D01*
X-9264091Y-12370484D01*
X-7314516Y-10420909D01*
X-7314513Y-10420905D01*
X-7291950Y-10398342D01*
X-7282177Y-10379162D01*
X-7280999Y-10376849D01*
X-7272887Y-10363610D01*
X-7258704Y-10344089D01*
X-7256298Y-10336684D01*
X-7256296Y-10336680D01*
X-7251249Y-10321145D01*
X-7245306Y-10306799D01*
X-7234354Y-10285304D01*
X-7232366Y-10272756D01*
X-7230581Y-10261481D01*
X-7226955Y-10246375D01*
X-7219500Y-10223433D01*
X-7219500Y-9580522D01*
X-7200593Y-9522331D01*
X-7151093Y-9486367D01*
X-7139814Y-9483424D01*
X-7101334Y-9475770D01*
X-7101332Y-9475769D01*
X-7091769Y-9473867D01*
X-7025448Y-9429552D01*
X-6981133Y-9363231D01*
X-6979141Y-9353220D01*
X-6966287Y-9288594D01*
X-6936390Y-9235210D01*
X-6880825Y-9209594D01*
X-6820816Y-9221531D01*
X-6779283Y-9266460D01*
X-6770666Y-9298204D01*
X-6770500Y-9299889D01*
X-6770500Y-9304748D01*
X-6769552Y-9309512D01*
X-6769552Y-9309513D01*
X-6760858Y-9353220D01*
X-6758867Y-9363231D01*
X-6714552Y-9429552D01*
X-6648231Y-9473867D01*
X-6638668Y-9475769D01*
X-6638666Y-9475770D01*
X-6600186Y-9483424D01*
X-6546802Y-9513321D01*
X-6521186Y-9568886D01*
X-6520500Y-9580522D01*
X-6520500Y-10529127D01*
X-6539407Y-10587318D01*
X-6545825Y-10594833D01*
X-6548282Y-10596718D01*
X-6644536Y-10722159D01*
X-6705044Y-10868238D01*
X-6725682Y-11025000D01*
X-6705044Y-11181762D01*
X-6644536Y-11327841D01*
X-6640585Y-11332990D01*
X-6556152Y-11443026D01*
X-6535728Y-11500702D01*
X-6553106Y-11559367D01*
X-6564690Y-11573297D01*
X-6986897Y-11995504D01*
X-7041414Y-12023281D01*
X-7056901Y-12024500D01*
X-7383488Y-12024500D01*
X-7387332Y-12025109D01*
X-7387334Y-12025109D01*
X-7475431Y-12039062D01*
X-7475432Y-12039062D01*
X-7483126Y-12040281D01*
X-7490065Y-12043817D01*
X-7490066Y-12043817D01*
X-7596281Y-12097936D01*
X-7596283Y-12097937D01*
X-7603220Y-12101472D01*
X-7698528Y-12196780D01*
X-7759719Y-12316874D01*
X-7760938Y-12324568D01*
X-7760938Y-12324569D01*
X-7768211Y-12370491D01*
X-7775500Y-12416512D01*
X-7775500Y-12515600D01*
X-7794407Y-12573791D01*
X-7804496Y-12585604D01*
X-9349397Y-14130504D01*
X-9403914Y-14158281D01*
X-9419401Y-14159500D01*
X-9894646Y-14159500D01*
X-9911049Y-14161452D01*
X-9913469Y-14161740D01*
X-9913470Y-14161740D01*
X-9920846Y-14162618D01*
X-10023153Y-14208061D01*
X-10029610Y-14214529D01*
X-10029611Y-14214530D01*
X-10041318Y-14226258D01*
X-10102241Y-14287287D01*
X-10107833Y-14299936D01*
X-10140982Y-14374917D01*
X-10147506Y-14389673D01*
X-10150500Y-14415354D01*
X-10150500Y-14704646D01*
X-10147382Y-14730846D01*
X-10101939Y-14833153D01*
X-10101399Y-14833692D01*
X-10085432Y-14887598D01*
X-10101200Y-14936244D01*
X-10102241Y-14937287D01*
X-10105165Y-14943901D01*
X-10152760Y-14980530D01*
X-10213922Y-14982218D01*
X-10264395Y-14947634D01*
X-10268935Y-14940849D01*
X-10270464Y-14937159D01*
X-10366718Y-14811718D01*
X-10492159Y-14715464D01*
X-10638238Y-14654956D01*
X-10795000Y-14634318D01*
X-10951762Y-14654956D01*
X-11097841Y-14715464D01*
X-11223282Y-14811718D01*
X-11319536Y-14937159D01*
X-11380044Y-15083238D01*
X-11400682Y-15240000D01*
X-11380044Y-15396762D01*
X-11319536Y-15542841D01*
X-11223282Y-15668282D01*
X-11195404Y-15689673D01*
X-11159233Y-15717428D01*
X-11124577Y-15767852D01*
X-11120500Y-15795970D01*
X-11120500Y-15819114D01*
X-11121822Y-15829149D01*
X-11121267Y-15829198D01*
X-11122022Y-15837826D01*
X-11124264Y-15846193D01*
X-11123911Y-15850233D01*
X-11146806Y-15904171D01*
X-11199253Y-15935684D01*
X-11259409Y-15930684D01*
X-11273238Y-15924956D01*
X-11430000Y-15904318D01*
X-11586762Y-15924956D01*
X-11732841Y-15985464D01*
X-11858282Y-16081718D01*
X-11954536Y-16207159D01*
X-12015044Y-16353238D01*
X-12035682Y-16510000D01*
X-12015044Y-16666762D01*
X-11954536Y-16812841D01*
X-11858282Y-16938282D01*
X-11732841Y-17034536D01*
X-11586762Y-17095044D01*
X-11430000Y-17115682D01*
X-11273238Y-17095044D01*
X-11127159Y-17034536D01*
X-11001718Y-16938282D01*
X-10997770Y-16933137D01*
X-10997768Y-16933135D01*
X-10995206Y-16929796D01*
X-10944781Y-16895141D01*
X-10883617Y-16896744D01*
X-10846661Y-16920061D01*
X-10389665Y-17377057D01*
X-10383829Y-17383427D01*
X-10367741Y-17402601D01*
X-10344822Y-17459332D01*
X-10359626Y-17518699D01*
X-10388550Y-17546630D01*
X-10388318Y-17546907D01*
X-10392277Y-17550229D01*
X-10394082Y-17551972D01*
X-10402455Y-17556806D01*
X-10413667Y-17570168D01*
X-10427431Y-17586571D01*
X-10433265Y-17592939D01*
X-11647057Y-18806731D01*
X-11653424Y-18812565D01*
X-11683194Y-18837545D01*
X-11700425Y-18867391D01*
X-11702627Y-18871205D01*
X-11707268Y-18878489D01*
X-11729554Y-18910316D01*
X-11731796Y-18918684D01*
X-11734262Y-18923971D01*
X-11736258Y-18929456D01*
X-11740588Y-18936955D01*
X-11742091Y-18945481D01*
X-11742092Y-18945483D01*
X-11747334Y-18975216D01*
X-11749204Y-18983650D01*
X-11759264Y-19021193D01*
X-11758509Y-19029822D01*
X-11755877Y-19059905D01*
X-11755500Y-19068534D01*
X-11755500Y-21503666D01*
X-11774407Y-21561857D01*
X-11784496Y-21573670D01*
X-11902033Y-21691207D01*
X-11956550Y-21718984D01*
X-11984955Y-21719356D01*
X-12065000Y-21708818D01*
X-12221762Y-21729456D01*
X-12367841Y-21789964D01*
X-12493282Y-21886218D01*
X-12589536Y-22011659D01*
X-12650044Y-22157738D01*
X-12670682Y-22314500D01*
X-12650044Y-22471262D01*
X-12589536Y-22617341D01*
X-12493282Y-22742782D01*
X-12367841Y-22839036D01*
X-12250046Y-22887829D01*
X-12234960Y-22894077D01*
X-12221762Y-22899544D01*
X-12065000Y-22920182D01*
X-11908238Y-22899544D01*
X-11895039Y-22894077D01*
X-11879954Y-22887829D01*
X-11762159Y-22839036D01*
X-11636718Y-22742782D01*
X-11540464Y-22617341D01*
X-11479956Y-22471262D01*
X-11459318Y-22314500D01*
X-11469856Y-22234458D01*
X-11458706Y-22174299D01*
X-11441707Y-22151533D01*
X-11212943Y-21922769D01*
X-11206575Y-21916934D01*
X-11176806Y-21891955D01*
X-11157371Y-21858292D01*
X-11152732Y-21851011D01*
X-11151013Y-21848556D01*
X-11130446Y-21819184D01*
X-11128204Y-21810816D01*
X-11125738Y-21805529D01*
X-11123742Y-21800044D01*
X-11119412Y-21792545D01*
X-11112666Y-21754283D01*
X-11110796Y-21745849D01*
X-11102978Y-21716674D01*
X-11100736Y-21708307D01*
X-11104123Y-21669591D01*
X-11104500Y-21660963D01*
X-11104500Y-19225834D01*
X-11085593Y-19167643D01*
X-11075504Y-19155830D01*
X-10319504Y-18399830D01*
X-10264987Y-18372053D01*
X-10204555Y-18381624D01*
X-10161290Y-18424889D01*
X-10150500Y-18469834D01*
X-10150500Y-18604646D01*
X-10147382Y-18630846D01*
X-10101939Y-18733153D01*
X-10022713Y-18812241D01*
X-10014355Y-18815936D01*
X-9927136Y-18854496D01*
X-9927134Y-18854496D01*
X-9920327Y-18857506D01*
X-9912933Y-18858368D01*
X-9897622Y-18860153D01*
X-9894646Y-18860500D01*
X-8530354Y-18860500D01*
X-8512439Y-18858368D01*
X-8511531Y-18858260D01*
X-8511530Y-18858260D01*
X-8504154Y-18857382D01*
X-8401847Y-18811939D01*
X-8385486Y-18795550D01*
X-8361976Y-18771998D01*
X-8322759Y-18732713D01*
X-8277494Y-18630327D01*
X-8274500Y-18604646D01*
X-8274500Y-18315354D01*
X-8277618Y-18289154D01*
X-8323061Y-18186847D01*
X-8323601Y-18186308D01*
X-8339568Y-18132402D01*
X-8323811Y-18083767D01*
X-8322759Y-18082713D01*
X-8277494Y-17980327D01*
X-8274500Y-17954646D01*
X-8274500Y-17665354D01*
X-8277618Y-17639154D01*
X-8323061Y-17536847D01*
X-8323601Y-17536308D01*
X-8339568Y-17482402D01*
X-8323811Y-17433767D01*
X-8322759Y-17432713D01*
X-8316043Y-17417524D01*
X-8280504Y-17337136D01*
X-8280504Y-17337134D01*
X-8277494Y-17330327D01*
X-8274500Y-17304646D01*
X-8274500Y-17015354D01*
X-8277618Y-16989154D01*
X-8323061Y-16886847D01*
X-8323601Y-16886308D01*
X-8339568Y-16832402D01*
X-8323811Y-16783767D01*
X-8322759Y-16782713D01*
X-8316261Y-16768017D01*
X-8280504Y-16687136D01*
X-8280504Y-16687134D01*
X-8277494Y-16680327D01*
X-8274500Y-16654646D01*
X-8274500Y-16365354D01*
X-8277618Y-16339154D01*
X-8323061Y-16236847D01*
X-8323601Y-16236308D01*
X-8339568Y-16182402D01*
X-8323811Y-16133767D01*
X-8322759Y-16132713D01*
X-8313225Y-16111149D01*
X-8280504Y-16037136D01*
X-8280504Y-16037134D01*
X-8277494Y-16030327D01*
X-8274500Y-16004646D01*
X-8274500Y-15715354D01*
X-8277618Y-15689154D01*
X-8280632Y-15682368D01*
X-8280633Y-15682365D01*
X-8284043Y-15674690D01*
X-8290387Y-15613835D01*
X-8259750Y-15560873D01*
X-8203833Y-15536034D01*
X-8193568Y-15535500D01*
X-7825834Y-15535500D01*
X-7767643Y-15554407D01*
X-7755830Y-15564496D01*
X-7339496Y-15980830D01*
X-7311719Y-16035347D01*
X-7310500Y-16050834D01*
X-7310500Y-19764030D01*
X-7329407Y-19822221D01*
X-7349232Y-19842571D01*
X-7413282Y-19891718D01*
X-7509536Y-20017159D01*
X-7570044Y-20163238D01*
X-7590682Y-20320000D01*
X-7570044Y-20476762D01*
X-7509536Y-20622841D01*
X-7413282Y-20748282D01*
X-7408129Y-20752236D01*
X-7349233Y-20797428D01*
X-7314577Y-20847852D01*
X-7310500Y-20875970D01*
X-7310500Y-23709166D01*
X-7329407Y-23767357D01*
X-7339496Y-23779169D01*
X-7435429Y-23875103D01*
X-7520425Y-23960099D01*
X-7574942Y-23987877D01*
X-7628114Y-23981442D01*
X-7630680Y-23980055D01*
X-7635300Y-23978625D01*
X-7635302Y-23978624D01*
X-7818176Y-23922015D01*
X-7818180Y-23922014D01*
X-7822797Y-23920585D01*
X-7827605Y-23920080D01*
X-7827608Y-23920079D01*
X-8017990Y-23900069D01*
X-8017992Y-23900069D01*
X-8022806Y-23899563D01*
X-8084516Y-23905179D01*
X-8218269Y-23917351D01*
X-8218273Y-23917352D01*
X-8223089Y-23917790D01*
X-8227731Y-23919156D01*
X-8227735Y-23919157D01*
X-8411371Y-23973204D01*
X-8411374Y-23973205D01*
X-8416018Y-23974572D01*
X-8426506Y-23980055D01*
X-8589946Y-24065499D01*
X-8589950Y-24065502D01*
X-8594243Y-24067746D01*
X-8598019Y-24070782D01*
X-8598022Y-24070784D01*
X-8747204Y-24190730D01*
X-8750976Y-24193763D01*
X-8754085Y-24197468D01*
X-8754088Y-24197471D01*
X-8877131Y-24344108D01*
X-8880248Y-24347823D01*
X-8882584Y-24352071D01*
X-8882584Y-24352072D01*
X-8889155Y-24364025D01*
X-8977134Y-24524058D01*
X-8978597Y-24528671D01*
X-8978599Y-24528675D01*
X-8982811Y-24541953D01*
X-9037944Y-24715755D01*
X-9038484Y-24720569D01*
X-9054488Y-24863250D01*
X-9060362Y-24915613D01*
X-9059957Y-24920433D01*
X-9047293Y-25071238D01*
X-9043533Y-25116018D01*
X-8988099Y-25309338D01*
X-8896172Y-25488210D01*
X-8893161Y-25492009D01*
X-8774262Y-25642022D01*
X-8774259Y-25642025D01*
X-8771252Y-25645819D01*
X-8767565Y-25648957D01*
X-8767563Y-25648959D01*
X-8651599Y-25747652D01*
X-8618099Y-25776163D01*
X-8613877Y-25778523D01*
X-8613872Y-25778526D01*
X-8575362Y-25800048D01*
X-8442544Y-25874277D01*
X-8339114Y-25907884D01*
X-8255882Y-25934928D01*
X-8255879Y-25934929D01*
X-8251277Y-25936424D01*
X-8051580Y-25960236D01*
X-8046758Y-25959865D01*
X-8046755Y-25959865D01*
X-7980426Y-25954761D01*
X-7851062Y-25944807D01*
X-7657360Y-25890724D01*
X-7653047Y-25888545D01*
X-7653041Y-25888543D01*
X-7482172Y-25802231D01*
X-7482170Y-25802229D01*
X-7477851Y-25800048D01*
X-7330950Y-25685277D01*
X-7323188Y-25679213D01*
X-7323186Y-25679211D01*
X-7319373Y-25676232D01*
X-7316217Y-25672576D01*
X-7316212Y-25672571D01*
X-7240546Y-25584910D01*
X-7187963Y-25523992D01*
X-7088626Y-25349127D01*
X-7025146Y-25158297D01*
X-7023959Y-25148906D01*
X-7011934Y-25053713D01*
X-6999940Y-24958772D01*
X-6999538Y-24930000D01*
X-7009987Y-24823433D01*
X-7018691Y-24734659D01*
X-7018692Y-24734655D01*
X-7019163Y-24729849D01*
X-7025980Y-24707268D01*
X-7075892Y-24541953D01*
X-7077290Y-24537321D01*
X-7079562Y-24533048D01*
X-7081408Y-24528569D01*
X-7079127Y-24527629D01*
X-7088146Y-24476741D01*
X-7060101Y-24420428D01*
X-6767931Y-24128258D01*
X-6761576Y-24122435D01*
X-6731806Y-24097455D01*
X-6712364Y-24063781D01*
X-6707739Y-24056522D01*
X-6690413Y-24031778D01*
X-6690413Y-24031777D01*
X-6685446Y-24024684D01*
X-6683205Y-24016322D01*
X-6680742Y-24011040D01*
X-6678743Y-24005546D01*
X-6674412Y-23998045D01*
X-6667663Y-23959771D01*
X-6665794Y-23951344D01*
X-6657978Y-23922173D01*
X-6657978Y-23922170D01*
X-6655737Y-23913807D01*
X-6659123Y-23875103D01*
X-6659500Y-23866475D01*
X-6659500Y-20875970D01*
X-6640593Y-20817779D01*
X-6620767Y-20797428D01*
X-6561871Y-20752236D01*
X-6556718Y-20748282D01*
X-6460464Y-20622841D01*
X-6399956Y-20476762D01*
X-6379318Y-20320000D01*
X-6399956Y-20163238D01*
X-6460464Y-20017159D01*
X-6556718Y-19891718D01*
X-6620767Y-19842571D01*
X-6655423Y-19792148D01*
X-6659500Y-19764030D01*
X-6659500Y-16263438D01*
X-6640593Y-16205247D01*
X-6591093Y-16169283D01*
X-6529907Y-16169283D01*
X-6490496Y-16193434D01*
X-6171587Y-16512343D01*
X-6163137Y-16523355D01*
X-6163093Y-16523318D01*
X-6157525Y-16529954D01*
X-6153194Y-16537455D01*
X-6123430Y-16562430D01*
X-6117062Y-16568264D01*
X-5308258Y-17377069D01*
X-5302435Y-17383424D01*
X-5277455Y-17413194D01*
X-5243781Y-17432636D01*
X-5236525Y-17437259D01*
X-5204684Y-17459554D01*
X-5196322Y-17461795D01*
X-5191040Y-17464258D01*
X-5185546Y-17466257D01*
X-5178045Y-17470588D01*
X-5139772Y-17477337D01*
X-5131344Y-17479206D01*
X-5102173Y-17487022D01*
X-5102170Y-17487022D01*
X-5093807Y-17489263D01*
X-5055104Y-17485877D01*
X-5046475Y-17485500D01*
X-4506357Y-17485500D01*
X-4448166Y-17504407D01*
X-4412202Y-17553907D01*
X-4412202Y-17615093D01*
X-4415811Y-17624530D01*
X-4422506Y-17639673D01*
X-4425500Y-17665354D01*
X-4425500Y-17954646D01*
X-4422382Y-17980846D01*
X-4376939Y-18083153D01*
X-4376399Y-18083692D01*
X-4360432Y-18137598D01*
X-4376189Y-18186233D01*
X-4377241Y-18187287D01*
X-4422506Y-18289673D01*
X-4425500Y-18315354D01*
X-4425500Y-18604646D01*
X-4422382Y-18630846D01*
X-4376939Y-18733153D01*
X-4297713Y-18812241D01*
X-4289355Y-18815936D01*
X-4202136Y-18854496D01*
X-4202134Y-18854496D01*
X-4195327Y-18857506D01*
X-4187933Y-18858368D01*
X-4172622Y-18860153D01*
X-4169646Y-18860500D01*
X-2805354Y-18860500D01*
X-2787439Y-18858368D01*
X-2786531Y-18858260D01*
X-2786530Y-18858260D01*
X-2779154Y-18857382D01*
X-2676847Y-18811939D01*
X-2660486Y-18795550D01*
X-2636976Y-18771998D01*
X-2597759Y-18732713D01*
X-2552494Y-18630327D01*
X-2549500Y-18604646D01*
X-2549500Y-18315354D01*
X-2552618Y-18289154D01*
X-2598061Y-18186847D01*
X-2598601Y-18186308D01*
X-2614568Y-18132402D01*
X-2598811Y-18083767D01*
X-2597759Y-18082713D01*
X-2552494Y-17980327D01*
X-2549500Y-17954646D01*
X-2549500Y-17665354D01*
X-2552618Y-17639154D01*
X-2598061Y-17536847D01*
X-2598601Y-17536308D01*
X-2614568Y-17482402D01*
X-2598811Y-17433767D01*
X-2597759Y-17432713D01*
X-2591043Y-17417524D01*
X-2555504Y-17337136D01*
X-2555504Y-17337134D01*
X-2552494Y-17330327D01*
X-2549500Y-17304646D01*
X-2549500Y-17015354D01*
X-2552618Y-16989154D01*
X-2598061Y-16886847D01*
X-2598601Y-16886308D01*
X-2614568Y-16832402D01*
X-2598811Y-16783767D01*
X-2597759Y-16782713D01*
X-2591261Y-16768017D01*
X-2555504Y-16687136D01*
X-2555504Y-16687134D01*
X-2552494Y-16680327D01*
X-2549500Y-16654646D01*
X-2549500Y-16365354D01*
X-2552618Y-16339154D01*
X-2598061Y-16236847D01*
X-2598601Y-16236308D01*
X-2614568Y-16182402D01*
X-2598811Y-16133767D01*
X-2597759Y-16132713D01*
X-2588225Y-16111149D01*
X-2555504Y-16037136D01*
X-2555504Y-16037134D01*
X-2552494Y-16030327D01*
X-2549500Y-16004646D01*
X-2549500Y-15715354D01*
X-2552618Y-15689154D01*
X-2598061Y-15586847D01*
X-2598601Y-15586308D01*
X-2614568Y-15532402D01*
X-2598811Y-15483767D01*
X-2597759Y-15482713D01*
X-2591549Y-15468668D01*
X-2555504Y-15387136D01*
X-2555504Y-15387134D01*
X-2552494Y-15380327D01*
X-2549500Y-15354646D01*
X-2549500Y-15065354D01*
X-2552618Y-15039154D01*
X-2598061Y-14936847D01*
X-2598850Y-14936060D01*
X-2614876Y-14881954D01*
X-2597597Y-14828615D01*
X-2594482Y-14824065D01*
X-2572499Y-14774340D01*
X-2571338Y-14763009D01*
X-2578144Y-14760000D01*
X-4393206Y-14760000D01*
X-4404041Y-14763521D01*
X-4404041Y-14770908D01*
X-4380231Y-14824513D01*
X-4377501Y-14828485D01*
X-4360125Y-14887151D01*
X-4375948Y-14935992D01*
X-4377241Y-14937287D01*
X-4385870Y-14956806D01*
X-4417402Y-15028129D01*
X-4422506Y-15039673D01*
X-4425500Y-15065354D01*
X-4425500Y-15354646D01*
X-4422382Y-15380846D01*
X-4376939Y-15483153D01*
X-4376399Y-15483692D01*
X-4360432Y-15537598D01*
X-4376188Y-15586232D01*
X-4377241Y-15587287D01*
X-4380685Y-15595076D01*
X-4428868Y-15632181D01*
X-4490029Y-15633889D01*
X-4540514Y-15599320D01*
X-4549565Y-15583675D01*
X-4549736Y-15583774D01*
X-4552981Y-15578154D01*
X-4555464Y-15572159D01*
X-4651718Y-15446718D01*
X-4777159Y-15350464D01*
X-4923238Y-15289956D01*
X-5080000Y-15269318D01*
X-5236762Y-15289956D01*
X-5382841Y-15350464D01*
X-5508282Y-15446718D01*
X-5604536Y-15572159D01*
X-5665044Y-15718238D01*
X-5675278Y-15795970D01*
X-5683048Y-15854991D01*
X-5709389Y-15910216D01*
X-5763160Y-15939411D01*
X-5823822Y-15931425D01*
X-5851205Y-15912073D01*
X-5995504Y-15767774D01*
X-6023281Y-15713257D01*
X-6024500Y-15697770D01*
X-6024500Y-15160970D01*
X-6005593Y-15102779D01*
X-5985767Y-15082428D01*
X-5926871Y-15037236D01*
X-5921718Y-15033282D01*
X-5825464Y-14907841D01*
X-5764956Y-14761762D01*
X-5744318Y-14605000D01*
X-5764956Y-14448238D01*
X-5802752Y-14356991D01*
X-4403662Y-14356991D01*
X-4396856Y-14360000D01*
X-3703180Y-14360000D01*
X-3690495Y-14355878D01*
X-3687500Y-14351757D01*
X-3687500Y-14344320D01*
X-3287500Y-14344320D01*
X-3283378Y-14357005D01*
X-3279257Y-14360000D01*
X-2581794Y-14360000D01*
X-2570959Y-14356479D01*
X-2570959Y-14349092D01*
X-2594770Y-14295486D01*
X-2604946Y-14280679D01*
X-2671108Y-14214633D01*
X-2685931Y-14204483D01*
X-2772980Y-14166000D01*
X-2787185Y-14162127D01*
X-2802580Y-14160332D01*
X-2808292Y-14160000D01*
X-3271820Y-14160000D01*
X-3284505Y-14164122D01*
X-3287500Y-14168243D01*
X-3287500Y-14344320D01*
X-3687500Y-14344320D01*
X-3687500Y-14175680D01*
X-3691622Y-14162995D01*
X-3695743Y-14160000D01*
X-4166639Y-14160000D01*
X-4172485Y-14160346D01*
X-4188353Y-14162234D01*
X-4202519Y-14166128D01*
X-4289514Y-14204770D01*
X-4304321Y-14214946D01*
X-4370367Y-14281108D01*
X-4380517Y-14295931D01*
X-4402501Y-14345660D01*
X-4403662Y-14356991D01*
X-5802752Y-14356991D01*
X-5825464Y-14302159D01*
X-5921718Y-14176718D01*
X-6047159Y-14080464D01*
X-6193238Y-14019956D01*
X-6350000Y-13999318D01*
X-6506762Y-14019956D01*
X-6652841Y-14080464D01*
X-6778282Y-14176718D01*
X-6874536Y-14302159D01*
X-6935044Y-14448238D01*
X-6955682Y-14605000D01*
X-6935044Y-14761762D01*
X-6874536Y-14907841D01*
X-6778282Y-15033282D01*
X-6773129Y-15037236D01*
X-6714233Y-15082428D01*
X-6679577Y-15132852D01*
X-6675500Y-15160970D01*
X-6675500Y-15485166D01*
X-6694407Y-15543357D01*
X-6743907Y-15579321D01*
X-6805093Y-15579321D01*
X-6844504Y-15555170D01*
X-7406731Y-14992943D01*
X-7412566Y-14986575D01*
X-7430491Y-14965213D01*
X-7437545Y-14956806D01*
X-7471208Y-14937371D01*
X-7478489Y-14932732D01*
X-7482912Y-14929635D01*
X-7510316Y-14910446D01*
X-7518684Y-14908204D01*
X-7523971Y-14905738D01*
X-7529456Y-14903742D01*
X-7536955Y-14899412D01*
X-7545481Y-14897909D01*
X-7545483Y-14897908D01*
X-7575216Y-14892666D01*
X-7583651Y-14890796D01*
X-7612826Y-14882978D01*
X-7621193Y-14880736D01*
X-7629822Y-14881491D01*
X-7659905Y-14884123D01*
X-7668534Y-14884500D01*
X-8193643Y-14884500D01*
X-8251834Y-14865593D01*
X-8287798Y-14816093D01*
X-8287798Y-14754907D01*
X-8284188Y-14745468D01*
X-8280504Y-14737136D01*
X-8280504Y-14737134D01*
X-8277494Y-14730327D01*
X-8274500Y-14704646D01*
X-8274500Y-14415354D01*
X-8277618Y-14389154D01*
X-8310812Y-14314423D01*
X-8317155Y-14253568D01*
X-8290341Y-14204234D01*
X-7486595Y-13400487D01*
X-7432078Y-13372710D01*
X-7401105Y-13372710D01*
X-7387336Y-13374891D01*
X-7387330Y-13374891D01*
X-7383488Y-13375500D01*
X-6866512Y-13375500D01*
X-6862668Y-13374891D01*
X-6862666Y-13374891D01*
X-6774569Y-13360938D01*
X-6774568Y-13360938D01*
X-6766874Y-13359719D01*
X-6744679Y-13348410D01*
X-6653719Y-13302064D01*
X-6653717Y-13302063D01*
X-6646780Y-13298528D01*
X-6551472Y-13203220D01*
X-6490281Y-13083126D01*
X-6489037Y-13075275D01*
X-6475109Y-12987334D01*
X-6475109Y-12987332D01*
X-6474500Y-12983488D01*
X-6474500Y-12979556D01*
X-6224999Y-12979556D01*
X-6224390Y-12987298D01*
X-6210456Y-13075275D01*
X-6205702Y-13089908D01*
X-6151654Y-13195984D01*
X-6142612Y-13208429D01*
X-6058429Y-13292612D01*
X-6045984Y-13301654D01*
X-5939909Y-13355702D01*
X-5925274Y-13360457D01*
X-5841000Y-13373804D01*
X-5831995Y-13370878D01*
X-5829000Y-13366757D01*
X-5829000Y-13359319D01*
X-5321000Y-13359319D01*
X-5316878Y-13372004D01*
X-5313508Y-13374453D01*
X-5312702Y-13374390D01*
X-5224725Y-13360456D01*
X-5210092Y-13355702D01*
X-5104016Y-13301654D01*
X-5091571Y-13292612D01*
X-5007388Y-13208429D01*
X-4998346Y-13195984D01*
X-4944298Y-13089909D01*
X-4939543Y-13075274D01*
X-4925609Y-12987297D01*
X-4925000Y-12979558D01*
X-4925000Y-12969680D01*
X-4929122Y-12956995D01*
X-4933243Y-12954000D01*
X-5305320Y-12954000D01*
X-5318005Y-12958122D01*
X-5321000Y-12962243D01*
X-5321000Y-13359319D01*
X-5829000Y-13359319D01*
X-5829000Y-12969680D01*
X-5833122Y-12956995D01*
X-5837243Y-12954000D01*
X-6209319Y-12954000D01*
X-6222004Y-12958122D01*
X-6224999Y-12962243D01*
X-6224999Y-12979556D01*
X-6474500Y-12979556D01*
X-6474500Y-12656901D01*
X-6455593Y-12598710D01*
X-6445504Y-12586897D01*
X-6327428Y-12468821D01*
X-6272911Y-12441044D01*
X-6240704Y-12446145D01*
X-6240107Y-12442374D01*
X-6217211Y-12446000D01*
X-5844680Y-12446000D01*
X-5831995Y-12441878D01*
X-5829000Y-12437757D01*
X-5829000Y-12430320D01*
X-5321000Y-12430320D01*
X-5316878Y-12443005D01*
X-5312757Y-12446000D01*
X-4940681Y-12446000D01*
X-4927996Y-12441878D01*
X-4925001Y-12437757D01*
X-4925001Y-12420444D01*
X-4925610Y-12412702D01*
X-4939544Y-12324725D01*
X-4944298Y-12310092D01*
X-4998346Y-12204016D01*
X-5007388Y-12191571D01*
X-5091571Y-12107388D01*
X-5104016Y-12098346D01*
X-5210091Y-12044298D01*
X-5224726Y-12039543D01*
X-5309000Y-12026196D01*
X-5318005Y-12029122D01*
X-5321000Y-12033243D01*
X-5321000Y-12430320D01*
X-5829000Y-12430320D01*
X-5829000Y-12025001D01*
X-5827490Y-12025001D01*
X-5827488Y-11984137D01*
X-5803339Y-11944731D01*
X-5791950Y-11933342D01*
X-5786368Y-11922388D01*
X-5780999Y-11911849D01*
X-5772887Y-11898610D01*
X-5758704Y-11879089D01*
X-5756298Y-11871684D01*
X-5756296Y-11871680D01*
X-5751249Y-11856145D01*
X-5745306Y-11841799D01*
X-5734354Y-11820304D01*
X-5733068Y-11812188D01*
X-5730581Y-11796481D01*
X-5726955Y-11781375D01*
X-5726230Y-11779145D01*
X-5719500Y-11758433D01*
X-5719500Y-11520873D01*
X-5700593Y-11462682D01*
X-5694175Y-11455167D01*
X-5691718Y-11453282D01*
X-5595464Y-11327841D01*
X-5534956Y-11181762D01*
X-5514318Y-11025000D01*
X-5534956Y-10868238D01*
X-5595464Y-10722159D01*
X-5691718Y-10596718D01*
X-5691743Y-10596699D01*
X-5718281Y-10544614D01*
X-5719500Y-10529127D01*
X-5719500Y-9580522D01*
X-5700593Y-9522331D01*
X-5651093Y-9486367D01*
X-5639814Y-9483424D01*
X-5601334Y-9475770D01*
X-5601332Y-9475769D01*
X-5591769Y-9473867D01*
X-5525448Y-9429552D01*
X-5481133Y-9363231D01*
X-5479141Y-9353220D01*
X-5470448Y-9309512D01*
X-5469500Y-9304748D01*
X-5469500Y-9134500D01*
X-5450593Y-9076309D01*
X-5401093Y-9040345D01*
X-5370500Y-9035500D01*
X-4699420Y-9035500D01*
X-4641229Y-9054407D01*
X-4605265Y-9103907D01*
X-4600725Y-9126734D01*
X-4600500Y-9129593D01*
X-4600500Y-9133488D01*
X-4599891Y-9137333D01*
X-4585962Y-9225275D01*
X-4584719Y-9233126D01*
X-4581183Y-9240065D01*
X-4581183Y-9240066D01*
X-4545798Y-9309512D01*
X-4523528Y-9353220D01*
X-4428220Y-9448528D01*
X-4421283Y-9452063D01*
X-4421281Y-9452064D01*
X-4317174Y-9505109D01*
X-4308126Y-9509719D01*
X-4300432Y-9510938D01*
X-4300431Y-9510938D01*
X-4212334Y-9524891D01*
X-4212332Y-9524891D01*
X-4208488Y-9525500D01*
X-3691512Y-9525500D01*
X-3687668Y-9524891D01*
X-3687666Y-9524891D01*
X-3599569Y-9510938D01*
X-3599568Y-9510938D01*
X-3591874Y-9509719D01*
X-3582826Y-9505109D01*
X-3478719Y-9452064D01*
X-3478717Y-9452063D01*
X-3471780Y-9448528D01*
X-3376472Y-9353220D01*
X-3354201Y-9309512D01*
X-3318817Y-9240066D01*
X-3318817Y-9240065D01*
X-3315281Y-9233126D01*
X-3314037Y-9225275D01*
X-3300109Y-9137334D01*
X-3300109Y-9137332D01*
X-3299500Y-9133488D01*
X-3299500Y-9129556D01*
X-3049999Y-9129556D01*
X-3049390Y-9137298D01*
X-3035456Y-9225275D01*
X-3030702Y-9239908D01*
X-2976654Y-9345984D01*
X-2967612Y-9358429D01*
X-2883429Y-9442612D01*
X-2870984Y-9451654D01*
X-2764909Y-9505702D01*
X-2750274Y-9510457D01*
X-2666000Y-9523804D01*
X-2656995Y-9520878D01*
X-2654000Y-9516757D01*
X-2654000Y-9509319D01*
X-2146000Y-9509319D01*
X-2141878Y-9522004D01*
X-2138508Y-9524453D01*
X-2137702Y-9524390D01*
X-2049725Y-9510456D01*
X-2035092Y-9505702D01*
X-1929016Y-9451654D01*
X-1916571Y-9442612D01*
X-1832388Y-9358429D01*
X-1823346Y-9345984D01*
X-1769298Y-9239909D01*
X-1764543Y-9225274D01*
X-1750609Y-9137297D01*
X-1750000Y-9129558D01*
X-1750000Y-9119680D01*
X-1754122Y-9106995D01*
X-1758243Y-9104000D01*
X-2130320Y-9104000D01*
X-2143005Y-9108122D01*
X-2146000Y-9112243D01*
X-2146000Y-9509319D01*
X-2654000Y-9509319D01*
X-2654000Y-9119680D01*
X-2658122Y-9106995D01*
X-2662243Y-9104000D01*
X-3034319Y-9104000D01*
X-3047004Y-9108122D01*
X-3049999Y-9112243D01*
X-3049999Y-9129556D01*
X-3299500Y-9129556D01*
X-3299500Y-8580320D01*
X-3050000Y-8580320D01*
X-3045878Y-8593005D01*
X-3041757Y-8596000D01*
X-2669680Y-8596000D01*
X-2656995Y-8591878D01*
X-2654000Y-8587757D01*
X-2654000Y-8580320D01*
X-2146000Y-8580320D01*
X-2141878Y-8593005D01*
X-2137757Y-8596000D01*
X-1765681Y-8596000D01*
X-1752996Y-8591878D01*
X-1750001Y-8587757D01*
X-1750001Y-8570444D01*
X-1750610Y-8562702D01*
X-1764544Y-8474725D01*
X-1769298Y-8460092D01*
X-1823346Y-8354016D01*
X-1832388Y-8341571D01*
X-1916571Y-8257388D01*
X-1929016Y-8248346D01*
X-2035091Y-8194298D01*
X-2049726Y-8189543D01*
X-2134000Y-8176196D01*
X-2143005Y-8179122D01*
X-2146000Y-8183243D01*
X-2146000Y-8580320D01*
X-2654000Y-8580320D01*
X-2654000Y-8190681D01*
X-2658122Y-8177996D01*
X-2661492Y-8175547D01*
X-2662298Y-8175610D01*
X-2750275Y-8189544D01*
X-2764908Y-8194298D01*
X-2870984Y-8248346D01*
X-2883429Y-8257388D01*
X-2967612Y-8341571D01*
X-2976654Y-8354016D01*
X-3030702Y-8460091D01*
X-3035457Y-8474726D01*
X-3049391Y-8562703D01*
X-3050000Y-8570442D01*
X-3050000Y-8580320D01*
X-3299500Y-8580320D01*
X-3299500Y-8566512D01*
X-3300109Y-8562666D01*
X-3314062Y-8474569D01*
X-3314062Y-8474568D01*
X-3315281Y-8466874D01*
X-3330502Y-8437001D01*
X-3372936Y-8353719D01*
X-3372937Y-8353717D01*
X-3376472Y-8346780D01*
X-3471780Y-8251472D01*
X-3478717Y-8247937D01*
X-3478719Y-8247936D01*
X-3584934Y-8193817D01*
X-3584935Y-8193817D01*
X-3591874Y-8190281D01*
X-3599568Y-8189062D01*
X-3599569Y-8189062D01*
X-3687666Y-8175109D01*
X-3687668Y-8175109D01*
X-3691512Y-8174500D01*
X-4208488Y-8174500D01*
X-4212332Y-8175109D01*
X-4212334Y-8175109D01*
X-4300431Y-8189062D01*
X-4300432Y-8189062D01*
X-4308126Y-8190281D01*
X-4315065Y-8193817D01*
X-4315066Y-8193817D01*
X-4373734Y-8223710D01*
X-4418679Y-8234500D01*
X-5370500Y-8234500D01*
X-5428691Y-8215593D01*
X-5464655Y-8166093D01*
X-5469500Y-8135500D01*
X-5469500Y-7965252D01*
X-5474721Y-7939005D01*
X-5479230Y-7916334D01*
X-5479231Y-7916332D01*
X-5481133Y-7906769D01*
X-5525448Y-7840448D01*
X-5591769Y-7796133D01*
X-5601332Y-7794231D01*
X-5601334Y-7794230D01*
X-5627016Y-7789122D01*
X-5650252Y-7784500D01*
X-6450072Y-7784500D01*
X-6508263Y-7765593D01*
X-6544227Y-7716093D01*
X-6549072Y-7685500D01*
X-6549072Y-4685000D01*
X-6564633Y-4606769D01*
X-6608948Y-4540448D01*
X-6675269Y-4496133D01*
X-6684832Y-4494231D01*
X-6684834Y-4494230D01*
X-6717923Y-4487649D01*
X-6753500Y-4480572D01*
X-8486500Y-4480572D01*
X-8522077Y-4487649D01*
X-8555166Y-4494230D01*
X-8555168Y-4494231D01*
X-8564731Y-4496133D01*
X-8631052Y-4540448D01*
X-8675367Y-4606769D01*
X-8690928Y-4685000D01*
X-8690928Y-5108671D01*
X-8709835Y-5166862D01*
X-8759335Y-5202826D01*
X-8820521Y-5202826D01*
X-8859932Y-5178675D01*
X-9235504Y-4803103D01*
X-9263281Y-4748586D01*
X-9264500Y-4733099D01*
X-9264500Y-4273796D01*
X-9245593Y-4215605D01*
X-9210445Y-4185586D01*
X-9193719Y-4177064D01*
X-9193717Y-4177063D01*
X-9186780Y-4173528D01*
X-9091472Y-4078220D01*
X-9030281Y-3958126D01*
X-9029037Y-3950275D01*
X-9015109Y-3862334D01*
X-9015109Y-3862332D01*
X-9014500Y-3858488D01*
X-9014500Y-3854556D01*
X-8764999Y-3854556D01*
X-8764390Y-3862298D01*
X-8750456Y-3950275D01*
X-8745702Y-3964908D01*
X-8691654Y-4070984D01*
X-8682612Y-4083429D01*
X-8598429Y-4167612D01*
X-8585984Y-4176654D01*
X-8479909Y-4230702D01*
X-8465274Y-4235457D01*
X-8381000Y-4248804D01*
X-8371995Y-4245878D01*
X-8369000Y-4241757D01*
X-8369000Y-4234319D01*
X-7861000Y-4234319D01*
X-7856878Y-4247004D01*
X-7853508Y-4249453D01*
X-7852702Y-4249390D01*
X-7764725Y-4235456D01*
X-7750092Y-4230702D01*
X-7644016Y-4176654D01*
X-7631571Y-4167612D01*
X-7547388Y-4083429D01*
X-7538346Y-4070984D01*
X-7484298Y-3964909D01*
X-7479543Y-3950274D01*
X-7465609Y-3862297D01*
X-7465000Y-3854558D01*
X-7465000Y-3844680D01*
X-7469122Y-3831995D01*
X-7473243Y-3829000D01*
X-7845320Y-3829000D01*
X-7858005Y-3833122D01*
X-7861000Y-3837243D01*
X-7861000Y-4234319D01*
X-8369000Y-4234319D01*
X-8369000Y-3844680D01*
X-8373122Y-3831995D01*
X-8377243Y-3829000D01*
X-8749319Y-3829000D01*
X-8762004Y-3833122D01*
X-8764999Y-3837243D01*
X-8764999Y-3854556D01*
X-9014500Y-3854556D01*
X-9014500Y-3305320D01*
X-8765000Y-3305320D01*
X-8760878Y-3318005D01*
X-8756757Y-3321000D01*
X-8384680Y-3321000D01*
X-8371995Y-3316878D01*
X-8369000Y-3312757D01*
X-8369000Y-3305320D01*
X-7861000Y-3305320D01*
X-7856878Y-3318005D01*
X-7852757Y-3321000D01*
X-7480681Y-3321000D01*
X-7467996Y-3316878D01*
X-7465001Y-3312757D01*
X-7465001Y-3295444D01*
X-7465610Y-3287702D01*
X-7479544Y-3199725D01*
X-7484298Y-3185092D01*
X-7538346Y-3079016D01*
X-7547388Y-3066571D01*
X-7631571Y-2982388D01*
X-7644016Y-2973346D01*
X-7750091Y-2919298D01*
X-7764726Y-2914543D01*
X-7849000Y-2901196D01*
X-7858005Y-2904122D01*
X-7861000Y-2908243D01*
X-7861000Y-3305320D01*
X-8369000Y-3305320D01*
X-8369000Y-2915681D01*
X-8373122Y-2902996D01*
X-8376492Y-2900547D01*
X-8377298Y-2900610D01*
X-8465275Y-2914544D01*
X-8479908Y-2919298D01*
X-8585984Y-2973346D01*
X-8598429Y-2982388D01*
X-8682612Y-3066571D01*
X-8691654Y-3079016D01*
X-8745702Y-3185091D01*
X-8750457Y-3199726D01*
X-8764391Y-3287703D01*
X-8765000Y-3295442D01*
X-8765000Y-3305320D01*
X-9014500Y-3305320D01*
X-9014500Y-3291512D01*
X-9029037Y-3199726D01*
X-9029062Y-3199569D01*
X-9029062Y-3199568D01*
X-9030281Y-3191874D01*
X-9091472Y-3071780D01*
X-9186780Y-2976472D01*
X-9193717Y-2972937D01*
X-9193719Y-2972936D01*
X-9299934Y-2918817D01*
X-9299935Y-2918817D01*
X-9306874Y-2915281D01*
X-9314568Y-2914062D01*
X-9314569Y-2914062D01*
X-9402666Y-2900109D01*
X-9402668Y-2900109D01*
X-9406512Y-2899500D01*
X-9923488Y-2899500D01*
X-9927332Y-2900109D01*
X-9927334Y-2900109D01*
X-10015431Y-2914062D01*
X-10015432Y-2914062D01*
X-10023126Y-2915281D01*
X-10030065Y-2918817D01*
X-10030066Y-2918817D01*
X-10136281Y-2972936D01*
X-10136283Y-2972937D01*
X-10143220Y-2976472D01*
X-10238528Y-3071780D01*
X-10299719Y-3191874D01*
X-10300938Y-3199568D01*
X-10300938Y-3199569D01*
X-10300963Y-3199726D01*
X-10315500Y-3291512D01*
X-10315500Y-3858488D01*
X-10314891Y-3862332D01*
X-10314891Y-3862334D01*
X-10300962Y-3950275D01*
X-10299719Y-3958126D01*
X-10238528Y-4078220D01*
X-10143220Y-4173528D01*
X-10136283Y-4177063D01*
X-10136281Y-4177064D01*
X-10119555Y-4185586D01*
X-10076290Y-4228851D01*
X-10065500Y-4273796D01*
X-10065500Y-5003433D01*
X-10058045Y-5026375D01*
X-10054419Y-5041481D01*
X-10050646Y-5065304D01*
X-10039695Y-5086797D01*
X-10033752Y-5101143D01*
X-10026296Y-5124090D01*
X-10021715Y-5130395D01*
X-10012117Y-5143605D01*
X-10004002Y-5156846D01*
X-9993050Y-5178342D01*
X-9970487Y-5200905D01*
X-9970484Y-5200909D01*
X-8719924Y-6451469D01*
X-8692147Y-6505986D01*
X-8690928Y-6521473D01*
X-8690928Y-7686000D01*
X-8709835Y-7744191D01*
X-8759335Y-7780155D01*
X-8789928Y-7785000D01*
X-8850320Y-7785000D01*
X-8863005Y-7789122D01*
X-8866000Y-7793243D01*
X-8866000Y-9469320D01*
X-8861878Y-9482005D01*
X-8857757Y-9485000D01*
X-8655160Y-9485000D01*
X-8645538Y-9484052D01*
X-8601526Y-9475298D01*
X-8583858Y-9467979D01*
X-8533918Y-9434611D01*
X-8520389Y-9421082D01*
X-8487021Y-9371142D01*
X-8479702Y-9353474D01*
X-8470948Y-9309462D01*
X-8469672Y-9296508D01*
X-8445154Y-9240450D01*
X-8392367Y-9209511D01*
X-8331477Y-9215507D01*
X-8285739Y-9256148D01*
X-8274051Y-9286896D01*
X-8260858Y-9353220D01*
X-8258867Y-9363231D01*
X-8214552Y-9429552D01*
X-8148231Y-9473867D01*
X-8138668Y-9475769D01*
X-8138666Y-9475770D01*
X-8100186Y-9483424D01*
X-8046802Y-9513321D01*
X-8021186Y-9568886D01*
X-8020500Y-9580522D01*
X-8020500Y-9953099D01*
X-8039407Y-10011290D01*
X-8049496Y-10023103D01*
X-9661897Y-11635504D01*
X-9716414Y-11663281D01*
X-9731901Y-11664500D01*
X-15906519Y-11664500D01*
X-15906523Y-11664501D01*
X-15938433Y-11664501D01*
X-15945840Y-11666907D01*
X-15945843Y-11666908D01*
X-15961373Y-11671954D01*
X-15976475Y-11675580D01*
X-16000304Y-11679354D01*
X-16021794Y-11690304D01*
X-16036144Y-11696249D01*
X-16059090Y-11703704D01*
X-16078614Y-11717889D01*
X-16091844Y-11725996D01*
X-16113342Y-11736950D01*
X-16135909Y-11759517D01*
X-17647984Y-13271591D01*
X-17647987Y-13271595D01*
X-17670550Y-13294158D01*
X-17681502Y-13315654D01*
X-17689616Y-13328893D01*
X-17703796Y-13348410D01*
X-17706204Y-13355821D01*
X-17711252Y-13371357D01*
X-17717195Y-13385703D01*
X-17728146Y-13407196D01*
X-17729364Y-13414889D01*
X-17729365Y-13414891D01*
X-17731919Y-13431019D01*
X-17735544Y-13446120D01*
X-17743000Y-13469067D01*
X-17743000Y-16673912D01*
X-17761907Y-16732103D01*
X-17800161Y-16763636D01*
X-17970138Y-16842898D01*
X-18149377Y-16968402D01*
X-18304098Y-17123123D01*
X-18429602Y-17302362D01*
X-18522075Y-17500670D01*
X-18532900Y-17541068D01*
X-18568425Y-17673652D01*
X-18578707Y-17712023D01*
X-18597777Y-17930000D01*
X-26088102Y-17930000D01*
X-26088102Y-17925691D01*
X-26106412Y-17716412D01*
X-26107905Y-17707944D01*
X-26162279Y-17505015D01*
X-26165225Y-17496922D01*
X-26254004Y-17306535D01*
X-26258313Y-17299071D01*
X-26288052Y-17256598D01*
X-26298702Y-17248573D01*
X-26299334Y-17248562D01*
X-26305640Y-17252350D01*
X-26972204Y-17918914D01*
X-26978258Y-17930797D01*
X-27707554Y-17930797D01*
X-27706742Y-17929203D01*
X-27707538Y-17924172D01*
X-28376869Y-17254841D01*
X-28388752Y-17248787D01*
X-28389374Y-17248885D01*
X-28394927Y-17253712D01*
X-28426687Y-17299071D01*
X-28430996Y-17306535D01*
X-28519775Y-17496922D01*
X-28522721Y-17505015D01*
X-28577095Y-17707944D01*
X-28578588Y-17716412D01*
X-28596898Y-17925691D01*
X-28596898Y-17934309D01*
X-31770364Y-17934309D01*
X-32817839Y-16886834D01*
X-28023938Y-16886834D01*
X-28020150Y-16893140D01*
X-27353586Y-17559704D01*
X-27341703Y-17565758D01*
X-27336672Y-17564962D01*
X-26667341Y-16895631D01*
X-26661287Y-16883748D01*
X-26661385Y-16883126D01*
X-26666212Y-16877573D01*
X-26711567Y-16845815D01*
X-26719037Y-16841503D01*
X-26909422Y-16752725D01*
X-26917515Y-16749779D01*
X-27120444Y-16695405D01*
X-27128912Y-16693912D01*
X-27338191Y-16675602D01*
X-27346809Y-16675602D01*
X-27556088Y-16693912D01*
X-27564556Y-16695405D01*
X-27767485Y-16749779D01*
X-27775578Y-16752725D01*
X-27965965Y-16841504D01*
X-27973429Y-16845813D01*
X-28015902Y-16875552D01*
X-28023927Y-16886202D01*
X-28023938Y-16886834D01*
X-32817839Y-16886834D01*
X-34274674Y-15430000D01*
X-31097777Y-15430000D01*
X-31078707Y-15647977D01*
X-31077588Y-15652152D01*
X-31077588Y-15652154D01*
X-31048999Y-15758848D01*
X-31022075Y-15859330D01*
X-30929602Y-16057638D01*
X-30927121Y-16061181D01*
X-30927120Y-16061183D01*
X-30909133Y-16086871D01*
X-30804098Y-16236877D01*
X-30649377Y-16391598D01*
X-30565483Y-16450341D01*
X-30489470Y-16503566D01*
X-30470139Y-16517102D01*
X-30271830Y-16609575D01*
X-30185280Y-16632766D01*
X-30064654Y-16665088D01*
X-30064652Y-16665088D01*
X-30060477Y-16666207D01*
X-29842500Y-16685277D01*
X-29624523Y-16666207D01*
X-29620348Y-16665088D01*
X-29620346Y-16665088D01*
X-29499720Y-16632766D01*
X-29413170Y-16609575D01*
X-29214861Y-16517102D01*
X-29195529Y-16503566D01*
X-29119517Y-16450341D01*
X-29035623Y-16391598D01*
X-28880902Y-16236877D01*
X-28775867Y-16086871D01*
X-28757880Y-16061183D01*
X-28757879Y-16061181D01*
X-28755398Y-16057638D01*
X-28662925Y-15859330D01*
X-28636001Y-15758848D01*
X-28607412Y-15652154D01*
X-28607412Y-15652152D01*
X-28606293Y-15647977D01*
X-28587223Y-15430000D01*
X-28606293Y-15212023D01*
X-28662925Y-15000670D01*
X-28755398Y-14802362D01*
X-28880902Y-14623123D01*
X-29035623Y-14468402D01*
X-29181108Y-14366532D01*
X-29211316Y-14345380D01*
X-29211318Y-14345379D01*
X-29214861Y-14342898D01*
X-29413170Y-14250425D01*
X-29546747Y-14214633D01*
X-29620346Y-14194912D01*
X-29620348Y-14194912D01*
X-29624523Y-14193793D01*
X-29842500Y-14174723D01*
X-30060477Y-14193793D01*
X-30064652Y-14194912D01*
X-30064654Y-14194912D01*
X-30138253Y-14214633D01*
X-30271830Y-14250425D01*
X-30470138Y-14342898D01*
X-30473681Y-14345379D01*
X-30473683Y-14345380D01*
X-30489534Y-14356479D01*
X-30649377Y-14468402D01*
X-30804098Y-14623123D01*
X-30929602Y-14802362D01*
X-31022075Y-15000670D01*
X-31078707Y-15212023D01*
X-31097777Y-15430000D01*
X-34274674Y-15430000D01*
X-34681731Y-15022943D01*
X-34687566Y-15016575D01*
X-34712545Y-14986806D01*
X-34720045Y-14982476D01*
X-34720046Y-14982475D01*
X-34725042Y-14979591D01*
X-34765984Y-14934122D01*
X-34773324Y-14909340D01*
X-34783135Y-14847390D01*
X-34783136Y-14847387D01*
X-34784354Y-14839696D01*
X-34823428Y-14763009D01*
X-34838414Y-14733597D01*
X-34838415Y-14733595D01*
X-34841950Y-14726658D01*
X-34931658Y-14636950D01*
X-34938595Y-14633415D01*
X-34938597Y-14633414D01*
X-35037756Y-14582890D01*
X-35037757Y-14582890D01*
X-35044696Y-14579354D01*
X-35052390Y-14578135D01*
X-35052391Y-14578135D01*
X-35134635Y-14565109D01*
X-35134637Y-14565109D01*
X-35138481Y-14564500D01*
X-35369970Y-14564500D01*
X-35601518Y-14564501D01*
X-35605361Y-14565110D01*
X-35605366Y-14565110D01*
X-35642217Y-14570947D01*
X-35695304Y-14579354D01*
X-35745637Y-14605000D01*
X-35801403Y-14633414D01*
X-35801405Y-14633415D01*
X-35808342Y-14636950D01*
X-35898050Y-14726658D01*
X-35901585Y-14733595D01*
X-35901586Y-14733597D01*
X-35952088Y-14832713D01*
X-35955646Y-14839696D01*
X-35956865Y-14847390D01*
X-35956865Y-14847391D01*
X-35966852Y-14910446D01*
X-35970500Y-14933481D01*
X-36419501Y-14933481D01*
X-36424065Y-14904660D01*
X-36426768Y-14887598D01*
X-36434354Y-14839696D01*
X-36473428Y-14763009D01*
X-36488414Y-14733597D01*
X-36488415Y-14733595D01*
X-36491950Y-14726658D01*
X-36581658Y-14636950D01*
X-36581481Y-14636773D01*
X-36614655Y-14591112D01*
X-36619500Y-14560519D01*
X-36619500Y-12821981D01*
X-36600593Y-12763790D01*
X-36583075Y-12746272D01*
X-36581658Y-12745550D01*
X-36491950Y-12655842D01*
X-36486750Y-12645638D01*
X-36437890Y-12549744D01*
X-36437890Y-12549743D01*
X-36434354Y-12542804D01*
X-36421220Y-12459882D01*
X-36420109Y-12452865D01*
X-36420109Y-12452863D01*
X-36419500Y-12449019D01*
X-36419501Y-11835982D01*
X-36419501Y-11835981D01*
X-35970500Y-11835981D01*
X-35970499Y-12449018D01*
X-35969890Y-12452861D01*
X-35969890Y-12452866D01*
X-35964498Y-12486909D01*
X-35955646Y-12542804D01*
X-35927160Y-12598710D01*
X-35903249Y-12645638D01*
X-35898050Y-12655842D01*
X-35808342Y-12745550D01*
X-35801405Y-12749085D01*
X-35801403Y-12749086D01*
X-35702244Y-12799610D01*
X-35695304Y-12803146D01*
X-35687610Y-12804365D01*
X-35687609Y-12804365D01*
X-35605365Y-12817391D01*
X-35605363Y-12817391D01*
X-35601519Y-12818000D01*
X-35370030Y-12818000D01*
X-35138482Y-12817999D01*
X-35134639Y-12817390D01*
X-35134634Y-12817390D01*
X-35097783Y-12811553D01*
X-35044696Y-12803146D01*
X-34967456Y-12763790D01*
X-34938597Y-12749086D01*
X-34938595Y-12749085D01*
X-34931658Y-12745550D01*
X-34841950Y-12655842D01*
X-34836750Y-12645638D01*
X-34805613Y-12584527D01*
X-34784354Y-12542804D01*
X-34783281Y-12536027D01*
X-34747596Y-12486909D01*
X-34689403Y-12468000D01*
X-25805834Y-12468000D01*
X-25747643Y-12486907D01*
X-25735830Y-12496996D01*
X-23478893Y-14753933D01*
X-23451116Y-14808450D01*
X-23459173Y-14865776D01*
X-23513471Y-14982218D01*
X-23522075Y-15000670D01*
X-23578707Y-15212023D01*
X-23597777Y-15430000D01*
X-23578707Y-15647977D01*
X-23577588Y-15652152D01*
X-23577588Y-15652154D01*
X-23548999Y-15758848D01*
X-23522075Y-15859330D01*
X-23429602Y-16057638D01*
X-23427121Y-16061181D01*
X-23427120Y-16061183D01*
X-23409133Y-16086871D01*
X-23304098Y-16236877D01*
X-23149377Y-16391598D01*
X-23065483Y-16450341D01*
X-22989470Y-16503566D01*
X-22970139Y-16517102D01*
X-22771830Y-16609575D01*
X-22685280Y-16632766D01*
X-22564654Y-16665088D01*
X-22564652Y-16665088D01*
X-22560477Y-16666207D01*
X-22342500Y-16685277D01*
X-22124523Y-16666207D01*
X-22120348Y-16665088D01*
X-22120346Y-16665088D01*
X-21999720Y-16632766D01*
X-21913170Y-16609575D01*
X-21714861Y-16517102D01*
X-21695529Y-16503566D01*
X-21619517Y-16450341D01*
X-21535623Y-16391598D01*
X-21380902Y-16236877D01*
X-21275867Y-16086871D01*
X-21257880Y-16061183D01*
X-21257879Y-16061181D01*
X-21255398Y-16057638D01*
X-21162925Y-15859330D01*
X-21136001Y-15758848D01*
X-21107412Y-15652154D01*
X-21107412Y-15652152D01*
X-21106293Y-15647977D01*
X-21087223Y-15430000D01*
X-21106293Y-15212023D01*
X-21162925Y-15000670D01*
X-21255398Y-14802362D01*
X-21380902Y-14623123D01*
X-21535623Y-14468402D01*
X-21681108Y-14366532D01*
X-21711316Y-14345380D01*
X-21711318Y-14345379D01*
X-21714861Y-14342898D01*
X-21913170Y-14250425D01*
X-22046747Y-14214633D01*
X-22120346Y-14194912D01*
X-22120348Y-14194912D01*
X-22124523Y-14193793D01*
X-22342500Y-14174723D01*
X-22560477Y-14193793D01*
X-22564652Y-14194912D01*
X-22564654Y-14194912D01*
X-22638253Y-14214633D01*
X-22771830Y-14250425D01*
X-22775751Y-14252253D01*
X-22775750Y-14252253D01*
X-22906724Y-14313327D01*
X-22967453Y-14320784D01*
X-23018567Y-14293607D01*
X-25386731Y-11925443D01*
X-25392566Y-11919075D01*
X-25398629Y-11911849D01*
X-25417545Y-11889306D01*
X-25451208Y-11869871D01*
X-25458489Y-11865232D01*
X-25460944Y-11863513D01*
X-25490316Y-11842946D01*
X-25498684Y-11840704D01*
X-25503971Y-11838238D01*
X-25509456Y-11836242D01*
X-25516955Y-11831912D01*
X-25525481Y-11830409D01*
X-25525483Y-11830408D01*
X-25553299Y-11825504D01*
X-25555217Y-11825166D01*
X-25563651Y-11823296D01*
X-25592826Y-11815478D01*
X-25601193Y-11813236D01*
X-25609822Y-11813991D01*
X-25639905Y-11816623D01*
X-25648534Y-11817000D01*
X-34689403Y-11817000D01*
X-34747594Y-11798093D01*
X-34783281Y-11748973D01*
X-34784354Y-11742196D01*
X-34821469Y-11669354D01*
X-34838414Y-11636097D01*
X-34838415Y-11636095D01*
X-34841950Y-11629158D01*
X-34931658Y-11539450D01*
X-34938595Y-11535915D01*
X-34938597Y-11535914D01*
X-35037756Y-11485390D01*
X-35037757Y-11485390D01*
X-35044696Y-11481854D01*
X-35052390Y-11480635D01*
X-35052391Y-11480635D01*
X-35134635Y-11467609D01*
X-35134637Y-11467609D01*
X-35138481Y-11467000D01*
X-35369970Y-11467000D01*
X-35601518Y-11467001D01*
X-35605361Y-11467610D01*
X-35605366Y-11467610D01*
X-35642217Y-11473447D01*
X-35695304Y-11481854D01*
X-35718380Y-11493612D01*
X-35801403Y-11535914D01*
X-35801405Y-11535915D01*
X-35808342Y-11539450D01*
X-35898050Y-11629158D01*
X-35901585Y-11636095D01*
X-35901586Y-11636097D01*
X-35936033Y-11703704D01*
X-35955646Y-11742196D01*
X-35956865Y-11749890D01*
X-35956865Y-11749891D01*
X-35969116Y-11827244D01*
X-35970500Y-11835981D01*
X-36419501Y-11835981D01*
X-36420145Y-11831912D01*
X-36428149Y-11781375D01*
X-36434354Y-11742196D01*
X-36471469Y-11669354D01*
X-36488414Y-11636097D01*
X-36488415Y-11636095D01*
X-36491950Y-11629158D01*
X-36581658Y-11539450D01*
X-36581481Y-11539273D01*
X-36614655Y-11493612D01*
X-36619500Y-11463019D01*
X-36619500Y-9664428D01*
X-36608710Y-9619483D01*
X-36557890Y-9519744D01*
X-36557890Y-9519743D01*
X-36554354Y-9512804D01*
X-36550651Y-9489428D01*
X-36540109Y-9422865D01*
X-36540109Y-9422863D01*
X-36539500Y-9419019D01*
X-36539501Y-9119402D01*
X-36520594Y-9061212D01*
X-36510505Y-9049398D01*
X-36259504Y-8798397D01*
X-36204987Y-8770620D01*
X-36144555Y-8780191D01*
X-36101290Y-8823456D01*
X-36090500Y-8868401D01*
X-36090499Y-9173666D01*
X-36090499Y-9419018D01*
X-36089890Y-9422861D01*
X-36089890Y-9422866D01*
X-36084053Y-9459717D01*
X-36075646Y-9512804D01*
X-36018050Y-9625842D01*
X-35928342Y-9715550D01*
X-35921405Y-9719085D01*
X-35921403Y-9719086D01*
X-35824556Y-9768432D01*
X-35815304Y-9773146D01*
X-35807610Y-9774365D01*
X-35807609Y-9774365D01*
X-35725365Y-9787391D01*
X-35725363Y-9787391D01*
X-35721519Y-9788000D01*
X-35711997Y-9788000D01*
X-35662500Y-9801262D01*
X-35603045Y-9835588D01*
X-35518475Y-9850500D01*
X-30655834Y-9850500D01*
X-30597643Y-9869407D01*
X-30585830Y-9879496D01*
X-30468293Y-9997033D01*
X-30440516Y-10051550D01*
X-30440144Y-10079955D01*
X-30450682Y-10160000D01*
X-30449835Y-10166434D01*
X-30448892Y-10173597D01*
X-30430044Y-10316762D01*
X-30369536Y-10462841D01*
X-30273282Y-10588282D01*
X-30147841Y-10684536D01*
X-30001762Y-10745044D01*
X-29845000Y-10765682D01*
X-29688238Y-10745044D01*
X-29542159Y-10684536D01*
X-29416718Y-10588282D01*
X-29320464Y-10462841D01*
X-29259956Y-10316762D01*
X-29241108Y-10173597D01*
X-29240165Y-10166434D01*
X-29239318Y-10160000D01*
X-29259956Y-10003238D01*
X-29320464Y-9857159D01*
X-29416718Y-9731718D01*
X-29542159Y-9635464D01*
X-29659954Y-9586671D01*
X-29682241Y-9577440D01*
X-29688238Y-9574956D01*
X-29845000Y-9554318D01*
X-29925042Y-9564856D01*
X-29985201Y-9553706D01*
X-30007967Y-9536707D01*
X-30236731Y-9307943D01*
X-30242566Y-9301575D01*
X-30244022Y-9299840D01*
X-9770000Y-9299840D01*
X-9769052Y-9309462D01*
X-9760298Y-9353474D01*
X-9752979Y-9371142D01*
X-9719611Y-9421082D01*
X-9706082Y-9434611D01*
X-9656142Y-9467979D01*
X-9638474Y-9475298D01*
X-9594462Y-9484052D01*
X-9584840Y-9485000D01*
X-9389680Y-9485000D01*
X-9376995Y-9480878D01*
X-9374000Y-9476757D01*
X-9374000Y-8904680D01*
X-9378122Y-8891995D01*
X-9382243Y-8889000D01*
X-9754320Y-8889000D01*
X-9767005Y-8893122D01*
X-9770000Y-8897243D01*
X-9770000Y-9299840D01*
X-30244022Y-9299840D01*
X-30249034Y-9293867D01*
X-30267545Y-9271806D01*
X-30301208Y-9252371D01*
X-30308489Y-9247732D01*
X-30318889Y-9240450D01*
X-30340316Y-9225446D01*
X-30348684Y-9223204D01*
X-30353971Y-9220738D01*
X-30359456Y-9218742D01*
X-30366955Y-9214412D01*
X-30375481Y-9212909D01*
X-30375483Y-9212908D01*
X-30405216Y-9207666D01*
X-30413651Y-9205796D01*
X-30442826Y-9197978D01*
X-30451193Y-9195736D01*
X-30459822Y-9196491D01*
X-30489905Y-9199123D01*
X-30498534Y-9199500D01*
X-34790500Y-9199500D01*
X-34848691Y-9180593D01*
X-34884655Y-9131093D01*
X-34889500Y-9100500D01*
X-34889501Y-8809876D01*
X-34889501Y-8805982D01*
X-34893585Y-8780191D01*
X-34899091Y-8745431D01*
X-34904354Y-8712196D01*
X-34936251Y-8649595D01*
X-34958414Y-8606097D01*
X-34958415Y-8606095D01*
X-34961950Y-8599158D01*
X-35051658Y-8509450D01*
X-35058595Y-8505915D01*
X-35058597Y-8505914D01*
X-35157756Y-8455390D01*
X-35157757Y-8455390D01*
X-35164696Y-8451854D01*
X-35172390Y-8450635D01*
X-35172391Y-8450635D01*
X-35254635Y-8437609D01*
X-35254637Y-8437609D01*
X-35258481Y-8437000D01*
X-35285665Y-8437000D01*
X-35659100Y-8437001D01*
X-35717291Y-8418094D01*
X-35753255Y-8368594D01*
X-35753255Y-8365320D01*
X-9770000Y-8365320D01*
X-9765878Y-8378005D01*
X-9761757Y-8381000D01*
X-9389680Y-8381000D01*
X-9376995Y-8376878D01*
X-9374000Y-8372757D01*
X-9374000Y-7800680D01*
X-9378122Y-7787995D01*
X-9382243Y-7785000D01*
X-9584840Y-7785000D01*
X-9594462Y-7785948D01*
X-9638474Y-7794702D01*
X-9656142Y-7802021D01*
X-9706082Y-7835389D01*
X-9719611Y-7848918D01*
X-9752979Y-7898858D01*
X-9760298Y-7916526D01*
X-9769052Y-7960538D01*
X-9770000Y-7970160D01*
X-9770000Y-8365320D01*
X-35753255Y-8365320D01*
X-35753255Y-8307409D01*
X-35729104Y-8267997D01*
X-34875603Y-7414496D01*
X-34821086Y-7386719D01*
X-34805599Y-7385500D01*
X-34785873Y-7385500D01*
X-34727682Y-7404407D01*
X-34720167Y-7410825D01*
X-34718282Y-7413282D01*
X-34592841Y-7509536D01*
X-34446762Y-7570044D01*
X-34290000Y-7590682D01*
X-34133238Y-7570044D01*
X-33987159Y-7509536D01*
X-33861718Y-7413282D01*
X-33765464Y-7287841D01*
X-33704956Y-7141762D01*
X-33684318Y-6985000D01*
X-33704956Y-6828238D01*
X-33765464Y-6682159D01*
X-33861718Y-6556718D01*
X-33987159Y-6460464D01*
X-34133238Y-6399956D01*
X-34290000Y-6379318D01*
X-34446762Y-6399956D01*
X-34592841Y-6460464D01*
X-34718282Y-6556718D01*
X-34718301Y-6556743D01*
X-34770386Y-6583281D01*
X-34785873Y-6584500D01*
X-35075933Y-6584500D01*
X-35098880Y-6591956D01*
X-35113981Y-6595581D01*
X-35130109Y-6598135D01*
X-35130111Y-6598136D01*
X-35137804Y-6599354D01*
X-35159299Y-6610306D01*
X-35173645Y-6616249D01*
X-35189180Y-6621296D01*
X-35189184Y-6621298D01*
X-35196589Y-6623704D01*
X-35216110Y-6637887D01*
X-35229349Y-6645999D01*
X-35243903Y-6653414D01*
X-35243905Y-6653416D01*
X-35250842Y-6656950D01*
X-35273405Y-6679513D01*
X-35273409Y-6679516D01*
X-37001897Y-8408004D01*
X-37056414Y-8435781D01*
X-37071901Y-8437000D01*
X-37341978Y-8437001D01*
X-37371518Y-8437001D01*
X-37375361Y-8437610D01*
X-37375366Y-8437610D01*
X-37412217Y-8443447D01*
X-37465304Y-8451854D01*
X-37521823Y-8480652D01*
X-37571403Y-8505914D01*
X-37571405Y-8505915D01*
X-37578342Y-8509450D01*
X-37668050Y-8599158D01*
X-37671585Y-8606095D01*
X-37671586Y-8606097D01*
X-37722110Y-8705256D01*
X-37725646Y-8712196D01*
X-37726865Y-8719890D01*
X-37726865Y-8719891D01*
X-37736415Y-8780191D01*
X-37740500Y-8805981D01*
X-37740499Y-9419018D01*
X-37739890Y-9422861D01*
X-37739890Y-9422866D01*
X-37734053Y-9459717D01*
X-37725646Y-9512804D01*
X-37668050Y-9625842D01*
X-37578342Y-9715550D01*
X-37571405Y-9719085D01*
X-37571403Y-9719086D01*
X-37521147Y-9744693D01*
X-37474554Y-9768433D01*
X-37431290Y-9811697D01*
X-37420500Y-9856642D01*
X-37420500Y-11463019D01*
X-37439407Y-11521210D01*
X-37456925Y-11538728D01*
X-37458342Y-11539450D01*
X-37548050Y-11629158D01*
X-37551585Y-11636095D01*
X-37551586Y-11636097D01*
X-37586033Y-11703704D01*
X-37605646Y-11742196D01*
X-37606865Y-11749890D01*
X-37606865Y-11749891D01*
X-37610206Y-11770987D01*
X-37637983Y-11825503D01*
X-37692500Y-11853281D01*
X-37707987Y-11854500D01*
X-38933019Y-11854500D01*
X-38991210Y-11835593D01*
X-39008728Y-11818075D01*
X-39009450Y-11816658D01*
X-39099158Y-11726950D01*
X-39106095Y-11723415D01*
X-39106097Y-11723414D01*
X-39205256Y-11672890D01*
X-39205257Y-11672890D01*
X-39212196Y-11669354D01*
X-39219890Y-11668135D01*
X-39219891Y-11668135D01*
X-39302135Y-11655109D01*
X-39302137Y-11655109D01*
X-39305981Y-11654500D01*
X-39612460Y-11654500D01*
X-39919018Y-11654501D01*
X-39922861Y-11655110D01*
X-39922866Y-11655110D01*
X-39959717Y-11660947D01*
X-40012804Y-11669354D01*
X-40060866Y-11693843D01*
X-40118903Y-11723414D01*
X-40118905Y-11723415D01*
X-40125842Y-11726950D01*
X-40215550Y-11816658D01*
X-40215727Y-11816481D01*
X-40261388Y-11849655D01*
X-40291981Y-11854500D01*
X-40878099Y-11854500D01*
X-40936290Y-11835593D01*
X-40948103Y-11825504D01*
X-41529600Y-11244007D01*
X-41557377Y-11189490D01*
X-41553535Y-11142754D01*
X-41517176Y-11033454D01*
X-41517176Y-11033452D01*
X-41515649Y-11028863D01*
X-41489829Y-10824474D01*
X-41489417Y-10795000D01*
X-41491333Y-10775454D01*
X-41509048Y-10594780D01*
X-41509049Y-10594776D01*
X-41509520Y-10589970D01*
X-41569065Y-10392749D01*
X-41665782Y-10210849D01*
X-41795989Y-10051200D01*
X-41861214Y-9997241D01*
X-41950998Y-9922965D01*
X-41951000Y-9922964D01*
X-41954725Y-9919882D01*
X-42135945Y-9821897D01*
X-42202603Y-9801263D01*
X-42328125Y-9762407D01*
X-42328129Y-9762406D01*
X-42332746Y-9760977D01*
X-42337554Y-9760472D01*
X-42337557Y-9760471D01*
X-42532815Y-9739949D01*
X-42532817Y-9739949D01*
X-42537631Y-9739443D01*
X-42597646Y-9744905D01*
X-42737978Y-9757675D01*
X-42737983Y-9757676D01*
X-42742797Y-9758114D01*
X-42940428Y-9816280D01*
X-42944712Y-9818519D01*
X-42944713Y-9818520D01*
X-43004450Y-9849750D01*
X-43122998Y-9911726D01*
X-43126769Y-9914758D01*
X-43279780Y-10037781D01*
X-43279783Y-10037783D01*
X-43283553Y-10040815D01*
X-43286667Y-10044526D01*
X-43286668Y-10044527D01*
X-43388960Y-10166434D01*
X-43415976Y-10198630D01*
X-43418311Y-10202878D01*
X-43418312Y-10202879D01*
X-43425045Y-10215126D01*
X-43515224Y-10379162D01*
X-43516687Y-10383775D01*
X-43516689Y-10383779D01*
X-43543402Y-10467990D01*
X-43577516Y-10575532D01*
X-43578056Y-10580344D01*
X-43578056Y-10580345D01*
X-43580470Y-10601871D01*
X-43600480Y-10780262D01*
X-45519500Y-10780262D01*
X-45519500Y-9124748D01*
X-43595500Y-9124748D01*
X-43583867Y-9183231D01*
X-43539552Y-9249552D01*
X-43473231Y-9293867D01*
X-43463668Y-9295769D01*
X-43463666Y-9295770D01*
X-43440995Y-9300279D01*
X-43414748Y-9305500D01*
X-41675252Y-9305500D01*
X-41649005Y-9300279D01*
X-41626334Y-9295770D01*
X-41626332Y-9295769D01*
X-41616769Y-9293867D01*
X-41550448Y-9249552D01*
X-41506133Y-9183231D01*
X-41494500Y-9124748D01*
X-41494500Y-8679500D01*
X-41475593Y-8621309D01*
X-41426093Y-8585345D01*
X-41395500Y-8580500D01*
X-40376614Y-8580500D01*
X-40318423Y-8599407D01*
X-40282459Y-8648907D01*
X-40278833Y-8664013D01*
X-40264719Y-8753126D01*
X-40261183Y-8760065D01*
X-40261183Y-8760066D01*
X-40235803Y-8809876D01*
X-40203528Y-8873220D01*
X-40108220Y-8968528D01*
X-40101283Y-8972063D01*
X-40101281Y-8972064D01*
X-39992055Y-9027717D01*
X-39948790Y-9070982D01*
X-39938000Y-9115927D01*
X-39938000Y-9924403D01*
X-39956907Y-9982594D01*
X-40006027Y-10018281D01*
X-40012804Y-10019354D01*
X-40048969Y-10037781D01*
X-40118903Y-10073414D01*
X-40118905Y-10073415D01*
X-40125842Y-10076950D01*
X-40215550Y-10166658D01*
X-40219085Y-10173595D01*
X-40219086Y-10173597D01*
X-40248253Y-10230841D01*
X-40273146Y-10279696D01*
X-40274365Y-10287390D01*
X-40274365Y-10287391D01*
X-40286435Y-10363602D01*
X-40288000Y-10373481D01*
X-40287999Y-10836518D01*
X-40287390Y-10840361D01*
X-40287390Y-10840366D01*
X-40281956Y-10874674D01*
X-40273146Y-10930304D01*
X-40244995Y-10985553D01*
X-40220588Y-11033454D01*
X-40215550Y-11043342D01*
X-40125842Y-11133050D01*
X-40118905Y-11136585D01*
X-40118903Y-11136586D01*
X-40042871Y-11175326D01*
X-40012804Y-11190646D01*
X-40005110Y-11191865D01*
X-40005109Y-11191865D01*
X-39922865Y-11204891D01*
X-39922863Y-11204891D01*
X-39919019Y-11205500D01*
X-39612540Y-11205500D01*
X-39305982Y-11205499D01*
X-39302139Y-11204890D01*
X-39302134Y-11204890D01*
X-39265283Y-11199053D01*
X-39212196Y-11190646D01*
X-39118203Y-11142754D01*
X-39106097Y-11136586D01*
X-39106095Y-11136585D01*
X-39099158Y-11133050D01*
X-39009450Y-11043342D01*
X-39004411Y-11033454D01*
X-38955390Y-10937244D01*
X-38955390Y-10937243D01*
X-38951854Y-10930304D01*
X-38937000Y-10836519D01*
X-38937001Y-10373482D01*
X-38938565Y-10363602D01*
X-38945984Y-10316762D01*
X-38951854Y-10279696D01*
X-39009450Y-10166658D01*
X-39099158Y-10076950D01*
X-39106095Y-10073415D01*
X-39106097Y-10073414D01*
X-39176031Y-10037781D01*
X-39212196Y-10019354D01*
X-39218973Y-10018281D01*
X-39268091Y-9982596D01*
X-39287000Y-9924403D01*
X-39287000Y-9121526D01*
X-39268093Y-9063335D01*
X-39221860Y-9029746D01*
X-39221874Y-9029719D01*
X-39221703Y-9029632D01*
X-39221702Y-9029632D01*
X-39214934Y-9026183D01*
X-39108719Y-8972064D01*
X-39108717Y-8972063D01*
X-39101780Y-8968528D01*
X-39006472Y-8873220D01*
X-38974196Y-8809876D01*
X-38948817Y-8760066D01*
X-38948817Y-8760065D01*
X-38945281Y-8753126D01*
X-38929500Y-8653488D01*
X-38929500Y-8136512D01*
X-38945281Y-8036874D01*
X-38956718Y-8014428D01*
X-39002936Y-7923719D01*
X-39002937Y-7923717D01*
X-39006472Y-7916780D01*
X-39101780Y-7821472D01*
X-39108717Y-7817937D01*
X-39108719Y-7817936D01*
X-39214934Y-7763817D01*
X-39214935Y-7763817D01*
X-39221874Y-7760281D01*
X-39229568Y-7759062D01*
X-39229569Y-7759062D01*
X-39317666Y-7745109D01*
X-39317668Y-7745109D01*
X-39321512Y-7744500D01*
X-39888488Y-7744500D01*
X-39892332Y-7745109D01*
X-39892334Y-7745109D01*
X-39980431Y-7759062D01*
X-39980432Y-7759062D01*
X-39988126Y-7760281D01*
X-39995065Y-7763817D01*
X-39995066Y-7763817D01*
X-40101281Y-7817936D01*
X-40101283Y-7817937D01*
X-40108220Y-7821472D01*
X-40187252Y-7900504D01*
X-40241769Y-7928281D01*
X-40257256Y-7929500D01*
X-41395500Y-7929500D01*
X-41453691Y-7910593D01*
X-41489655Y-7861093D01*
X-41494500Y-7830500D01*
X-41494500Y-7385252D01*
X-41506133Y-7326769D01*
X-41550448Y-7260448D01*
X-41616769Y-7216133D01*
X-41626332Y-7214231D01*
X-41626334Y-7214230D01*
X-41649005Y-7209721D01*
X-41675252Y-7204500D01*
X-43414748Y-7204500D01*
X-43440995Y-7209721D01*
X-43463666Y-7214230D01*
X-43463668Y-7214231D01*
X-43473231Y-7216133D01*
X-43539552Y-7260448D01*
X-43583867Y-7326769D01*
X-43595500Y-7385252D01*
X-43595500Y-9124748D01*
X-45519500Y-9124748D01*
X-45519500Y-7106492D01*
X-40279453Y-7106492D01*
X-40279390Y-7107298D01*
X-40265456Y-7195275D01*
X-40260702Y-7209908D01*
X-40206654Y-7315984D01*
X-40197612Y-7328429D01*
X-40113429Y-7412612D01*
X-40100984Y-7421654D01*
X-39994909Y-7475702D01*
X-39980274Y-7480457D01*
X-39892297Y-7494391D01*
X-39884558Y-7495000D01*
X-39874680Y-7495000D01*
X-39861995Y-7490878D01*
X-39859000Y-7486757D01*
X-39859000Y-7479319D01*
X-39351000Y-7479319D01*
X-39346878Y-7492004D01*
X-39342757Y-7494999D01*
X-39325444Y-7494999D01*
X-39317702Y-7494390D01*
X-39229725Y-7480456D01*
X-39215092Y-7475702D01*
X-39109016Y-7421654D01*
X-39096571Y-7412612D01*
X-39012388Y-7328429D01*
X-39003346Y-7315984D01*
X-38949298Y-7209909D01*
X-38944543Y-7195274D01*
X-38931196Y-7111000D01*
X-38934122Y-7101995D01*
X-38938243Y-7099000D01*
X-39335320Y-7099000D01*
X-39348005Y-7103122D01*
X-39351000Y-7107243D01*
X-39351000Y-7479319D01*
X-39859000Y-7479319D01*
X-39859000Y-7114680D01*
X-39863122Y-7101995D01*
X-39867243Y-7099000D01*
X-40264319Y-7099000D01*
X-40277004Y-7103122D01*
X-40279453Y-7106492D01*
X-45519500Y-7106492D01*
X-45519500Y-6579000D01*
X-40278804Y-6579000D01*
X-40275878Y-6588005D01*
X-40271757Y-6591000D01*
X-39874680Y-6591000D01*
X-39861995Y-6586878D01*
X-39859000Y-6582757D01*
X-39859000Y-6575320D01*
X-39351000Y-6575320D01*
X-39346878Y-6588005D01*
X-39342757Y-6591000D01*
X-38945681Y-6591000D01*
X-38932996Y-6586878D01*
X-38930547Y-6583508D01*
X-38930610Y-6582702D01*
X-38944544Y-6494725D01*
X-38949298Y-6480092D01*
X-39003346Y-6374016D01*
X-39012388Y-6361571D01*
X-39096571Y-6277388D01*
X-39109016Y-6268346D01*
X-39215091Y-6214298D01*
X-39229726Y-6209543D01*
X-39317703Y-6195609D01*
X-39325442Y-6195000D01*
X-39335320Y-6195000D01*
X-39348005Y-6199122D01*
X-39351000Y-6203243D01*
X-39351000Y-6575320D01*
X-39859000Y-6575320D01*
X-39859000Y-6210681D01*
X-39863122Y-6197996D01*
X-39867243Y-6195001D01*
X-39884556Y-6195001D01*
X-39892298Y-6195610D01*
X-39980275Y-6209544D01*
X-39994908Y-6214298D01*
X-40100984Y-6268346D01*
X-40113429Y-6277388D01*
X-40197612Y-6361571D01*
X-40206654Y-6374016D01*
X-40260702Y-6480091D01*
X-40265457Y-6494726D01*
X-40278804Y-6579000D01*
X-45519500Y-6579000D01*
X-45519500Y-5930000D01*
X-28597777Y-5930000D01*
X-28578707Y-6147977D01*
X-28577588Y-6152152D01*
X-28577588Y-6152154D01*
X-28560936Y-6214298D01*
X-28522075Y-6359330D01*
X-28429602Y-6557638D01*
X-28304098Y-6736877D01*
X-28149377Y-6891598D01*
X-27970139Y-7017102D01*
X-27771830Y-7109575D01*
X-27685280Y-7132766D01*
X-27564654Y-7165088D01*
X-27564652Y-7165088D01*
X-27560477Y-7166207D01*
X-27342500Y-7185277D01*
X-27124523Y-7166207D01*
X-27120348Y-7165088D01*
X-27120346Y-7165088D01*
X-26999720Y-7132766D01*
X-26913170Y-7109575D01*
X-26714861Y-7017102D01*
X-26535623Y-6891598D01*
X-26380902Y-6736877D01*
X-26255398Y-6557638D01*
X-26162925Y-6359330D01*
X-26124064Y-6214298D01*
X-26107412Y-6152154D01*
X-26107412Y-6152152D01*
X-26106293Y-6147977D01*
X-26087223Y-5930000D01*
X-18597777Y-5930000D01*
X-18578707Y-6147977D01*
X-18577588Y-6152152D01*
X-18577588Y-6152154D01*
X-18560936Y-6214298D01*
X-18522075Y-6359330D01*
X-18429602Y-6557638D01*
X-18304098Y-6736877D01*
X-18149377Y-6891598D01*
X-17970139Y-7017102D01*
X-17771830Y-7109575D01*
X-17685280Y-7132766D01*
X-17564654Y-7165088D01*
X-17564652Y-7165088D01*
X-17560477Y-7166207D01*
X-17342500Y-7185277D01*
X-17124523Y-7166207D01*
X-17120348Y-7165088D01*
X-17120346Y-7165088D01*
X-16999720Y-7132766D01*
X-16913170Y-7109575D01*
X-16714861Y-7017102D01*
X-16535623Y-6891598D01*
X-16380902Y-6736877D01*
X-16255398Y-6557638D01*
X-16162925Y-6359330D01*
X-16124064Y-6214298D01*
X-16107412Y-6152154D01*
X-16107412Y-6152152D01*
X-16106293Y-6147977D01*
X-16087223Y-5930000D01*
X-16106293Y-5712023D01*
X-16162925Y-5500670D01*
X-16255398Y-5302362D01*
X-16380902Y-5123123D01*
X-16535623Y-4968402D01*
X-16714861Y-4842898D01*
X-16913170Y-4750425D01*
X-16999720Y-4727234D01*
X-17120346Y-4694912D01*
X-17120348Y-4694912D01*
X-17124523Y-4693793D01*
X-17342500Y-4674723D01*
X-17560477Y-4693793D01*
X-17564652Y-4694912D01*
X-17564654Y-4694912D01*
X-17685280Y-4727234D01*
X-17771830Y-4750425D01*
X-17970138Y-4842898D01*
X-18149377Y-4968402D01*
X-18304098Y-5123123D01*
X-18429602Y-5302362D01*
X-18522075Y-5500670D01*
X-18578707Y-5712023D01*
X-18597777Y-5930000D01*
X-26087223Y-5930000D01*
X-26106293Y-5712023D01*
X-26162925Y-5500670D01*
X-26255398Y-5302362D01*
X-26380902Y-5123123D01*
X-26535623Y-4968402D01*
X-26714861Y-4842898D01*
X-26913170Y-4750425D01*
X-26999720Y-4727234D01*
X-27120346Y-4694912D01*
X-27120348Y-4694912D01*
X-27124523Y-4693793D01*
X-27342500Y-4674723D01*
X-27560477Y-4693793D01*
X-27564652Y-4694912D01*
X-27564654Y-4694912D01*
X-27685280Y-4727234D01*
X-27771830Y-4750425D01*
X-27970138Y-4842898D01*
X-28149377Y-4968402D01*
X-28304098Y-5123123D01*
X-28429602Y-5302362D01*
X-28522075Y-5500670D01*
X-28578707Y-5712023D01*
X-28597777Y-5930000D01*
X-45519500Y-5930000D01*
X-45519500Y-299500D01*
X-45500593Y-241309D01*
X-45451093Y-205345D01*
X-45420500Y-200500D01*
X-299500Y-200500D01*
X-241309Y-219407D01*
G37*
G04 #@! TD.AperFunction*
G04 #@! TD*
M02*
