G04 #@! TF.GenerationSoftware,KiCad,Pcbnew,(6.0.10)*
G04 #@! TF.CreationDate,2023-01-20T12:59:50-05:00*
G04 #@! TF.ProjectId,at2xt,61743278-742e-46b6-9963-61645f706362,rev?*
G04 #@! TF.SameCoordinates,PX9fdfbc0PY31a8670*
G04 #@! TF.FileFunction,Legend,Top*
G04 #@! TF.FilePolarity,Positive*
%FSLAX46Y46*%
G04 Gerber Fmt 4.6, Leading zero omitted, Abs format (unit mm)*
G04 Created by KiCad (PCBNEW (6.0.10)) date 2023-01-20 12:59:50*
%MOMM*%
%LPD*%
G01*
G04 APERTURE LIST*
G04 Aperture macros list*
%AMRoundRect*
0 Rectangle with rounded corners*
0 $1 Rounding radius*
0 $2 $3 $4 $5 $6 $7 $8 $9 X,Y pos of 4 corners*
0 Add a 4 corners polygon primitive as box body*
4,1,4,$2,$3,$4,$5,$6,$7,$8,$9,$2,$3,0*
0 Add four circle primitives for the rounded corners*
1,1,$1+$1,$2,$3*
1,1,$1+$1,$4,$5*
1,1,$1+$1,$6,$7*
1,1,$1+$1,$8,$9*
0 Add four rect primitives between the rounded corners*
20,1,$1+$1,$2,$3,$4,$5,0*
20,1,$1+$1,$4,$5,$6,$7,0*
20,1,$1+$1,$6,$7,$8,$9,0*
20,1,$1+$1,$8,$9,$2,$3,0*%
%AMFreePoly0*
4,1,9,3.862500,-0.866500,0.737500,-0.866500,0.737500,-0.450000,-0.737500,-0.450000,-0.737500,0.450000,0.737500,0.450000,0.737500,0.866500,3.862500,0.866500,3.862500,-0.866500,3.862500,-0.866500,$1*%
G04 Aperture macros list end*
%ADD10C,0.150000*%
%ADD11C,0.120000*%
%ADD12R,0.900000X1.300000*%
%ADD13FreePoly0,90.000000*%
%ADD14C,2.100000*%
%ADD15C,3.900000*%
%ADD16C,1.650000*%
%ADD17RoundRect,0.100000X-0.637500X-0.100000X0.637500X-0.100000X0.637500X0.100000X-0.637500X0.100000X0*%
%ADD18RoundRect,0.200000X-0.200000X-0.275000X0.200000X-0.275000X0.200000X0.275000X-0.200000X0.275000X0*%
%ADD19RoundRect,0.200000X0.275000X-0.200000X0.275000X0.200000X-0.275000X0.200000X-0.275000X-0.200000X0*%
%ADD20R,1.700000X1.700000*%
%ADD21O,1.700000X1.700000*%
%ADD22RoundRect,0.225000X-0.225000X-0.250000X0.225000X-0.250000X0.225000X0.250000X-0.225000X0.250000X0*%
%ADD23RoundRect,0.225000X0.250000X-0.225000X0.250000X0.225000X-0.250000X0.225000X-0.250000X-0.225000X0*%
G04 APERTURE END LIST*
D10*
G04 #@! TO.C,U1*
X-11342620Y-7446904D02*
X-10533096Y-7446904D01*
X-10437858Y-7399285D01*
X-10390239Y-7351666D01*
X-10342620Y-7256428D01*
X-10342620Y-7065952D01*
X-10390239Y-6970714D01*
X-10437858Y-6923095D01*
X-10533096Y-6875476D01*
X-11342620Y-6875476D01*
X-10342620Y-5875476D02*
X-10342620Y-6446904D01*
X-10342620Y-6161190D02*
X-11342620Y-6161190D01*
X-11199762Y-6256428D01*
X-11104524Y-6351666D01*
X-11056905Y-6446904D01*
G04 #@! TO.C,J3*
X-35893334Y-37882380D02*
X-35893334Y-38596666D01*
X-35940953Y-38739523D01*
X-36036191Y-38834761D01*
X-36179048Y-38882380D01*
X-36274286Y-38882380D01*
X-35512381Y-37882380D02*
X-34893334Y-37882380D01*
X-35226667Y-38263333D01*
X-35083810Y-38263333D01*
X-34988572Y-38310952D01*
X-34940953Y-38358571D01*
X-34893334Y-38453809D01*
X-34893334Y-38691904D01*
X-34940953Y-38787142D01*
X-34988572Y-38834761D01*
X-35083810Y-38882380D01*
X-35369524Y-38882380D01*
X-35464762Y-38834761D01*
X-35512381Y-38787142D01*
X-31099048Y-38596666D02*
X-30622858Y-38596666D01*
X-31194286Y-38882380D02*
X-30860953Y-37882380D01*
X-30527620Y-38882380D01*
X-30337143Y-37882380D02*
X-29765715Y-37882380D01*
X-30051429Y-38882380D02*
X-30051429Y-37882380D01*
G04 #@! TO.C,J2*
X-25215834Y-722380D02*
X-25215834Y-1436666D01*
X-25263453Y-1579523D01*
X-25358691Y-1674761D01*
X-25501548Y-1722380D01*
X-25596786Y-1722380D01*
X-24787262Y-817619D02*
X-24739643Y-770000D01*
X-24644405Y-722380D01*
X-24406310Y-722380D01*
X-24311072Y-770000D01*
X-24263453Y-817619D01*
X-24215834Y-912857D01*
X-24215834Y-1008095D01*
X-24263453Y-1150952D01*
X-24834881Y-1722380D01*
X-24215834Y-1722380D01*
X-20516786Y-722380D02*
X-19850120Y-1722380D01*
X-19850120Y-722380D02*
X-20516786Y-1722380D01*
X-19612024Y-722380D02*
X-19040596Y-722380D01*
X-19326310Y-1722380D02*
X-19326310Y-722380D01*
G04 #@! TO.C,J4*
X-15803334Y-37842380D02*
X-15803334Y-38556666D01*
X-15850953Y-38699523D01*
X-15946191Y-38794761D01*
X-16089048Y-38842380D01*
X-16184286Y-38842380D01*
X-14898572Y-38175714D02*
X-14898572Y-38842380D01*
X-15136667Y-37794761D02*
X-15374762Y-38509047D01*
X-14755715Y-38509047D01*
X-9588096Y-38842380D02*
X-9588096Y-37842380D01*
X-9207143Y-37842380D01*
X-9111905Y-37890000D01*
X-9064286Y-37937619D01*
X-9016667Y-38032857D01*
X-9016667Y-38175714D01*
X-9064286Y-38270952D01*
X-9111905Y-38318571D01*
X-9207143Y-38366190D01*
X-9588096Y-38366190D01*
X-8635715Y-38794761D02*
X-8492858Y-38842380D01*
X-8254762Y-38842380D01*
X-8159524Y-38794761D01*
X-8111905Y-38747142D01*
X-8064286Y-38651904D01*
X-8064286Y-38556666D01*
X-8111905Y-38461428D01*
X-8159524Y-38413809D01*
X-8254762Y-38366190D01*
X-8445239Y-38318571D01*
X-8540477Y-38270952D01*
X-8588096Y-38223333D01*
X-8635715Y-38128095D01*
X-8635715Y-38032857D01*
X-8588096Y-37937619D01*
X-8540477Y-37890000D01*
X-8445239Y-37842380D01*
X-8207143Y-37842380D01*
X-8064286Y-37890000D01*
X-6921429Y-37794761D02*
X-7778572Y-39080476D01*
X-6635715Y-37937619D02*
X-6588096Y-37890000D01*
X-6492858Y-37842380D01*
X-6254762Y-37842380D01*
X-6159524Y-37890000D01*
X-6111905Y-37937619D01*
X-6064286Y-38032857D01*
X-6064286Y-38128095D01*
X-6111905Y-38270952D01*
X-6683334Y-38842380D01*
X-6064286Y-38842380D01*
G04 #@! TO.C,U2*
X-2031905Y-15962380D02*
X-2031905Y-16771904D01*
X-1984286Y-16867142D01*
X-1936667Y-16914761D01*
X-1841429Y-16962380D01*
X-1650953Y-16962380D01*
X-1555715Y-16914761D01*
X-1508096Y-16867142D01*
X-1460477Y-16771904D01*
X-1460477Y-15962380D01*
X-1031905Y-16057619D02*
X-984286Y-16010000D01*
X-889048Y-15962380D01*
X-650953Y-15962380D01*
X-555715Y-16010000D01*
X-508096Y-16057619D01*
X-460477Y-16152857D01*
X-460477Y-16248095D01*
X-508096Y-16390952D01*
X-1079524Y-16962380D01*
X-460477Y-16962380D01*
G04 #@! TO.C,R5*
X-36171667Y-17214880D02*
X-36505000Y-16738690D01*
X-36743096Y-17214880D02*
X-36743096Y-16214880D01*
X-36362143Y-16214880D01*
X-36266905Y-16262500D01*
X-36219286Y-16310119D01*
X-36171667Y-16405357D01*
X-36171667Y-16548214D01*
X-36219286Y-16643452D01*
X-36266905Y-16691071D01*
X-36362143Y-16738690D01*
X-36743096Y-16738690D01*
X-35266905Y-16214880D02*
X-35743096Y-16214880D01*
X-35790715Y-16691071D01*
X-35743096Y-16643452D01*
X-35647858Y-16595833D01*
X-35409762Y-16595833D01*
X-35314524Y-16643452D01*
X-35266905Y-16691071D01*
X-35219286Y-16786309D01*
X-35219286Y-17024404D01*
X-35266905Y-17119642D01*
X-35314524Y-17167261D01*
X-35409762Y-17214880D01*
X-35647858Y-17214880D01*
X-35743096Y-17167261D01*
X-35790715Y-17119642D01*
G04 #@! TO.C,R4*
X-36361667Y-11164880D02*
X-36695000Y-10688690D01*
X-36933096Y-11164880D02*
X-36933096Y-10164880D01*
X-36552143Y-10164880D01*
X-36456905Y-10212500D01*
X-36409286Y-10260119D01*
X-36361667Y-10355357D01*
X-36361667Y-10498214D01*
X-36409286Y-10593452D01*
X-36456905Y-10641071D01*
X-36552143Y-10688690D01*
X-36933096Y-10688690D01*
X-35504524Y-10498214D02*
X-35504524Y-11164880D01*
X-35742620Y-10117261D02*
X-35980715Y-10831547D01*
X-35361667Y-10831547D01*
G04 #@! TO.C,R3*
X-36481667Y-8134880D02*
X-36815000Y-7658690D01*
X-37053096Y-8134880D02*
X-37053096Y-7134880D01*
X-36672143Y-7134880D01*
X-36576905Y-7182500D01*
X-36529286Y-7230119D01*
X-36481667Y-7325357D01*
X-36481667Y-7468214D01*
X-36529286Y-7563452D01*
X-36576905Y-7611071D01*
X-36672143Y-7658690D01*
X-37053096Y-7658690D01*
X-36148334Y-7134880D02*
X-35529286Y-7134880D01*
X-35862620Y-7515833D01*
X-35719762Y-7515833D01*
X-35624524Y-7563452D01*
X-35576905Y-7611071D01*
X-35529286Y-7706309D01*
X-35529286Y-7944404D01*
X-35576905Y-8039642D01*
X-35624524Y-8087261D01*
X-35719762Y-8134880D01*
X-36005477Y-8134880D01*
X-36100715Y-8087261D01*
X-36148334Y-8039642D01*
G04 #@! TO.C,R2*
X-36361667Y-14262380D02*
X-36695000Y-13786190D01*
X-36933096Y-14262380D02*
X-36933096Y-13262380D01*
X-36552143Y-13262380D01*
X-36456905Y-13310000D01*
X-36409286Y-13357619D01*
X-36361667Y-13452857D01*
X-36361667Y-13595714D01*
X-36409286Y-13690952D01*
X-36456905Y-13738571D01*
X-36552143Y-13786190D01*
X-36933096Y-13786190D01*
X-35980715Y-13357619D02*
X-35933096Y-13310000D01*
X-35837858Y-13262380D01*
X-35599762Y-13262380D01*
X-35504524Y-13310000D01*
X-35456905Y-13357619D01*
X-35409286Y-13452857D01*
X-35409286Y-13548095D01*
X-35456905Y-13690952D01*
X-36028334Y-14262380D01*
X-35409286Y-14262380D01*
G04 #@! TO.C,R1*
X-37890120Y-11596666D02*
X-38366310Y-11930000D01*
X-37890120Y-12168095D02*
X-38890120Y-12168095D01*
X-38890120Y-11787142D01*
X-38842500Y-11691904D01*
X-38794881Y-11644285D01*
X-38699643Y-11596666D01*
X-38556786Y-11596666D01*
X-38461548Y-11644285D01*
X-38413929Y-11691904D01*
X-38366310Y-11787142D01*
X-38366310Y-12168095D01*
X-37890120Y-10644285D02*
X-37890120Y-11215714D01*
X-37890120Y-10930000D02*
X-38890120Y-10930000D01*
X-38747262Y-11025238D01*
X-38652024Y-11120476D01*
X-38604405Y-11215714D01*
G04 #@! TO.C,J1*
X-42878334Y-5377380D02*
X-42878334Y-6091666D01*
X-42925953Y-6234523D01*
X-43021191Y-6329761D01*
X-43164048Y-6377380D01*
X-43259286Y-6377380D01*
X-41878334Y-6377380D02*
X-42449762Y-6377380D01*
X-42164048Y-6377380D02*
X-42164048Y-5377380D01*
X-42259286Y-5520238D01*
X-42354524Y-5615476D01*
X-42449762Y-5663095D01*
G04 #@! TO.C,C4*
X-4611667Y-11627142D02*
X-4659286Y-11674761D01*
X-4802143Y-11722380D01*
X-4897381Y-11722380D01*
X-5040239Y-11674761D01*
X-5135477Y-11579523D01*
X-5183096Y-11484285D01*
X-5230715Y-11293809D01*
X-5230715Y-11150952D01*
X-5183096Y-10960476D01*
X-5135477Y-10865238D01*
X-5040239Y-10770000D01*
X-4897381Y-10722380D01*
X-4802143Y-10722380D01*
X-4659286Y-10770000D01*
X-4611667Y-10817619D01*
X-3754524Y-11055714D02*
X-3754524Y-11722380D01*
X-3992620Y-10674761D02*
X-4230715Y-11389047D01*
X-3611667Y-11389047D01*
G04 #@! TO.C,C3*
X-37742858Y-7151666D02*
X-37695239Y-7199285D01*
X-37647620Y-7342142D01*
X-37647620Y-7437380D01*
X-37695239Y-7580238D01*
X-37790477Y-7675476D01*
X-37885715Y-7723095D01*
X-38076191Y-7770714D01*
X-38219048Y-7770714D01*
X-38409524Y-7723095D01*
X-38504762Y-7675476D01*
X-38600000Y-7580238D01*
X-38647620Y-7437380D01*
X-38647620Y-7342142D01*
X-38600000Y-7199285D01*
X-38552381Y-7151666D01*
X-38647620Y-6818333D02*
X-38647620Y-6199285D01*
X-38266667Y-6532619D01*
X-38266667Y-6389761D01*
X-38219048Y-6294523D01*
X-38171429Y-6246904D01*
X-38076191Y-6199285D01*
X-37838096Y-6199285D01*
X-37742858Y-6246904D01*
X-37695239Y-6294523D01*
X-37647620Y-6389761D01*
X-37647620Y-6675476D01*
X-37695239Y-6770714D01*
X-37742858Y-6818333D01*
G04 #@! TO.C,C2*
X-9056667Y-2152142D02*
X-9104286Y-2199761D01*
X-9247143Y-2247380D01*
X-9342381Y-2247380D01*
X-9485239Y-2199761D01*
X-9580477Y-2104523D01*
X-9628096Y-2009285D01*
X-9675715Y-1818809D01*
X-9675715Y-1675952D01*
X-9628096Y-1485476D01*
X-9580477Y-1390238D01*
X-9485239Y-1295000D01*
X-9342381Y-1247380D01*
X-9247143Y-1247380D01*
X-9104286Y-1295000D01*
X-9056667Y-1342619D01*
X-8675715Y-1342619D02*
X-8628096Y-1295000D01*
X-8532858Y-1247380D01*
X-8294762Y-1247380D01*
X-8199524Y-1295000D01*
X-8151905Y-1342619D01*
X-8104286Y-1437857D01*
X-8104286Y-1533095D01*
X-8151905Y-1675952D01*
X-8723334Y-2247380D01*
X-8104286Y-2247380D01*
G04 #@! TO.C,C1*
X-3341667Y-7777142D02*
X-3389286Y-7824761D01*
X-3532143Y-7872380D01*
X-3627381Y-7872380D01*
X-3770239Y-7824761D01*
X-3865477Y-7729523D01*
X-3913096Y-7634285D01*
X-3960715Y-7443809D01*
X-3960715Y-7300952D01*
X-3913096Y-7110476D01*
X-3865477Y-7015238D01*
X-3770239Y-6920000D01*
X-3627381Y-6872380D01*
X-3532143Y-6872380D01*
X-3389286Y-6920000D01*
X-3341667Y-6967619D01*
X-2389286Y-7872380D02*
X-2960715Y-7872380D01*
X-2675000Y-7872380D02*
X-2675000Y-6872380D01*
X-2770239Y-7015238D01*
X-2865477Y-7110476D01*
X-2960715Y-7158095D01*
D11*
G04 #@! TO.C,U1*
X-9980000Y-5325000D02*
X-8670000Y-5325000D01*
X-9980000Y-8045000D02*
X-9980000Y-5325000D01*
X-9980000Y-8045000D02*
X-9750000Y-8045000D01*
X-6570000Y-5325000D02*
X-5260000Y-5325000D01*
X-9750000Y-9185000D02*
X-9750000Y-8045000D01*
X-5260000Y-8045000D02*
X-5490000Y-8045000D01*
X-5260000Y-5325000D02*
X-5260000Y-8045000D01*
G04 #@! TO.C,J3*
X-22520000Y-37180000D02*
X-33395000Y-37180000D01*
X-22270000Y-24430000D02*
X-21270000Y-25430000D01*
X-43520000Y-20430000D02*
X-22520000Y-20430000D01*
X-22520000Y-20430000D02*
X-22520000Y-37180000D01*
X-43520000Y-21430000D02*
X-43520000Y-20430000D01*
X-33020000Y-37180000D02*
X-43520000Y-37180000D01*
X-43520000Y-37180000D02*
X-43520000Y-21430000D01*
X-21270000Y-23430000D02*
X-22270000Y-24430000D01*
X-21270000Y-25430000D02*
X-21270000Y-23430000D01*
G04 #@! TO.C,J2*
X-34092500Y-14430000D02*
X-34092500Y-16430000D01*
X-34092500Y-16430000D02*
X-33092500Y-15430000D01*
X-11842500Y-2680000D02*
X-11842500Y-18430000D01*
X-22342500Y-2680000D02*
X-11842500Y-2680000D01*
X-11842500Y-18430000D02*
X-11842500Y-19430000D01*
X-32842500Y-19430000D02*
X-32842500Y-2680000D01*
X-11842500Y-19430000D02*
X-32842500Y-19430000D01*
X-33092500Y-15430000D02*
X-34092500Y-14430000D01*
X-32842500Y-2680000D02*
X-21967500Y-2680000D01*
G04 #@! TO.C,J4*
X-1930000Y-21930000D02*
X-20930000Y-21930000D01*
X-1930000Y-36930000D02*
X-1930000Y-21930000D01*
X-9430000Y-20930000D02*
X-10430000Y-20930000D01*
X-20930000Y-21930000D02*
X-20930000Y-36930000D01*
X-20930000Y-36930000D02*
X-1930000Y-36930000D01*
X-10430000Y-20930000D02*
X-9930000Y-21430000D01*
X-9930000Y-21430000D02*
X-9430000Y-20930000D01*
G04 #@! TO.C,U2*
X-6350000Y-13900000D02*
X-9950000Y-13900000D01*
X-6350000Y-19120000D02*
X-8550000Y-19120000D01*
X-6350000Y-19120000D02*
X-4150000Y-19120000D01*
X-6350000Y-13900000D02*
X-4150000Y-13900000D01*
G04 #@! TO.C,R5*
X-36242258Y-17670000D02*
X-35767742Y-17670000D01*
X-36242258Y-18715000D02*
X-35767742Y-18715000D01*
G04 #@! TO.C,R4*
X-36432258Y-11620000D02*
X-35957742Y-11620000D01*
X-36432258Y-12665000D02*
X-35957742Y-12665000D01*
G04 #@! TO.C,R3*
X-36552258Y-8590000D02*
X-36077742Y-8590000D01*
X-36552258Y-9635000D02*
X-36077742Y-9635000D01*
G04 #@! TO.C,R2*
X-36432258Y-15762500D02*
X-35957742Y-15762500D01*
X-36432258Y-14717500D02*
X-35957742Y-14717500D01*
G04 #@! TO.C,R1*
X-39090000Y-11667258D02*
X-39090000Y-11192742D01*
X-40135000Y-11667258D02*
X-40135000Y-11192742D01*
G04 #@! TO.C,J1*
X-41215000Y-9525000D02*
X-41215000Y-17205000D01*
X-43875000Y-8255000D02*
X-43875000Y-6925000D01*
X-43875000Y-17205000D02*
X-41215000Y-17205000D01*
X-43875000Y-9525000D02*
X-41215000Y-9525000D01*
X-43875000Y-6925000D02*
X-42545000Y-6925000D01*
X-43875000Y-9525000D02*
X-43875000Y-17205000D01*
G04 #@! TO.C,C4*
X-6490580Y-13210000D02*
X-6209420Y-13210000D01*
X-6490580Y-12190000D02*
X-6209420Y-12190000D01*
G04 #@! TO.C,C3*
X-39095000Y-7760580D02*
X-39095000Y-7479420D01*
X-40115000Y-7760580D02*
X-40115000Y-7479420D01*
G04 #@! TO.C,C2*
X-9030580Y-4085000D02*
X-8749420Y-4085000D01*
X-9030580Y-3065000D02*
X-8749420Y-3065000D01*
G04 #@! TO.C,C1*
X-3315580Y-9360000D02*
X-3034420Y-9360000D01*
X-3315580Y-8340000D02*
X-3034420Y-8340000D01*
G04 #@! TD*
%LPC*%
D12*
G04 #@! TO.C,U1*
X-9120000Y-8635000D03*
D13*
X-7620000Y-8547500D03*
D12*
X-6120000Y-8635000D03*
G04 #@! TD*
D14*
G04 #@! TO.C,J3*
X-38020000Y-33930000D03*
X-28020000Y-33930000D03*
X-38020000Y-21930000D03*
X-28020000Y-21930000D03*
X-40520000Y-24430000D03*
X-33020000Y-24430000D03*
X-25520000Y-24430000D03*
G04 #@! TD*
G04 #@! TO.C,J2*
X-29842500Y-15430000D03*
X-22342500Y-15430000D03*
X-14842500Y-15430000D03*
X-27342500Y-17930000D03*
X-17342500Y-17930000D03*
X-27342500Y-5930000D03*
X-17342500Y-5930000D03*
G04 #@! TD*
D15*
G04 #@! TO.C,J4*
X-18180000Y-30430000D03*
X-11430000Y-31230000D03*
X-4680000Y-30430000D03*
D16*
X-14830000Y-24930000D03*
X-8030000Y-24930000D03*
X-14830000Y-27430000D03*
X-8030000Y-27430000D03*
X-12730000Y-27430000D03*
X-10130000Y-27430000D03*
G04 #@! TD*
D17*
G04 #@! TO.C,U2*
X-3487500Y-14560000D03*
X-3487500Y-15210000D03*
X-3487500Y-15860000D03*
X-3487500Y-16510000D03*
X-3487500Y-17160000D03*
X-3487500Y-17810000D03*
X-3487500Y-18460000D03*
X-9212500Y-18460000D03*
X-9212500Y-17810000D03*
X-9212500Y-17160000D03*
X-9212500Y-16510000D03*
X-9212500Y-15860000D03*
X-9212500Y-15210000D03*
X-9212500Y-14560000D03*
G04 #@! TD*
D18*
G04 #@! TO.C,R5*
X-35180000Y-18192500D03*
X-36830000Y-18192500D03*
G04 #@! TD*
G04 #@! TO.C,R4*
X-35370000Y-12142500D03*
X-37020000Y-12142500D03*
G04 #@! TD*
G04 #@! TO.C,R3*
X-35490000Y-9112500D03*
X-37140000Y-9112500D03*
G04 #@! TD*
G04 #@! TO.C,R2*
X-37020000Y-15240000D03*
X-35370000Y-15240000D03*
G04 #@! TD*
D19*
G04 #@! TO.C,R1*
X-39612500Y-12255000D03*
X-39612500Y-10605000D03*
G04 #@! TD*
D20*
G04 #@! TO.C,J1*
X-42545000Y-8255000D03*
D21*
X-42545000Y-10795000D03*
X-42545000Y-13335000D03*
X-42545000Y-15875000D03*
G04 #@! TD*
D22*
G04 #@! TO.C,C4*
X-7125000Y-12700000D03*
X-5575000Y-12700000D03*
G04 #@! TD*
D23*
G04 #@! TO.C,C3*
X-39605000Y-8395000D03*
X-39605000Y-6845000D03*
G04 #@! TD*
D22*
G04 #@! TO.C,C2*
X-9665000Y-3575000D03*
X-8115000Y-3575000D03*
G04 #@! TD*
G04 #@! TO.C,C1*
X-3950000Y-8850000D03*
X-2400000Y-8850000D03*
G04 #@! TD*
M02*
