G04 #@! TF.GenerationSoftware,KiCad,Pcbnew,(6.0.10)*
G04 #@! TF.CreationDate,2023-01-17T19:35:47-05:00*
G04 #@! TF.ProjectId,at2xt,61743278-742e-46b6-9963-61645f706362,rev?*
G04 #@! TF.SameCoordinates,PX9fdfbc0PY31a8670*
G04 #@! TF.FileFunction,Soldermask,Top*
G04 #@! TF.FilePolarity,Negative*
%FSLAX46Y46*%
G04 Gerber Fmt 4.6, Leading zero omitted, Abs format (unit mm)*
G04 Created by KiCad (PCBNEW (6.0.10)) date 2023-01-17 19:35:47*
%MOMM*%
%LPD*%
G01*
G04 APERTURE LIST*
G04 Aperture macros list*
%AMRoundRect*
0 Rectangle with rounded corners*
0 $1 Rounding radius*
0 $2 $3 $4 $5 $6 $7 $8 $9 X,Y pos of 4 corners*
0 Add a 4 corners polygon primitive as box body*
4,1,4,$2,$3,$4,$5,$6,$7,$8,$9,$2,$3,0*
0 Add four circle primitives for the rounded corners*
1,1,$1+$1,$2,$3*
1,1,$1+$1,$4,$5*
1,1,$1+$1,$6,$7*
1,1,$1+$1,$8,$9*
0 Add four rect primitives between the rounded corners*
20,1,$1+$1,$2,$3,$4,$5,0*
20,1,$1+$1,$4,$5,$6,$7,0*
20,1,$1+$1,$6,$7,$8,$9,0*
20,1,$1+$1,$8,$9,$2,$3,0*%
%AMFreePoly0*
4,1,9,3.862500,-0.866500,0.737500,-0.866500,0.737500,-0.450000,-0.737500,-0.450000,-0.737500,0.450000,0.737500,0.450000,0.737500,0.866500,3.862500,0.866500,3.862500,-0.866500,3.862500,-0.866500,$1*%
G04 Aperture macros list end*
%ADD10R,0.900000X1.300000*%
%ADD11FreePoly0,90.000000*%
%ADD12C,2.100000*%
%ADD13C,1.650000*%
%ADD14C,3.900000*%
%ADD15RoundRect,0.100000X-0.637500X-0.100000X0.637500X-0.100000X0.637500X0.100000X-0.637500X0.100000X0*%
%ADD16RoundRect,0.200000X-0.200000X-0.275000X0.200000X-0.275000X0.200000X0.275000X-0.200000X0.275000X0*%
%ADD17RoundRect,0.200000X0.275000X-0.200000X0.275000X0.200000X-0.275000X0.200000X-0.275000X-0.200000X0*%
%ADD18R,1.700000X1.700000*%
%ADD19O,1.700000X1.700000*%
%ADD20RoundRect,0.225000X-0.225000X-0.250000X0.225000X-0.250000X0.225000X0.250000X-0.225000X0.250000X0*%
%ADD21RoundRect,0.225000X0.250000X-0.225000X0.250000X0.225000X-0.250000X0.225000X-0.250000X-0.225000X0*%
G04 APERTURE END LIST*
D10*
G04 #@! TO.C,U1*
X-9120000Y-8635000D03*
D11*
X-7620000Y-8547500D03*
D10*
X-6120000Y-8635000D03*
G04 #@! TD*
D12*
G04 #@! TO.C,J3*
X-25520000Y-24430000D03*
X-33020000Y-24430000D03*
X-40520000Y-24430000D03*
X-28020000Y-21930000D03*
X-38020000Y-21930000D03*
X-28020000Y-33930000D03*
X-38020000Y-33930000D03*
G04 #@! TD*
G04 #@! TO.C,J2*
X-17342500Y-5930000D03*
X-27342500Y-5930000D03*
X-17342500Y-17930000D03*
X-27342500Y-17930000D03*
X-14842500Y-15430000D03*
X-22342500Y-15430000D03*
X-29842500Y-15430000D03*
G04 #@! TD*
D13*
G04 #@! TO.C,J4*
X-10130000Y-27430000D03*
X-12730000Y-27430000D03*
X-8030000Y-27430000D03*
X-14830000Y-27430000D03*
X-8030000Y-24930000D03*
X-14830000Y-24930000D03*
D14*
X-4680000Y-30430000D03*
X-11430000Y-31230000D03*
X-18180000Y-30430000D03*
G04 #@! TD*
D15*
G04 #@! TO.C,U2*
X-3487500Y-14560000D03*
X-3487500Y-15210000D03*
X-3487500Y-15860000D03*
X-3487500Y-16510000D03*
X-3487500Y-17160000D03*
X-3487500Y-17810000D03*
X-3487500Y-18460000D03*
X-9212500Y-18460000D03*
X-9212500Y-17810000D03*
X-9212500Y-17160000D03*
X-9212500Y-16510000D03*
X-9212500Y-15860000D03*
X-9212500Y-15210000D03*
X-9212500Y-14560000D03*
G04 #@! TD*
D16*
G04 #@! TO.C,R5*
X-35180000Y-18192500D03*
X-36830000Y-18192500D03*
G04 #@! TD*
G04 #@! TO.C,R4*
X-35370000Y-12142500D03*
X-37020000Y-12142500D03*
G04 #@! TD*
G04 #@! TO.C,R3*
X-35490000Y-9112500D03*
X-37140000Y-9112500D03*
G04 #@! TD*
G04 #@! TO.C,R2*
X-37020000Y-15240000D03*
X-35370000Y-15240000D03*
G04 #@! TD*
D17*
G04 #@! TO.C,R1*
X-39612500Y-12255000D03*
X-39612500Y-10605000D03*
G04 #@! TD*
D18*
G04 #@! TO.C,J1*
X-42545000Y-8255000D03*
D19*
X-42545000Y-10795000D03*
X-42545000Y-13335000D03*
X-42545000Y-15875000D03*
G04 #@! TD*
D20*
G04 #@! TO.C,C4*
X-5575000Y-12700000D03*
X-7125000Y-12700000D03*
G04 #@! TD*
D21*
G04 #@! TO.C,C3*
X-39605000Y-6845000D03*
X-39605000Y-8395000D03*
G04 #@! TD*
D20*
G04 #@! TO.C,C2*
X-9665000Y-3575000D03*
X-8115000Y-3575000D03*
G04 #@! TD*
G04 #@! TO.C,C1*
X-3950000Y-8850000D03*
X-2400000Y-8850000D03*
G04 #@! TD*
M02*
