G04 DipTrace 2.4.0.2*
%INBottom.gbr*%
%MOIN*%
%ADD13C,0.013*%
%ADD14C,0.063*%
%ADD15R,0.063X0.063*%
%ADD16C,0.0748*%
%ADD17C,0.063*%
%ADD18C,0.1378*%
%ADD19R,0.06X0.06*%
%ADD20C,0.06*%
%ADD21R,0.0591X0.0591*%
%ADD22C,0.0591*%
%ADD23C,0.06*%
%ADD24R,0.0748X0.0748*%
%ADD25C,0.0748*%
%ADD26C,0.04*%
%FSLAX44Y44*%
G04*
G70*
G90*
G75*
G01*
%LNBottom*%
%LPD*%
X8690Y14190D2*
D13*
Y15440D1*
X17190Y15690D2*
X15930Y16950D1*
Y18430D1*
X16440Y18940D1*
X12690Y13440D2*
Y12190D1*
Y10940D1*
X8690Y15440D2*
X7940Y16190D1*
Y20440D1*
X6440Y21940D1*
X16440Y18940D2*
Y21940D1*
X17440Y22940D1*
X12690Y12190D2*
X11450D1*
X11190Y12450D1*
Y13190D1*
X17440Y21940D2*
D3*
X11190Y16690D2*
Y17696D1*
X10930Y17956D1*
X10019D1*
X16111Y10174D2*
X14558Y8621D1*
X9940D1*
X9680Y8881D1*
Y10428D1*
X9940Y10688D1*
X10700D1*
X11190Y10198D1*
X14440Y14690D2*
X17190D1*
X9940Y8621D2*
X9009Y7690D1*
X8227D1*
X17190Y14690D2*
Y10434D1*
X16930Y10174D1*
X16111D1*
X17440Y17440D2*
X17950Y16930D1*
Y15450D1*
X17190Y14690D1*
X17440Y18940D2*
Y17440D1*
Y21940D2*
X17635D1*
X18009Y21566D1*
Y19509D1*
X17440Y18940D1*
X5440D2*
X5945Y18435D1*
X7420D1*
X7680Y18175D1*
Y10708D1*
X8190Y10198D1*
X8227Y8674D2*
Y9184D1*
X8680Y9637D1*
Y11680D1*
X10190Y13190D1*
X9034Y18940D2*
X9864Y19769D1*
X12925D1*
X13185Y19509D1*
Y14685D1*
X12690Y14190D1*
X9190Y13190D2*
X8190D1*
X14143Y9190D2*
Y11930D1*
X14403Y12190D1*
X16690D1*
X7440Y7690D2*
Y8804D1*
X6680Y9564D1*
Y12700D1*
X6190Y13190D1*
X13956Y17956D2*
Y16830D1*
X14440Y16346D1*
Y15690D1*
X13445Y14695D1*
Y10434D1*
X13185Y10174D1*
X12174D1*
X10680Y11695D2*
Y15015D1*
X10190Y15505D1*
Y16690D1*
X8200Y18680D1*
Y22435D1*
X7940Y22695D1*
X6195D1*
X5440Y21940D1*
X12190Y12690D2*
Y18940D1*
X11987D1*
D26*
X10680Y11695D3*
X12190Y12690D3*
D14*
X11190Y16690D3*
D15*
X10190D3*
X14440Y15690D3*
D14*
Y14690D3*
D15*
X17190Y15690D3*
D14*
Y14690D3*
X17440Y17440D3*
D15*
X16440D3*
D14*
X17440Y18940D3*
D15*
X16440D3*
D16*
X11190Y9190D3*
X14143D3*
X17096D3*
X12174Y10174D3*
X16111D3*
X12174Y5253D3*
X16111D3*
X14940Y18940D3*
X11987D3*
X9034D3*
X13956Y17956D3*
X10019D3*
X13956Y22877D3*
X10019D3*
D17*
X7440Y7690D3*
X6456D3*
X8227D3*
X5668D3*
X8227Y8674D3*
X5668D3*
D18*
X6948Y6214D3*
D19*
X5440Y21940D3*
D20*
Y20940D3*
Y19940D3*
Y18940D3*
Y17940D3*
Y16940D3*
Y15940D3*
X6440D3*
Y16940D3*
Y17940D3*
Y18940D3*
Y19940D3*
Y20940D3*
Y21940D3*
D21*
X11190Y13190D3*
D22*
X10190D3*
X9190D3*
X8190D3*
X7190D3*
X6190D3*
X5190D3*
Y10198D3*
X6190D3*
X7190D3*
X8190D3*
X9190D3*
X10190D3*
X11190D3*
D20*
X8690Y15440D3*
D23*
X12690D3*
D20*
X8690Y14190D3*
D23*
X12690D3*
D20*
Y13440D3*
D23*
X16690D3*
D20*
X12690Y12190D3*
D23*
X16690D3*
D20*
X12690Y10940D3*
D23*
X16690D3*
D24*
X17440Y20940D3*
D25*
Y21940D3*
Y22940D3*
M02*
