M48
INCH
T01C0.019
T02C0.0354
T03C0.038
T04C0.0394
T05C0.0433
T06C0.0551
T07C0.0906
%
T01
X+010680Y+011695
X+012190Y+012690
T02
X+014440Y+015690
X+014440Y+014690
X+017190Y+014690
X+017190Y+015690
X+011190Y+013190
X+010190Y+013190
X+009190Y+013190
X+008190Y+013190
X+007190Y+013190
X+006190Y+013190
X+005190Y+013190
X+005190Y+010198
X+006190Y+010198
X+007190Y+010198
X+008190Y+010198
X+009190Y+010198
X+010190Y+010198
X+011190Y+010198
X+008227Y+008674
X+008227Y+007690
X+007440Y+007690
X+006456Y+007690
X+005668Y+007690
X+005668Y+008674
T03
X+005440Y+021940
X+005440Y+020940
X+005440Y+019940
X+005440Y+018940
X+005440Y+017940
X+005440Y+016940
X+005440Y+015940
X+006440Y+015940
X+006440Y+016940
X+006440Y+017940
X+006440Y+018940
X+006440Y+019940
X+006440Y+020940
X+006440Y+021940
X+008690Y+015440
X+008690Y+014190
X+012690Y+014190
X+012690Y+013440
X+012690Y+012190
X+012690Y+010940
X+016690Y+010940
X+016690Y+012190
X+016690Y+013440
X+012690Y+015440
T04
X+011190Y+016690
X+010190Y+016690
X+016440Y+017440
X+017440Y+017440
X+017440Y+018940
X+016440Y+018940
T05
X+017440Y+020940
X+017440Y+021940
X+017440Y+022940
T06
X+011190Y+009190
X+012174Y+010174
X+014143Y+009190
X+016111Y+010174
X+017096Y+009190
X+016111Y+005253
X+012174Y+005253
X+013956Y+017956
X+014940Y+018940
X+011987Y+018940
X+010019Y+017956
X+009034Y+018940
X+010019Y+022877
X+013956Y+022877
T07
X+006948Y+006214
T00
M30
