G04 DipTrace 2.4.0.2*
%INTop.gbr*%
%MOIN*%
%ADD13C,0.013*%
%ADD14C,0.063*%
%ADD15R,0.063X0.063*%
%ADD16C,0.0748*%
%ADD17C,0.063*%
%ADD18C,0.1378*%
%ADD19R,0.06X0.06*%
%ADD20C,0.06*%
%ADD21R,0.0591X0.0591*%
%ADD22C,0.0591*%
%ADD23C,0.06*%
%ADD24R,0.0748X0.0748*%
%ADD25C,0.0748*%
%ADD26C,0.04*%
%FSLAX44Y44*%
G04*
G70*
G90*
G75*
G01*
%LNTop*%
%LPD*%
X17190Y15690D2*
D13*
X14940Y13440D1*
X12690D1*
X8690Y14190D2*
X6940D1*
X6680Y13930D1*
Y12450D1*
X6940Y12190D1*
X12690D1*
X11190Y16690D2*
X12440D1*
X14440Y14690D1*
X10019Y17956D2*
X7921D1*
X7401Y17435D1*
X5945D1*
X5440Y17940D1*
X10190Y13190D2*
Y15180D1*
X10450Y15440D1*
X12690D1*
X8227Y8674D2*
X8281Y8621D1*
X12745D1*
X13883Y9759D1*
X14875D1*
X15444Y9190D1*
X17096D1*
X9034Y18940D2*
X10328D1*
X10588Y18680D1*
Y17460D1*
X10328Y17200D1*
X9450D1*
X9190Y16940D1*
Y13190D1*
X14143Y9190D2*
Y7358D1*
X13883Y7098D1*
X8032D1*
X7440Y7690D1*
X12174Y10174D2*
X11605Y10743D1*
X7940D1*
X7680Y10483D1*
Y9444D1*
X7420Y9184D1*
X5418D1*
X5158Y8924D1*
Y8200D1*
X5668Y7690D1*
X13956Y17956D2*
X15930D1*
Y17440D1*
X16440D1*
Y17961D1*
X15930Y18471D1*
Y19430D1*
X17440Y20940D1*
X7190Y10198D2*
Y10810D1*
X8075Y11695D1*
X10680D1*
X15935D1*
X16690Y10940D1*
X7190Y13190D2*
X7690Y12690D1*
X12190D1*
X15940D1*
X16690Y13440D1*
D26*
X10680Y11695D3*
X12190Y12690D3*
D14*
X11190Y16690D3*
D15*
X10190D3*
X14440Y15690D3*
D14*
Y14690D3*
D15*
X17190Y15690D3*
D14*
Y14690D3*
X17440Y17440D3*
D15*
X16440D3*
D14*
X17440Y18940D3*
D15*
X16440D3*
D16*
X11190Y9190D3*
X14143D3*
X17096D3*
X12174Y10174D3*
X16111D3*
X12174Y5253D3*
X16111D3*
X14940Y18940D3*
X11987D3*
X9034D3*
X13956Y17956D3*
X10019D3*
X13956Y22877D3*
X10019D3*
D17*
X7440Y7690D3*
X6456D3*
X8227D3*
X5668D3*
X8227Y8674D3*
X5668D3*
D18*
X6948Y6214D3*
D19*
X5440Y21940D3*
D20*
Y20940D3*
Y19940D3*
Y18940D3*
Y17940D3*
Y16940D3*
Y15940D3*
X6440D3*
Y16940D3*
Y17940D3*
Y18940D3*
Y19940D3*
Y20940D3*
Y21940D3*
D21*
X11190Y13190D3*
D22*
X10190D3*
X9190D3*
X8190D3*
X7190D3*
X6190D3*
X5190D3*
Y10198D3*
X6190D3*
X7190D3*
X8190D3*
X9190D3*
X10190D3*
X11190D3*
D20*
X8690Y15440D3*
D23*
X12690D3*
D20*
X8690Y14190D3*
D23*
X12690D3*
D20*
Y13440D3*
D23*
X16690D3*
D20*
X12690Y12190D3*
D23*
X16690D3*
D20*
X12690Y10940D3*
D23*
X16690D3*
D24*
X17440Y20940D3*
D25*
Y21940D3*
Y22940D3*
M02*
