G04 DipTrace 2.4.0.2*
%INTopMask.gbr*%
%MOIN*%
%ADD26C,0.04*%
%ADD37C,0.0828*%
%ADD39R,0.0828X0.0828*%
%ADD41C,0.068*%
%ADD43C,0.0671*%
%ADD45R,0.0671X0.0671*%
%ADD47C,0.068*%
%ADD49R,0.068X0.068*%
%ADD51C,0.1458*%
%ADD53C,0.071*%
%ADD55C,0.0828*%
%ADD57R,0.071X0.071*%
%ADD59C,0.071*%
%FSLAX44Y44*%
G04*
G70*
G90*
G75*
G01*
%LNTopMask*%
%LPD*%
D26*
X10680Y11695D3*
X12190Y12690D3*
D59*
X11190Y16690D3*
D57*
X10190D3*
X14440Y15690D3*
D59*
Y14690D3*
D57*
X17190Y15690D3*
D59*
Y14690D3*
X17440Y17440D3*
D57*
X16440D3*
D59*
X17440Y18940D3*
D57*
X16440D3*
D55*
X11190Y9190D3*
X14143D3*
X17096D3*
X12174Y10174D3*
X16111D3*
X12174Y5253D3*
X16111D3*
X14940Y18940D3*
X11987D3*
X9034D3*
X13956Y17956D3*
X10019D3*
X13956Y22877D3*
X10019D3*
D53*
X7440Y7690D3*
X6456D3*
X8227D3*
X5668D3*
X8227Y8674D3*
X5668D3*
D51*
X6948Y6214D3*
D49*
X5440Y21940D3*
D47*
Y20940D3*
Y19940D3*
Y18940D3*
Y17940D3*
Y16940D3*
Y15940D3*
X6440D3*
Y16940D3*
Y17940D3*
Y18940D3*
Y19940D3*
Y20940D3*
Y21940D3*
D45*
X11190Y13190D3*
D43*
X10190D3*
X9190D3*
X8190D3*
X7190D3*
X6190D3*
X5190D3*
Y10198D3*
X6190D3*
X7190D3*
X8190D3*
X9190D3*
X10190D3*
X11190D3*
D47*
X8690Y15440D3*
D41*
X12690D3*
D47*
X8690Y14190D3*
D41*
X12690D3*
D47*
Y13440D3*
D41*
X16690D3*
D47*
X12690Y12190D3*
D41*
X16690D3*
D47*
X12690Y10940D3*
D41*
X16690D3*
D39*
X17440Y20940D3*
D37*
Y21940D3*
Y22940D3*
M02*
