G04 DipTrace 2.4.0.2*
%INTopSilk.gbr*%
%MOIN*%
%ADD10C,0.0098*%
%ADD60C,0.0077*%
%ADD61C,0.0046*%
%FSLAX44Y44*%
G04*
G70*
G90*
G75*
G01*
%LNTopSilk*%
%LPD*%
X9991Y16090D2*
D10*
X11389D1*
X9991Y17290D2*
X11389D1*
Y16090D2*
G03X11389Y17290I1J600D01*
G01*
X9991D2*
G03X9991Y16090I-1J-600D01*
G01*
X9627Y16572D2*
Y16808D1*
X9509Y16690D2*
X9745D1*
X14322Y16489D2*
X14558D1*
X14440Y16607D2*
Y16371D1*
X13440Y15190D2*
G02X13440Y15190I1000J0D01*
G01*
X17072Y16489D2*
X17308D1*
X17190Y16607D2*
Y16371D1*
X16190Y15190D2*
G02X16190Y15190I1000J0D01*
G01*
X16241Y16840D2*
X17639D1*
X16241Y18040D2*
X17639D1*
Y16840D2*
G03X17639Y18040I1J600D01*
G01*
X16241D2*
G03X16241Y16840I-1J-600D01*
G01*
X15877Y17322D2*
Y17558D1*
X15759Y17440D2*
X15995D1*
X16241Y18340D2*
X17639D1*
X16241Y19540D2*
X17639D1*
Y18340D2*
G03X17639Y19540I1J600D01*
G01*
X16241D2*
G03X16241Y18340I-1J-600D01*
G01*
X15877Y18822D2*
Y19058D1*
X15759Y18940D2*
X15995D1*
X17643Y9674D2*
Y5174D1*
X18143D1*
Y4674D1*
X17643D1*
Y4174D1*
X10643D1*
X10143D1*
Y4674D1*
X10643D1*
Y9674D1*
X17643D1*
X8487Y18456D2*
Y22956D1*
X7987D1*
Y23456D1*
X8487D1*
Y23956D1*
X15487D1*
X15987D1*
Y23456D1*
X15487D1*
Y18456D1*
X8487D1*
X4192Y9363D2*
Y4344D1*
X9704Y9363D2*
X4192D1*
X9704D2*
Y4344D1*
X4192D1*
X5439Y23690D2*
Y23940D1*
X6441Y23690D2*
X5439D1*
X6441D2*
Y23940D1*
X5439Y13940D2*
Y14190D1*
X6441D2*
X5439D1*
X6441Y13940D2*
Y14190D1*
X7690Y23940D2*
X4190D1*
X7690Y13940D2*
X4190D1*
X7690D2*
Y23940D1*
X4491Y19740D2*
X4190D1*
X4491Y18140D2*
Y19740D1*
Y18140D2*
X4190D1*
Y19740D2*
Y23940D1*
Y13940D2*
Y18140D1*
X12048Y10670D2*
X4332D1*
Y12718D2*
Y10670D1*
X12048Y12718D2*
X4332D1*
X12048D2*
Y11930D1*
Y10670D2*
Y11458D1*
Y11930D2*
G03X12048Y11458I0J-236D01*
G01*
X11688Y14940D2*
X9692D1*
Y15940D2*
Y14940D1*
X11688Y15940D2*
X9692D1*
X11688D2*
Y14940D1*
Y13690D2*
X9692D1*
Y14690D2*
Y13690D1*
X11688Y14690D2*
X9692D1*
X11688D2*
Y13690D1*
X15688Y12940D2*
X13692D1*
Y13940D2*
Y12940D1*
X15688Y13940D2*
X13692D1*
X15688D2*
Y12940D1*
Y11690D2*
X13692D1*
Y12690D2*
Y11690D1*
X15688Y12690D2*
X13692D1*
X15688D2*
Y11690D1*
Y10440D2*
X13692D1*
Y11440D2*
Y10440D1*
X15688Y11440D2*
X13692D1*
X15688D2*
Y10440D1*
X16377Y19971D2*
X18149D1*
Y23909D1*
X16377D1*
Y19971D1*
X16731D2*
Y23909D1*
X8732Y16653D2*
D60*
X8708Y16700D1*
X8660Y16748D1*
X8613Y16772D1*
X8517D1*
X8469Y16748D1*
X8422Y16700D1*
X8397Y16653D1*
X8373Y16581D1*
Y16461D1*
X8397Y16390D1*
X8422Y16342D1*
X8469Y16294D1*
X8517Y16270D1*
X8613D1*
X8660Y16294D1*
X8708Y16342D1*
X8732Y16390D1*
X8887Y16676D2*
X8935Y16700D1*
X9007Y16772D1*
Y16270D1*
X13125Y16470D2*
X13101Y16517D1*
X13053Y16565D1*
X13005Y16589D1*
X12910D1*
X12862Y16565D1*
X12814Y16517D1*
X12790Y16470D1*
X12766Y16398D1*
Y16278D1*
X12790Y16207D1*
X12814Y16159D1*
X12862Y16111D1*
X12910Y16087D1*
X13005D1*
X13053Y16111D1*
X13101Y16159D1*
X13125Y16207D1*
X13303Y16469D2*
Y16493D1*
X13327Y16541D1*
X13351Y16565D1*
X13399Y16589D1*
X13495D1*
X13542Y16565D1*
X13566Y16541D1*
X13590Y16493D1*
Y16446D1*
X13566Y16397D1*
X13518Y16326D1*
X13279Y16087D1*
X13614D1*
X15717Y16396D2*
X15693Y16443D1*
X15645Y16491D1*
X15598Y16515D1*
X15502D1*
X15454Y16491D1*
X15407Y16443D1*
X15382Y16396D1*
X15359Y16324D1*
Y16204D1*
X15382Y16133D1*
X15407Y16085D1*
X15454Y16037D1*
X15502Y16013D1*
X15598D1*
X15645Y16037D1*
X15693Y16085D1*
X15717Y16133D1*
X15920Y16515D2*
X16182D1*
X16039Y16323D1*
X16111D1*
X16158Y16300D1*
X16182Y16276D1*
X16207Y16204D1*
Y16156D1*
X16182Y16085D1*
X16135Y16037D1*
X16063Y16013D1*
X15991D1*
X15920Y16037D1*
X15896Y16061D1*
X15872Y16108D1*
X14863Y17153D2*
X14839Y17200D1*
X14791Y17248D1*
X14743Y17272D1*
X14648D1*
X14600Y17248D1*
X14552Y17200D1*
X14528Y17153D1*
X14504Y17081D1*
Y16961D1*
X14528Y16890D1*
X14552Y16842D1*
X14600Y16794D1*
X14648Y16770D1*
X14743D1*
X14791Y16794D1*
X14839Y16842D1*
X14863Y16890D1*
X15257Y16770D2*
Y17272D1*
X15017Y16937D1*
X15376D1*
X14875Y18153D2*
X14851Y18200D1*
X14803Y18248D1*
X14755Y18272D1*
X14660D1*
X14612Y18248D1*
X14564Y18200D1*
X14540Y18153D1*
X14516Y18081D1*
Y17961D1*
X14540Y17890D1*
X14564Y17842D1*
X14612Y17794D1*
X14660Y17770D1*
X14755D1*
X14803Y17794D1*
X14851Y17842D1*
X14875Y17890D1*
X15316Y18272D2*
X15077D1*
X15053Y18057D1*
X15077Y18080D1*
X15149Y18105D1*
X15220D1*
X15292Y18080D1*
X15340Y18033D1*
X15364Y17961D1*
Y17914D1*
X15340Y17842D1*
X15292Y17794D1*
X15220Y17770D1*
X15149D1*
X15077Y17794D1*
X15053Y17818D1*
X15029Y17865D1*
X13516Y4780D2*
Y4278D1*
X13684D1*
X13756Y4302D1*
X13804Y4350D1*
X13827Y4398D1*
X13851Y4469D1*
Y4589D1*
X13827Y4661D1*
X13804Y4709D1*
X13756Y4757D1*
X13684Y4780D1*
X13516D1*
X14006D2*
Y4278D1*
X14495Y4780D2*
Y4278D1*
X14160Y4780D1*
Y4278D1*
X14649Y4684D2*
X14697Y4709D1*
X14769Y4780D1*
Y4278D1*
X11253Y23688D2*
Y23186D1*
X11421D1*
X11493Y23210D1*
X11541Y23257D1*
X11564Y23306D1*
X11588Y23377D1*
Y23497D1*
X11564Y23569D1*
X11541Y23616D1*
X11493Y23664D1*
X11421Y23688D1*
X11253D1*
X11743D2*
Y23186D1*
X12232Y23688D2*
Y23186D1*
X11897Y23688D1*
Y23186D1*
X12411Y23568D2*
Y23592D1*
X12434Y23640D1*
X12458Y23664D1*
X12506Y23687D1*
X12602D1*
X12649Y23664D1*
X12673Y23640D1*
X12697Y23592D1*
Y23544D1*
X12673Y23496D1*
X12626Y23425D1*
X12386Y23186D1*
X12721D1*
X7964Y5095D2*
Y4593D1*
X8131D1*
X8203Y4617D1*
X8251Y4665D1*
X8275Y4713D1*
X8299Y4784D1*
Y4904D1*
X8275Y4976D1*
X8251Y5024D1*
X8203Y5072D1*
X8131Y5095D1*
X7964D1*
X8453D2*
Y4593D1*
X8943Y5095D2*
Y4593D1*
X8608Y5095D1*
Y4593D1*
X9145Y5095D2*
X9408D1*
X9264Y4904D1*
X9336D1*
X9384Y4880D1*
X9408Y4856D1*
X9432Y4784D1*
Y4737D1*
X9408Y4665D1*
X9360Y4617D1*
X9288Y4593D1*
X9216D1*
X9145Y4617D1*
X9121Y4641D1*
X9097Y4689D1*
X4422Y13672D2*
Y13290D1*
X4399Y13218D1*
X4374Y13194D1*
X4327Y13170D1*
X4279D1*
X4231Y13194D1*
X4207Y13218D1*
X4183Y13290D1*
Y13337D1*
X4577Y13576D2*
X4625Y13600D1*
X4697Y13672D1*
Y13170D1*
X5876Y11465D2*
Y11968D1*
X5685Y11465D1*
X5493Y11968D1*
Y11465D1*
X6365Y11896D2*
X6318Y11944D1*
X6246Y11968D1*
X6150D1*
X6078Y11944D1*
X6030Y11896D1*
Y11848D1*
X6055Y11800D1*
X6078Y11776D1*
X6126Y11753D1*
X6270Y11704D1*
X6318Y11681D1*
X6341Y11656D1*
X6365Y11609D1*
Y11537D1*
X6318Y11489D1*
X6246Y11465D1*
X6150D1*
X6078Y11489D1*
X6030Y11537D1*
X6520Y11704D2*
X6735D1*
X6806Y11728D1*
X6831Y11753D1*
X6854Y11800D1*
Y11872D1*
X6831Y11919D1*
X6806Y11944D1*
X6735Y11968D1*
X6520D1*
Y11465D1*
X7248D2*
Y11967D1*
X7009Y11633D1*
X7368D1*
X7570Y11967D2*
X7833D1*
X7689Y11776D1*
X7761D1*
X7809Y11752D1*
X7833Y11728D1*
X7857Y11656D1*
Y11609D1*
X7833Y11537D1*
X7785Y11489D1*
X7713Y11465D1*
X7641D1*
X7570Y11489D1*
X7546Y11513D1*
X7522Y11561D1*
X8155Y11967D2*
X8083Y11943D1*
X8035Y11871D1*
X8011Y11752D1*
Y11680D1*
X8035Y11561D1*
X8083Y11489D1*
X8155Y11465D1*
X8203D1*
X8274Y11489D1*
X8322Y11561D1*
X8346Y11680D1*
Y11752D1*
X8322Y11871D1*
X8274Y11943D1*
X8203Y11967D1*
X8155D1*
X8322Y11871D2*
X8035Y11561D1*
X8859Y11848D2*
X8836Y11896D1*
X8787Y11944D1*
X8740Y11968D1*
X8644D1*
X8596Y11944D1*
X8549Y11896D1*
X8524Y11848D1*
X8501Y11776D1*
Y11656D1*
X8524Y11585D1*
X8549Y11537D1*
X8596Y11489D1*
X8644Y11465D1*
X8740D1*
X8787Y11489D1*
X8836Y11537D1*
X8859Y11585D1*
Y11656D1*
X8740D1*
X9038Y11848D2*
Y11871D1*
X9062Y11919D1*
X9086Y11943D1*
X9134Y11967D1*
X9229D1*
X9277Y11943D1*
X9301Y11919D1*
X9325Y11871D1*
Y11824D1*
X9301Y11776D1*
X9253Y11704D1*
X9014Y11465D1*
X9349D1*
X9527Y11848D2*
Y11871D1*
X9551Y11919D1*
X9575Y11943D1*
X9623Y11967D1*
X9719D1*
X9766Y11943D1*
X9790Y11919D1*
X9814Y11871D1*
Y11824D1*
X9790Y11776D1*
X9742Y11704D1*
X9503Y11465D1*
X9838D1*
X9992Y11871D2*
X10040Y11896D1*
X10112Y11967D1*
Y11465D1*
X10267Y11871D2*
X10315Y11896D1*
X10387Y11967D1*
Y11465D1*
X10385Y15433D2*
X10600D1*
X10672Y15457D1*
X10697Y15481D1*
X10720Y15529D1*
Y15577D1*
X10697Y15624D1*
X10672Y15648D1*
X10600Y15672D1*
X10385D1*
Y15170D1*
X10553Y15433D2*
X10720Y15170D1*
X10875Y15576D2*
X10923Y15600D1*
X10995Y15672D1*
Y15170D1*
X10278Y14183D2*
X10493D1*
X10565Y14207D1*
X10589Y14231D1*
X10613Y14279D1*
Y14327D1*
X10589Y14374D1*
X10565Y14398D1*
X10493Y14422D1*
X10278D1*
Y13920D1*
X10445Y14183D2*
X10613Y13920D1*
X10792Y14302D2*
Y14326D1*
X10815Y14374D1*
X10839Y14398D1*
X10887Y14422D1*
X10983D1*
X11030Y14398D1*
X11054Y14374D1*
X11078Y14326D1*
Y14279D1*
X11054Y14230D1*
X11007Y14159D1*
X10767Y13920D1*
X11102D1*
X14278Y13433D2*
X14493D1*
X14565Y13457D1*
X14589Y13481D1*
X14613Y13529D1*
Y13577D1*
X14589Y13624D1*
X14565Y13648D1*
X14493Y13672D1*
X14278D1*
Y13170D1*
X14445Y13433D2*
X14613Y13170D1*
X14815Y13672D2*
X15078D1*
X14935Y13480D1*
X15007D1*
X15054Y13457D1*
X15078Y13433D1*
X15102Y13361D1*
Y13314D1*
X15078Y13242D1*
X15030Y13194D1*
X14958Y13170D1*
X14887D1*
X14815Y13194D1*
X14792Y13218D1*
X14767Y13265D1*
X14266Y12183D2*
X14481D1*
X14553Y12207D1*
X14577Y12231D1*
X14601Y12279D1*
Y12327D1*
X14577Y12374D1*
X14553Y12398D1*
X14481Y12422D1*
X14266D1*
Y11920D1*
X14433Y12183D2*
X14601Y11920D1*
X14995D2*
Y12422D1*
X14755Y12087D1*
X15114D1*
X14278Y10933D2*
X14493D1*
X14565Y10957D1*
X14589Y10981D1*
X14613Y11029D1*
Y11077D1*
X14589Y11124D1*
X14565Y11148D1*
X14493Y11172D1*
X14278D1*
Y10670D1*
X14445Y10933D2*
X14613Y10670D1*
X15054Y11172D2*
X14815D1*
X14792Y10957D1*
X14815Y10980D1*
X14887Y11005D1*
X14958D1*
X15030Y10980D1*
X15078Y10933D1*
X15102Y10861D1*
Y10814D1*
X15078Y10742D1*
X15030Y10694D1*
X14958Y10670D1*
X14887D1*
X14815Y10694D1*
X14792Y10718D1*
X14767Y10765D1*
X17054Y23891D2*
Y23532D1*
X17078Y23460D1*
X17126Y23413D1*
X17198Y23388D1*
X17246D1*
X17317Y23413D1*
X17366Y23460D1*
X17389Y23532D1*
Y23891D1*
X17568Y23771D2*
Y23795D1*
X17592Y23843D1*
X17616Y23866D1*
X17664Y23890D1*
X17759D1*
X17807Y23866D1*
X17831Y23843D1*
X17855Y23795D1*
Y23747D1*
X17831Y23699D1*
X17783Y23628D1*
X17544Y23388D1*
X17879D1*
X18283Y6040D2*
D61*
X17981Y5924D1*
X18283Y5810D1*
X18182Y5853D2*
Y5996D1*
X17981Y6233D2*
X18283D1*
X17981Y6132D2*
Y6333D1*
X18053Y6440D2*
X18039D1*
X18010Y6455D1*
X17996Y6469D1*
X17982Y6498D1*
Y6555D1*
X17996Y6584D1*
X18010Y6598D1*
X18039Y6612D1*
X18068D1*
X18096Y6598D1*
X18139Y6569D1*
X18283Y6426D1*
Y6627D1*
X17981Y6719D2*
X18283Y6920D1*
X17981D2*
X18283Y6719D1*
X17981Y7113D2*
X18283D1*
X17981Y7013D2*
Y7214D1*
X18082Y7598D2*
X18283Y7684D1*
X18082Y7770D1*
X18039Y7863D2*
X18024Y7892D1*
X17982Y7935D1*
X18283D1*
X18254Y8042D2*
X18268Y8027D1*
X18283Y8042D1*
X18268Y8056D1*
X18254Y8042D1*
X18039Y8149D2*
X18024Y8178D1*
X17982Y8221D1*
X18283D1*
X17982Y8400D2*
X17996Y8357D1*
X18039Y8328D1*
X18111Y8314D1*
X18154D1*
X18225Y8328D1*
X18268Y8357D1*
X18283Y8400D1*
Y8428D1*
X18268Y8471D1*
X18225Y8500D1*
X18154Y8515D1*
X18111D1*
X18039Y8500D1*
X17996Y8471D1*
X17982Y8428D1*
Y8400D1*
X18039Y8500D2*
X18225Y8328D1*
X18053Y8913D2*
X18039D1*
X18010Y8928D1*
X17996Y8942D1*
X17982Y8971D1*
Y9028D1*
X17996Y9057D1*
X18010Y9071D1*
X18039Y9085D1*
X18068D1*
X18096Y9071D1*
X18139Y9042D1*
X18283Y8899D1*
Y9100D1*
X17982Y9279D2*
X17996Y9235D1*
X18039Y9207D1*
X18111Y9192D1*
X18154D1*
X18225Y9207D1*
X18268Y9235D1*
X18283Y9279D1*
Y9307D1*
X18268Y9350D1*
X18225Y9379D1*
X18154Y9393D1*
X18111D1*
X18039Y9379D1*
X17996Y9350D1*
X17982Y9307D1*
Y9279D1*
X18039Y9379D2*
X18225Y9207D1*
X18039Y9486D2*
X18024Y9515D1*
X17982Y9558D1*
X18283D1*
X17982Y9823D2*
Y9679D1*
X18111Y9665D1*
X18096Y9679D1*
X18082Y9723D1*
Y9765D1*
X18096Y9808D1*
X18125Y9837D1*
X18168Y9852D1*
X18197D1*
X18240Y9837D1*
X18268Y9808D1*
X18283Y9765D1*
Y9723D1*
X18268Y9679D1*
X18254Y9665D1*
X18225Y9651D1*
X17981Y10236D2*
X18283Y10308D1*
X17981Y10379D1*
X18283Y10451D1*
X17981Y10523D1*
Y10616D2*
X18283D1*
X17981Y10708D2*
X18283D1*
Y10880D1*
X17981Y10973D2*
X18283D1*
Y11145D1*
X17981Y11238D2*
X18283D1*
Y11560D2*
X17981Y11445D1*
X18283Y11330D1*
X18182Y11373D2*
Y11517D1*
X18283Y11882D2*
X17981D1*
X18283Y11768D1*
X17981Y11653D1*
X18283D1*
X17981Y12266D2*
X18283D1*
Y12367D1*
X18268Y12410D1*
X18240Y12439D1*
X18211Y12453D1*
X18168Y12467D1*
X18096D1*
X18053Y12453D1*
X18024Y12439D1*
X17996Y12410D1*
X17981Y12367D1*
Y12266D1*
Y12995D2*
X18211D1*
X18254Y12981D1*
X18268Y12966D1*
X18283Y12938D1*
Y12909D1*
X18268Y12881D1*
X18254Y12866D1*
X18211Y12852D1*
X18182D1*
X17981Y13174D2*
X17996Y13145D1*
X18024Y13117D1*
X18053Y13102D1*
X18096Y13088D1*
X18168D1*
X18211Y13102D1*
X18240Y13117D1*
X18268Y13145D1*
X18283Y13174D1*
Y13232D1*
X18268Y13260D1*
X18240Y13289D1*
X18211Y13303D1*
X18168Y13317D1*
X18096D1*
X18053Y13303D1*
X18024Y13289D1*
X17996Y13260D1*
X17981Y13232D1*
Y13174D1*
Y13611D2*
X18283D1*
X17981Y13410D1*
X18283D1*
X17981Y13890D2*
Y13704D1*
X18283D1*
Y13890D1*
X18125Y13704D2*
Y13818D1*
X18024Y14184D2*
X17996Y14155D1*
X17981Y14112D1*
Y14055D1*
X17996Y14011D1*
X18024Y13983D1*
X18053D1*
X18082Y13997D1*
X18096Y14011D1*
X18110Y14040D1*
X18139Y14126D1*
X18153Y14155D1*
X18168Y14169D1*
X18197Y14184D1*
X18240D1*
X18268Y14155D1*
X18283Y14112D1*
Y14055D1*
X18268Y14011D1*
X18240Y13983D1*
M02*
